<svg width="144" height="208" viewBox="0 0 144 208" fill="none" xmlns="http://www.w3.org/2000/svg">
<g clip-path="url(#clip0_823_9318)">
<g clip-path="url(#clip1_823_9318)">
<path d="M5.39861 74.9043C5.82673 74.2989 6.32649 71.3068 6.56232 70.4155C8.2402 64.0984 9.51551 57.7575 11.49 51.5161C12.7979 47.3823 16.6524 47.3404 19.295 44.5564C21.3642 42.3765 22.6757 41.4244 25.6644 41.0234C25.3265 41.8129 24.3697 42.2964 23.6317 42.7681C23.4764 47.0119 25.1162 54.7656 25.9447 59.1091C26.6625 62.8732 27.7348 69.198 28.7932 72.7572C30.0555 66.5882 31.2086 60.3973 32.2521 54.1874C32.7597 51.2378 33.7208 46.2347 33.9023 43.4177C33.4245 42.7109 32.5392 41.89 32.3613 41.2474C36.1587 41.7105 36.8292 43.6701 39.6132 45.8613C40.4329 46.5066 42.6196 47.5558 43.6659 48.2168C46.079 50.0006 46.2962 51.3634 47.0408 54.2286C47.0922 54.4266 47.0165 54.2179 47.1103 54.4514C47.3356 53.9733 47.3482 53.9622 47.7353 53.8115L47.5121 53.633C47.5782 53.1861 48.1855 52.8042 48.5346 52.5561C49.1131 52.4964 49.8128 52.4864 50.4028 52.4625L50.8852 52.5268C53.8527 52.6811 54.8784 52.7799 57.1628 55.0976C57.9241 55.8696 58.999 56.8941 59.5792 57.7686L59.6246 57.8359C59.8612 58.1906 59.8632 58.4702 59.8956 58.8879C59.053 60.0554 58.6841 61.1907 58.0354 62.1735C57.7997 62.7275 57.3999 63.6979 57.3282 64.3001L57.5449 64.5139C60.3868 65.9518 61.3091 66.5164 61.3724 69.7867C61.4572 74.1541 66.306 75.0831 69.1337 77.2998C69.4591 79.1053 69.6146 80.7586 69.7595 82.5855C70.1864 87.9697 70.8449 93.3345 71.1472 98.7274C71.1854 99.4075 71.2686 100.115 71.3423 100.792C71.4117 101.264 71.4679 101.77 71.4924 102.247C71.7314 106.877 72.6881 111.727 72.816 116.335C71.1501 116.754 68.9202 117.121 67.2589 116.694C66.5146 111.695 65.7106 105.591 65.1695 100.551C64.2507 100.597 63.3528 100.636 62.4365 100.728C62.8094 102.157 63.0397 104.378 63.3201 105.91C65.1062 115.676 65.4273 125.861 65.9592 135.803L67.8002 168.213C66.2668 168.475 63.41 168.636 62.1084 167.732C60.1365 166.944 58.6605 166.971 56.6584 167.482C55.9756 167.704 54.4745 168.632 53.8058 169.069C52.4101 169.981 48.9155 170.568 47.4323 169.858C46.263 169.299 45.6041 168.225 43.8081 168.192C41.6549 168.167 39.1906 169.166 37.0467 168.712C35.6185 168.409 37.0921 165.355 36.5732 164.539C34.7368 164.363 33.7072 164.688 32.0534 165.527C31.3628 166.169 28.4987 166.91 27.7471 166.008C27.7752 165.377 28.6578 161.825 28.8592 160.94C29.5682 157.901 30.1984 154.844 30.7492 151.773C31.9741 144.958 32.8764 138.329 33.9744 131.506C34.2759 129.631 34.439 127.523 34.7811 125.722C33.8817 125.712 32.9249 125.748 32.0276 125.824C24.2541 126.496 16.879 125.141 9.32012 123.66C9.30819 122.904 9.34549 122.085 9.39784 121.329C9.86506 114.589 10.3331 107.823 10.6319 101.075L9.78642 100.89C8.24982 100.618 6.92806 100.129 5.42535 99.8119C5.54012 97.7498 5.38488 93.7287 5.37766 91.4776C5.3558 85.9531 5.36279 80.4287 5.39861 74.9043Z" fill="#8A8484"/>
<path d="M5.39861 74.9043C5.82673 74.2989 6.32649 71.3068 6.56232 70.4155C8.2402 64.0984 9.51551 57.7575 11.49 51.5161C12.7979 47.3823 16.6524 47.3404 19.295 44.5564C21.3642 42.3765 22.6757 41.4244 25.6644 41.0234C25.3265 41.8129 24.3697 42.2964 23.6317 42.7681C23.4764 47.0119 25.1162 54.7656 25.9447 59.1091C26.6625 62.8732 27.7348 69.198 28.7932 72.7572C30.0555 66.5882 31.2086 60.3973 32.2521 54.1874C32.7597 51.2378 33.7208 46.2347 33.9023 43.4177C33.4245 42.7109 32.5392 41.89 32.3613 41.2474C36.1587 41.7105 36.8292 43.6701 39.6132 45.8613C40.4329 46.5066 42.6196 47.5558 43.6659 48.2168C46.079 50.0006 46.2962 51.3634 47.0408 54.2286C47.0922 54.4266 47.0165 54.2179 47.1103 54.4514C46.7236 56.194 43.2156 57.8598 41.6861 58.5104C41.2729 58.3522 38.5127 59.6182 37.7863 59.8725L37.1123 60.2216C36.1464 60.9372 35.0218 61.2918 34.1095 62.1307C32.1464 63.9359 32.5495 67.039 32.2126 69.5726L31.9326 71.2945C31.8101 73.038 31.5665 74.921 31.3688 76.6704C31.1352 78.7373 30.9898 81.5235 30.642 83.5349C30.6207 84.9414 30.4462 86.949 30.257 88.3685C30.1853 90.646 29.7495 94.1077 29.5115 96.43C28.9166 101.892 28.3865 107.361 27.9214 112.834C27.8372 113.864 27.6629 115.036 27.6021 116.029C29.3846 116.403 31.2054 116.561 33.0254 116.5C34.186 109.645 35.243 102.775 36.196 95.8898L37.5002 86.9752C37.7685 85.1007 38.0925 82.2919 38.5387 80.5029C38.8107 83.2601 39.2627 86.2258 39.6446 88.9817C40.1042 92.2978 39.9397 93.3478 39.4341 96.6277C38.9418 99.7067 38.416 102.78 37.8567 105.848C36.8873 111.354 36.1789 116.913 35.2919 122.432C35.2078 122.955 34.9147 125.447 34.7811 125.722C33.8817 125.712 32.9249 125.748 32.0276 125.824C24.2541 126.496 16.879 125.141 9.32012 123.66C9.30819 122.904 9.34549 122.085 9.39784 121.329C9.86506 114.589 10.3331 107.823 10.6319 101.075L9.78642 100.89C8.24982 100.618 6.92806 100.129 5.42535 99.8119C5.54012 97.7498 5.38488 93.7287 5.37766 91.4776C5.3558 85.9531 5.36279 80.4287 5.39861 74.9043Z" fill="#3C263A"/>
<path d="M9.7872 100.89C9.7645 98.9073 13.949 69.9046 14.4324 68.7805L14.5922 68.6484C14.8808 69.2828 13.2362 86.8004 13.1544 89.1117C13.0373 92.418 12.0646 97.7534 11.8222 101.263C11.4739 101.188 10.9714 101.05 10.6327 101.075L9.7872 100.89Z" fill="#3C263A"/>
<path d="M29.2051 74.4419C29.5646 73.8299 31.8168 69.2631 32.0719 69.1836L32.214 69.5724L31.9341 71.2943C31.8115 73.0378 31.5679 74.9208 31.3702 76.6702C31.1366 78.7371 30.9913 81.5233 30.6435 83.5347C30.6221 84.9412 30.4476 86.9488 30.2585 88.3683L30.1692 88.3439C29.8332 87.7991 30.0477 81.4809 29.9555 80.3831C29.7909 78.424 29.3477 76.3948 29.2051 74.4419Z" fill="#3C263A"/>
<path d="M30.6428 83.5334C30.5887 80.7969 30.0084 77.9802 29.9397 75.277C29.9169 74.3802 31.2318 71.8616 31.9334 71.293C31.8108 73.0365 31.5673 74.9194 31.3696 76.6689C31.1359 78.7357 30.9906 81.522 30.6428 83.5334Z" fill="#3C263A"/>
<path d="M40.222 50.1078C39.7817 48.8122 39.3565 47.7585 39.0797 46.4099L39.1924 46.3426L39.0616 46.261L39.1141 46.1797C39.5001 46.8679 40.3662 49.3475 40.7781 50.3234C39.5609 50.7042 38.3666 51.1553 37.2011 51.674C37.9033 52.418 39.9892 53.4776 40.1756 54.1296C40.6991 55.9601 38.4779 58.2649 37.7867 59.8717L37.1126 60.2208C37.1326 59.8796 39.2285 54.8283 39.5182 54.0443C38.2262 53.0088 37.2004 52.7242 35.9434 51.3856C37.2133 50.6744 38.7587 50.4952 40.222 50.1078Z" fill="#3C263A"/>
<path d="M16.3047 50.4928C17.0151 49.35 17.4102 47.635 18.1774 46.4023L18.2371 46.4893L18.1179 46.5161L18.2171 46.6105C18.0217 47.5083 17.4765 48.9474 17.1815 49.9176C18.6186 50.5375 19.8448 50.7038 21.383 51.4627C20.2611 52.5673 19.0514 53.5583 17.9327 54.7046C20.4183 59.8187 22.754 65.0511 25.2072 70.1853C26.0112 71.8679 26.9166 73.697 27.5683 75.4338L27.3425 75.5117C26.7144 73.936 24.8839 70.6594 24.0594 69.2029C22.3425 66.1702 20.5819 63.1471 18.9817 60.0375C18.2428 58.6019 16.9345 56.3061 16.4858 54.7941C17.3819 53.7557 18.8687 52.577 19.9528 51.6761C18.7874 51.2268 17.5232 50.739 16.3047 50.4928Z" fill="#3C263A"/>
<path d="M31.2656 116.535C31.5533 116.575 31.7029 116.619 31.9837 116.698C32.6959 117.951 32.3656 124.12 33.0643 125.629C32.5316 125.638 31.928 125.689 31.39 125.722C31.2525 123.446 31.1573 118.805 31.2656 116.535Z" fill="#3C263A"/>
<path d="M26.9221 80.9731C27.3657 80.9315 27.8718 80.8695 28.2845 81.0642C28.9547 81.3804 28.8813 82.2371 28.4977 82.749C26.8397 83.1009 26.283 82.5503 26.9221 80.9731Z" fill="#3C263A"/>
<path d="M27.5696 75.4336C27.7572 75.7962 27.9451 76.0529 27.9137 76.4467C27.6384 76.2961 27.4608 75.8259 27.3438 75.5115L27.5696 75.4336Z" fill="#3C263A"/>
<path d="M50.4042 52.4609L50.8866 52.5252C53.8542 52.6795 54.8799 52.7783 57.1642 55.096C57.9255 55.868 59.0005 56.8925 59.5806 57.767L59.626 57.8343C59.8627 58.189 59.8646 58.4686 59.8971 58.8862C59.0545 60.0538 58.6856 61.1891 58.0368 62.1719C57.8011 62.7258 57.4013 63.6963 57.3296 64.2985L57.5463 64.5122L57.3104 65.0013C56.2144 64.9211 53.7625 64.9939 52.5394 64.9841C49.488 64.9326 46.4361 64.9139 43.3842 64.9278L43.0969 64.0813C42.7028 63.2087 42.1535 61.0047 42.0188 60.0572L41.6875 58.5088C43.217 57.8582 46.725 56.1924 47.1118 54.4498C47.337 53.9717 47.3497 53.9606 47.7367 53.8099L47.5135 53.6314C47.5797 53.1845 48.1869 52.8026 48.536 52.5545C49.1145 52.4948 49.8142 52.4848 50.4042 52.4609Z" fill="#D3947A"/>
<path d="M43.3796 59.5965C44.0461 59.4589 46.9603 57.8498 47.8701 57.4727C48.0904 58.4931 48.4438 60.3592 48.7524 61.3281C49.4834 61.7883 52.508 61.4453 53.3886 61.1138C54.7469 61.4558 56.6693 61.9262 58.0357 62.1734C57.8 62.7274 57.4002 63.6978 57.3285 64.3L57.5452 64.5138L57.3092 65.0028C56.2132 64.9226 53.7613 64.9955 52.5382 64.9856C49.4868 64.9341 46.4349 64.9154 43.383 64.9293L43.0958 64.0828C42.7016 63.2102 42.1523 61.0062 42.0176 60.0587C42.2417 60.0212 43.1138 59.6915 43.3796 59.5965Z" fill="#555554"/>
<path d="M43.0957 64.0811C44.8272 64.0614 56.5031 63.9444 57.3284 64.2983L57.5451 64.512L57.3092 65.001C56.2132 64.9208 53.7612 64.9937 52.5382 64.9838C49.4867 64.9323 46.4348 64.9136 43.3829 64.9275L43.0957 64.0811Z" fill="#252525"/>
<path d="M43.3809 59.5965C44.0473 59.4589 46.9615 57.8498 47.8714 57.4727C48.0917 58.4931 48.445 60.3592 48.7536 61.3281C47.4124 61.2668 44.4705 60.4216 43.3809 59.5965Z" fill="#3C263A"/>
<path d="M47.7367 53.8086C48.7355 53.9243 49.7781 53.9974 50.7554 54.1195C46.9064 55.1414 49.1407 55.9348 48.9614 56.943L48.6672 57.1867C48.2641 57.2408 48.2145 57.2526 47.8713 57.4698C46.9614 57.8469 44.0472 59.4561 43.3808 59.5937C43.115 59.6886 42.2429 60.0183 42.0188 60.0559L41.6875 58.5075C43.217 57.8569 46.725 56.191 47.1118 54.4484C47.337 53.9704 47.3497 53.9593 47.7367 53.8086Z" fill="#252525"/>
<path d="M47.8711 57.4706C48.2143 57.2534 48.2638 57.2415 48.667 57.1875C49.5008 58.2294 49.7596 58.6296 50.2159 59.9257C51.244 60.4117 52.3167 60.7355 53.3895 61.1117C52.5089 61.4433 49.4844 61.7862 48.7533 61.326C48.4448 60.3572 48.0914 58.491 47.8711 57.4706Z" fill="#8A8484"/>
<path d="M57.5214 115.656C57.8013 116.938 57.8032 119.076 57.9419 120.5C58.3923 124.814 58.805 129.131 59.1798 133.452L61.1 154.579C61.2942 156.63 62.4603 166.342 62.1095 167.73C60.1376 166.942 58.6616 166.969 56.6595 167.481C56.1374 166.056 56.8584 152.533 56.91 150.042L57.2727 128.097C57.3484 123.892 57.492 119.893 57.5214 115.656Z" fill="#555554"/>
<path d="M32.0537 165.523C31.8402 164.288 34.8705 149.712 35.389 147.096L38.4326 131.349C39.2735 127.089 40.2014 122.918 41.0007 118.629L40.9836 118.938L41.0287 118.887C41.0261 119.08 41.0189 119.272 41.0072 119.464C40.7069 123.958 40.1598 127.904 39.6741 133.359C38.7999 143.178 37.8095 154.445 36.7492 164.38C36.6906 164.431 36.6321 164.483 36.5735 164.536C34.7371 164.36 33.7075 164.684 32.0537 165.523Z" fill="#555554"/>
<path d="M43.3828 64.9263C46.4347 64.9124 49.4866 64.9311 52.538 64.9826C53.7611 64.9925 56.213 64.9196 57.3091 64.9998C55.9885 69.0682 52.9605 75.7711 50.3447 79.0502C49.626 77.6728 48.6647 76.377 47.884 74.9393C46.1603 71.7072 44.6565 68.362 43.3828 64.9263Z" fill="#555554"/>
<path d="M62.6278 80.4062C62.7938 82.9439 63.1879 85.2907 63.537 87.808C64.1591 92.045 64.7038 96.2932 65.1708 100.55C64.252 100.596 63.354 100.635 62.4377 100.727C62.2434 100.151 62.2162 99.5175 62.0735 98.9377C60.5048 92.5655 61.7016 86.8656 62.6278 80.4062Z" fill="#8A8484"/>
<path d="M81.0987 31.8974C80.4464 29.4196 79.514 28.5165 78.4004 26.3623C76.5837 22.7969 77.4159 16.9918 79.395 13.6038C81.577 10.4989 85.9752 7.3801 89.5893 6.44414C97.3207 4.44171 103.476 10.1459 105.135 17.3316C106.31 22.4179 107.526 26.8204 112.008 29.9078C113.018 30.604 114.141 31.5194 115.277 32.0229L115.348 32.0164C116.783 31.8749 116.948 31.3939 118.249 31.1664C118.876 31.0569 119.844 31.8246 120.162 31.8446C122.887 32.0167 126.167 31.8324 128.87 31.9464C128.877 31.3499 128.758 30.4792 129.566 30.4912C130.196 30.9093 130.055 31.462 130.049 32.1615C132.583 32.4466 134.903 33.7252 136.502 35.7188C138.962 38.7693 138.814 42.4451 138.811 46.1204L138.808 53.0491L138.774 75.6788L138.705 138.739L138.708 160.757C138.717 163.766 138.618 167.934 138.745 170.859L142.301 172.457C145.179 173.727 146.901 174.416 148.234 177.647C148.607 178.55 148.712 179.434 149 180.248V187.245L146.84 187.238C146.766 184.267 147.069 180.906 146.131 178.083C145.683 176.476 142.903 175.009 141.37 174.475C139.364 173.775 130.803 168.855 129.178 169.509C128.102 170.651 128.361 175.29 128.343 176.961L126.246 176.975C126.138 173.404 125.384 165.276 131.501 167.527C133.099 168.116 134.888 169.054 136.441 169.801C136.445 169.68 136.446 169.558 136.447 169.437L136.479 82.4269L136.495 54.4948L136.503 45.881C136.505 42.2865 136.92 39.2619 134.108 36.4438C133.188 35.5276 132.056 34.8536 130.815 34.4821C128.849 33.9133 123.332 34.1154 120.985 34.1309L120.559 35.8155C121.78 37.2249 122.398 38.6529 122.713 40.4688C125.58 40.4913 129.461 40.2885 132.345 40.6328C133.048 40.7166 133.754 42.4411 133.422 43.2025C132.946 43.3811 132.032 43.3544 131.487 43.3682C131.472 44.2715 131.548 45.8271 131.355 46.6654C131.182 47.4142 130.363 47.1492 129.827 47.417C129.595 47.8206 129.686 47.8638 129.712 48.3944L129.754 50.0409C129.064 50.0795 128.526 50.1154 127.83 50.0697L127.692 48.6098C125.525 48.6652 122.302 48.6597 120.22 48.8476C120.215 49.3241 118.702 51.8251 118.341 52.4513C117.39 53.7636 116.753 55.5493 118.006 56.8874C119.153 58.5845 121.136 58.3493 122.841 57.9573C121.823 59.0027 120.121 59.6547 118.664 59.666C118.423 59.667 118.182 59.6634 117.941 59.6551L117.604 59.6749C116.06 59.4073 115.377 59.1256 113.943 58.5178C113.56 56.7265 113.048 54.9001 112.6 53.1556C111.46 48.7159 109.847 43.9814 105.98 41.1596C103.455 39.3166 101.994 38.9339 99.5225 36.6199C97.409 37.2977 94.1101 38.275 92.3527 39.4889C91.6042 40.0801 90.5166 40.9863 89.9849 41.7427C87.8448 44.7872 86.2066 48.7642 84.5047 52.1063L84.2922 52.4326C83.8235 53.6401 83.0242 54.8067 82.4711 55.9742C80.854 59.3869 79.0619 62.5804 74.7898 62.887C74.0754 62.4788 71.8677 60.9905 71.4679 60.3605C68.8715 58.3852 67.7814 58.6216 64.8849 59.6478C63.8967 59.2102 62.1522 58.1185 61.0635 57.5572L59.8964 58.8853C59.864 58.4676 59.862 58.188 59.6254 57.8333L59.58 57.766C58.9999 56.8915 57.9249 55.867 57.1636 55.095C54.8793 52.7773 53.8536 52.6785 50.886 52.5242L50.4036 52.4599C49.8136 52.4838 49.1139 52.4938 48.5354 52.5535C48.1863 52.8016 47.5791 53.1835 47.5129 53.6304L47.7361 53.8089C47.349 53.9597 47.3364 53.9707 47.1111 54.4488C47.0173 54.2153 47.0931 54.424 47.0417 54.226C46.297 51.3608 46.0799 49.998 43.6667 48.2142C42.6204 47.5532 40.4337 46.504 39.614 45.8587C36.83 43.6675 36.1595 41.7079 32.3621 41.2448C32.54 41.8874 33.4254 42.7083 33.9031 43.4151C33.7216 46.2321 32.7605 51.2352 32.2529 54.1848C31.2095 60.3947 30.0563 66.5856 28.794 72.7546C27.7356 69.1954 26.6634 62.8706 25.9455 59.1065C25.117 54.763 23.4772 47.0093 23.6325 42.7655C24.3706 42.2938 25.3274 41.8103 25.6652 41.0208C22.6766 41.4218 21.365 42.3739 19.2958 44.5538C16.6533 47.3378 12.7987 47.3797 11.4909 51.5135C9.51635 57.7549 8.24104 64.0958 6.56316 70.4129C6.32733 71.3042 5.82757 74.2963 5.39945 74.9017C5.36362 80.4261 5.35664 85.9505 5.37849 91.475C5.38572 93.7261 5.54096 97.7472 5.42619 99.8093C5.24538 108.253 5.39315 117.234 5.39393 125.736L5.39042 178.759C9.0826 181.835 12.7254 184.07 13.0417 189.166C13.2246 192.113 13.198 194.976 13.2138 197.92C12.533 197.918 11.6918 197.936 11.0248 197.896C11.0143 194.126 11.6833 187.246 8.76455 184.586C6.17193 182.222 3.21714 179.91 0.532008 177.611C-0.16724 177.018 -1.12366 176.319 -1.74994 175.726C-2.22115 177.92 -2.06223 181.547 -2.04439 183.889L-4 183.898V175.674C-3.62488 174.993 -3.21542 173.862 -2.44327 173.681C-0.604964 173.25 1.7975 175.875 3.17084 176.937C3.12885 172.009 3.12006 167.08 3.14447 162.152L3.13543 135.662L3.11764 113.308C3.10969 108.566 3.03724 103.537 3.15885 98.816C2.17115 98.3357 1.18124 97.8811 0.254524 97.2909C0.710385 94.4228 1.74129 91.1883 2.33961 88.3068C2.59709 87.0669 3.08487 85.5051 3.10653 84.2515C3.17022 80.5661 3.14421 76.82 3.14191 73.1364L3.14154 52.4508C3.13983 49.141 2.87053 42.4931 3.60228 39.6185C4.20221 37.3083 5.58286 35.2786 7.50844 33.8763C8.83138 32.9255 10.3756 32.332 11.9931 32.1527C11.852 31.3969 11.6499 30.7236 12.5006 30.3598C12.909 30.481 12.7567 30.3954 13.0733 30.7311C13.2086 31.1372 13.2138 31.4502 13.2463 31.8716C16.0443 31.8984 18.8423 31.9077 21.6404 31.8994C23.1781 31.8989 24.7134 31.8972 26.2499 31.8745C27.1539 31.8611 28.0724 31.058 28.6605 31.1308C29.9719 31.2934 30.1591 31.88 31.6774 31.8849C39.6225 31.9103 47.5697 31.892 55.5148 31.9108C56.4374 31.9343 57.1573 31.1932 58.08 31.178C59.018 31.1626 59.8206 31.9146 60.7468 31.8982C67.4974 31.7789 74.3592 32.0696 81.0987 31.8974Z" fill="#252525"/>
<path d="M56.8879 44.0273C57.5121 44.2601 58.3087 44.5287 58.8796 44.8433C59.1868 45.5153 59.4765 46.4037 60.1746 46.6888C60.5441 46.6605 60.6902 46.4789 60.9816 46.2353C61.5946 46.1311 63.9659 47.5088 64.6992 47.8776C65.2398 47.8142 65.5467 48.0571 66.0918 48.0869C67.0676 48.1855 67.2937 48.1923 68.095 48.7649C68.6665 47.9486 69.6212 46.8144 70.4952 46.361C70.894 46.148 71.1794 45.8648 71.5164 45.5642C72.0572 46.1319 74.4396 47.8847 75.1289 47.9849L75.2369 47.9201C76.0454 46.7689 77.4819 46.0976 78.6903 45.391C79.0627 46.3756 79.4218 46.5605 80.2309 47.1801C81.6794 48.2893 82.981 49.4403 83.9052 51.0494C84.1157 51.4157 84.2207 51.7895 84.5044 52.1077L84.292 52.434C83.8232 53.6415 83.0239 54.8081 82.4708 55.9756C80.8537 59.3883 79.0616 62.5818 74.7895 62.8884C74.0751 62.4802 71.8675 60.9919 71.4676 60.3619C68.8713 58.3866 67.7812 58.623 64.8846 59.6492C63.8964 59.2116 62.1519 58.1199 61.0632 57.5586L59.8962 58.8867C59.8637 58.469 59.8618 58.1894 59.6251 57.8347L59.5797 57.7674C58.9996 56.8929 57.9246 55.8684 57.1634 55.0964C54.879 52.7787 53.8533 52.6799 50.8857 52.5256C50.8796 52.0286 50.9045 51.4732 50.9164 50.9712C51.9244 49.3245 53.2449 49.1699 53.1101 46.974C53.0472 46.7038 52.7914 46.2345 52.6587 45.9676C54.1134 45.2527 55.3855 44.6355 56.8879 44.0273Z" fill="#CCCCCD"/>
<path d="M56.8879 44.0273C57.5121 44.2601 58.3087 44.5287 58.8796 44.8433C59.1868 45.5153 59.4765 46.4037 60.1746 46.6888C60.5441 46.6605 60.6902 46.4789 60.9816 46.2353C61.5946 46.1311 63.9659 47.5088 64.6992 47.8776C65.2398 47.8142 65.5467 48.0571 66.0918 48.0869C66.7795 48.9373 65.8663 49.7768 65.6683 50.6506C65.538 50.8861 65.3629 51.2386 65.2007 51.4365C63.7147 53.585 59.7305 55.1636 57.1634 55.0964C54.879 52.7787 53.8533 52.6799 50.8857 52.5256C50.8796 52.0286 50.9045 51.4732 50.9164 50.9712C51.9244 49.3245 53.2449 49.1699 53.1101 46.974C53.0472 46.7038 52.7914 46.2345 52.6587 45.9676C54.1134 45.2527 55.3855 44.6355 56.8879 44.0273Z" fill="#8A8484"/>
<path d="M56.8874 44.0273C57.5116 44.2601 58.3082 44.5287 58.8791 44.8433C59.1862 45.5153 59.476 46.4037 60.1741 46.6888C60.5436 46.6605 60.6897 46.4789 60.9811 46.2353C61.594 46.1311 63.9654 47.5088 64.6986 47.8776C63.9814 48.0707 63.2614 48.2532 62.5389 48.4256C60.2045 48.9596 55.6678 49.0067 53.4263 47.7923C53.1923 47.6654 53.1779 47.2837 53.1096 46.974C53.0467 46.7038 52.7909 46.2345 52.6582 45.9676C54.1129 45.2527 55.385 44.6355 56.8874 44.0273Z" fill="#FBFBFB"/>
<path d="M65.2009 51.4356C61.7544 51.5993 56.1981 51.4067 52.5622 51.457C52.3141 51.4605 52.0482 51.1353 51.9102 50.8871L51.948 50.7599C52.1186 50.6509 52.3443 50.5996 52.5474 50.606C56.9199 50.7451 61.2956 50.584 65.6686 50.6497C65.5383 50.8853 65.3632 51.2377 65.2009 51.4356Z" fill="#252525"/>
<path d="M66.0925 48.0859C67.0683 48.1845 67.2944 48.1913 68.0957 48.7639C67.754 49.2836 67.3875 49.8684 67.0295 50.3701C67.8617 51.3446 68.7774 52.4691 69.6892 53.3489C69.5907 54.8071 69.4379 56.0932 69.8473 57.5289C70.0737 58.3232 71.4129 59.7744 71.4683 60.3609C68.872 58.3856 67.7819 58.622 64.8853 59.6482C63.8971 59.2106 62.1526 58.1189 61.0639 57.5576L59.8969 58.8857C59.8644 58.468 59.8625 58.1884 59.6258 57.8337L59.5804 57.7664C59.0003 56.8919 57.9254 55.8674 57.1641 55.0954C59.7312 55.1626 63.7154 53.584 65.2014 51.4355C65.3636 51.2376 65.5388 50.8851 65.6691 50.6496C65.867 49.7758 66.7802 48.9363 66.0925 48.0859Z" fill="#8A8484"/>
<path d="M75.2363 47.9197C76.0448 46.7685 77.4813 46.0973 78.6897 45.3906C79.0621 46.3753 79.4212 46.5602 80.2303 47.1798C81.6788 48.2889 82.9804 49.44 83.9046 51.0491C84.1151 51.4153 84.2201 51.7892 84.5038 52.1074L84.2914 52.4337C80.8577 51.5124 80.3569 48.8541 77.2955 47.9638C77.0604 47.8954 75.6678 47.9362 75.2363 47.9197Z" fill="#3C263A"/>
<path d="M5.39955 74.903L5.39453 53.5377C5.39561 49.7259 5.35399 45.8123 5.45262 42.0019C5.50869 39.8356 6.67381 37.5196 8.32697 36.0925C9.32998 35.2281 10.5357 34.6338 11.8307 34.3655C13.8962 33.9324 19.6984 34.1143 22.0379 34.1185C24.2436 34.1224 28.5383 33.9912 30.6359 34.163C31.3484 35.0333 29.393 36.4269 28.8879 36.9768C28.1998 37.7257 28.4012 38.967 28.4144 39.9471C27.6086 40.0138 26.0593 40.2366 25.6653 41.0222C22.6767 41.4231 21.3651 42.3752 19.2959 44.5551C16.6534 47.3391 12.7988 47.381 11.491 51.5148C9.51645 57.7562 8.24114 64.0971 6.56326 70.4142C6.32743 71.3056 5.82767 74.2976 5.39955 74.903Z" fill="#FBFBFB"/>
<path d="M31.4669 34.1189L50.5151 34.1114C53.1475 34.1107 57.6753 33.9615 60.0873 34.15C60.3873 34.7707 59.9875 35.3433 59.5505 35.7894C57.8706 37.5036 57.8619 37.6288 57.8661 40.0298C56.89 40.0366 56.138 39.9995 55.4352 40.8157C54.4972 41.9051 54.3214 42.6856 53.1901 43.6835C51.5046 45.1703 50.8022 44.318 49.0687 45.0414C48.7128 45.19 48.2029 45.8221 47.8658 46.099C46.5302 46.5204 44.8714 47.4775 43.6672 48.2137C42.6209 47.5527 40.4341 46.5035 39.6145 45.8582C36.8305 43.6671 36.16 41.7074 32.3626 41.2443C31.0574 40.8607 31.2927 40.1596 28.9593 39.953C28.9199 39.023 28.9146 38.6749 29.0253 37.7306C30.4986 36.3077 31.1079 36.0281 31.4669 34.1189Z" fill="#FBFBFB"/>
<path d="M60.9261 34.116C67.3788 34.1146 74.5894 33.9625 80.9821 34.1426C79.1168 38.911 76.5773 39.9973 78.691 45.392C77.4826 46.0987 76.0461 46.7699 75.2377 47.9211L75.1296 47.9859C74.4404 47.8857 72.0579 46.1329 71.5171 45.5652C71.1801 45.8658 70.8947 46.149 70.4959 46.362C69.622 46.8154 68.6672 47.9497 68.0958 48.7659C67.2944 48.1934 67.0683 48.1865 66.0925 48.088C65.5475 48.0581 65.2406 47.8152 64.6999 47.8787C63.9666 47.5098 61.5953 46.1321 60.9824 46.2364C60.691 46.4799 60.5448 46.6615 60.1753 46.6898C59.4773 46.4048 59.1875 45.5163 58.8803 44.8443C58.3095 44.5297 57.5128 44.2611 56.8887 44.0284C57.1409 43.6754 56.8782 43.4338 57.2818 42.9447C58.2649 42.3656 60.1238 43.3878 61.1669 43.606C61.6187 43.7005 61.9893 43.7155 62.4471 43.7362C61.8678 41.1744 60.9835 40.6076 58.5516 40.1064C58.407 39.4381 58.3859 38.7489 58.4892 38.0729C59.4887 36.3043 60.6768 36.179 60.9261 34.116Z" fill="#FBFBFB"/>
<path d="M58.4892 38.0703C58.5021 38.4256 58.4827 39.1282 58.6442 39.3955C59.7373 38.779 63.5599 39.5783 64.8956 39.9983C66.6686 42.1697 68.52 44.3662 70.4959 46.3594C69.622 46.8129 68.6672 47.9471 68.0958 48.7633C67.2944 48.1908 67.0683 48.1839 66.0925 48.0854C65.5475 48.0555 65.2406 47.8126 64.6999 47.8761C63.9666 47.5072 61.5953 46.1295 60.9824 46.2338C60.691 46.4774 60.5448 46.6589 60.1753 46.6872C59.4773 46.4022 59.1875 45.5137 58.8803 44.8417C58.3095 44.5271 57.5128 44.2585 56.8887 44.0258C57.1409 43.6728 56.8782 43.4312 57.2818 42.9421C58.2649 42.363 60.1238 43.3852 61.1669 43.6035C61.6187 43.6979 61.9893 43.7129 62.4471 43.7336C61.8678 41.1719 60.9835 40.605 58.5516 40.1038C58.407 39.4356 58.3859 38.7463 58.4892 38.0703Z" fill="#D3947A"/>
<path d="M81.5483 16.4258C82.8261 18.1234 83.9268 19.3979 85.8589 20.3658L86.0249 19.9802L86.0998 19.8419C86.295 19.8511 89.5716 20.8947 89.9171 21.0525C90.9284 21.1957 91.9209 21.3398 92.9375 21.443C93.0855 20.5915 93.2797 19.7546 94.0622 19.2373C94.439 18.9908 94.8996 18.9093 95.3378 19.0115C96.9896 19.4071 97.3827 21.5943 96.9456 22.9931C96.6121 24.06 96.2442 24.501 95.5174 25.3258C95.3477 26.1939 95.1094 27.0613 94.9314 27.924C94.5644 29.7033 92.7385 30.6119 91.8651 31.9492C91.442 32.281 91.0027 32.5914 90.5487 32.8792C88.2168 34.3762 87.0292 34.7748 85.9355 31.9918C85.801 31.6498 85.4832 31.6212 85.1581 31.5193L85.0336 31.4186C84.6533 30.3074 84.2286 30.1602 83.9817 29.5016L84.1455 29.1856C84.1678 28.0562 82.9093 27.9632 82.0161 27.714C82.2095 26.45 82.6313 24.9647 82.9318 23.6868C82.7922 23.1743 82.4317 22.4335 82.2015 21.9284C81.3184 19.9894 81.1838 18.5149 81.5483 16.4258Z" fill="#D3947A"/>
<path d="M85.1569 31.5172L85.0324 31.4166C84.6521 30.3054 84.2274 30.1581 83.9805 29.4996L84.1442 29.1836C84.8424 29.368 86.146 29.4691 86.8865 29.4773C86.4563 30.4246 86.1244 31.0423 85.1569 31.5172Z" fill="#A2503D"/>
<path d="M86.0234 19.9781L86.0984 19.8398C86.2935 19.849 89.5701 20.8926 89.9156 21.0504L89.8698 21.4398C88.7282 20.9459 87.3064 20.518 86.0234 19.9781Z" fill="#AC7565"/>
<path d="M86.0234 19.9766C87.3063 20.5165 88.7282 20.9444 89.8697 21.4383L90.0313 21.4813C88.0454 21.1782 87.719 21.0895 85.8574 20.3622L86.0234 19.9766Z" fill="#381B17"/>
<path d="M95.0349 20.0977C95.9814 20.4078 95.0777 20.6313 94.908 21.1806C94.7484 21.697 94.7908 22.4828 94.788 23.0366L94.6946 23.1224L94.5784 22.9904C94.482 22.0285 94.5002 20.9308 95.0349 20.0977Z" fill="#AC7565"/>
<path d="M50.1796 45.125C50.1899 45.8189 50.0752 46.9269 50.9977 47.0449C51.2747 47.1422 52.1866 47.4845 52.4188 47.4992C51.5533 49.8616 50.0919 49.4941 50.4029 52.4607C49.8129 52.4845 49.1132 52.4945 48.5347 52.5542C48.1856 52.8024 47.5783 53.1842 47.5122 53.6312L47.7354 53.8097C47.3483 53.9604 47.3357 53.9714 47.1104 54.4495C47.0166 54.2161 47.0924 54.4248 47.0409 54.2268C46.2963 51.3616 46.0792 49.9988 43.666 48.2149C44.8702 47.4787 46.529 46.5216 47.8647 46.1002C47.6852 46.546 47.5607 46.6355 47.6361 47.0474C48.3029 46.8926 48.5574 45.7764 50.1796 45.125Z" fill="#8A8484"/>
<path d="M97.1713 33.4531C98.1436 35.0264 98.6283 35.3772 99.5222 36.6201C97.4087 37.2978 94.1098 38.2752 92.3524 39.4891C90.3998 35.7572 92.9092 36.8546 93.8032 35.2553L94.0993 35.1169C95.1265 34.4936 96.1614 34.1069 97.1713 33.4531Z" fill="#555554"/>
<path d="M91.8652 31.9477C92.7386 30.6103 94.5646 29.7018 94.9316 27.9225C95.1095 27.0597 95.3479 26.1923 95.5175 25.3242C95.5971 26.634 95.7227 27.9406 95.8941 29.2415C96.1264 30.5564 96.5566 32.2657 97.1723 33.4541C96.1624 34.1079 95.1275 34.4945 94.1004 35.1179L93.8042 35.2563C93.3007 34.2239 92.6561 32.7076 91.8652 31.9477Z" fill="#AC7565"/>
<path d="M94.099 35.1186C93.881 34.441 95.4351 30.8128 95.6814 29.3842L95.6917 29.3218L95.8927 29.2422C96.1251 30.5571 96.5552 32.2665 97.1709 33.4548C96.1611 34.1086 95.1261 34.4953 94.099 35.1186Z" fill="#D3947A"/>
<path d="M121.577 47.4198C122.616 47.4067 126.748 47.2867 127.556 47.4658C127.745 47.8018 127.693 48.2075 127.692 48.6117C125.525 48.6671 122.301 48.6616 120.219 48.8495C120.225 48.4197 120.538 47.4691 120.977 47.3594L121.077 47.4812C121.05 47.6745 121.027 47.8514 120.981 48.0418L120.951 48.1613C121.321 48.0052 121.328 47.8272 121.577 47.4198Z" fill="#FBFBFB"/>
<path d="M50.998 47.0436C51.3371 46.7866 51.6873 46.4395 52.0797 46.4258C52.3711 46.7235 52.3715 47.0459 52.4191 47.4978C52.187 47.4832 51.275 47.1408 50.998 47.0436Z" fill="#FBFBFB"/>
<path d="M123.078 43.3458C125.161 43.2627 128.769 43.2718 130.832 43.3669C130.878 44.2423 131.164 46.1094 130.488 46.7115C130.061 46.819 130.229 46.832 129.842 46.6911C129.583 46.3261 129.621 45.5904 129.573 45.061C129.026 44.8617 128.199 44.9361 127.595 44.9556L127.585 46.7867L121.912 46.7915C122.582 45.4496 122.614 44.6688 123.078 43.3458Z" fill="#FBFBFB"/>
<path d="M79.3821 45.026C78.8223 43.3773 78.9403 41.1651 79.6797 39.618C79.9558 39.0401 80.4473 37.7612 80.8442 37.3125C80.8887 37.6966 80.472 38.7246 80.3834 39.3051C80.0661 41.3851 80.0556 42.6467 80.3341 44.7135L79.3821 45.026Z" fill="#FBFBFB"/>
<path d="M120.629 43.3125L121.947 43.3599C121.918 44.8241 121.939 45.3249 121.473 46.7424C121.23 46.8573 121.207 46.8324 120.944 46.8059C120.612 46.4031 120.665 44.0489 120.629 43.3125Z" fill="#FBFBFB"/>
<path d="M118.876 37.4023C119.543 37.9602 120.897 39.619 120.916 40.485L119.63 40.4915C119.159 39.2986 118.375 38.7046 118.876 37.4023Z" fill="#FBFBFB"/>
<path d="M79.3809 45.0234L80.3328 44.7109C80.5451 45.8992 81.03 46.7239 81.5984 47.7661C79.7948 46.5999 80.1761 46.6737 79.3809 45.0234Z" fill="#3C263A"/>
<path d="M115.453 34.793C116.008 34.9933 117.25 35.8718 117.723 36.2896C118.241 36.7457 118.329 36.7833 118.38 37.3894L118.118 37.4444C117.625 37.361 115.921 35.3148 115.453 34.793Z" fill="#FBFBFB"/>
<path d="M118.668 34.1307C119.11 34.1105 119.749 34.0214 120.105 34.2238C120.261 34.6239 120.178 34.6522 120.093 35.117C119.822 35.2405 118.936 34.3495 118.668 34.1307Z" fill="#FBFBFB"/>
<path d="M88.5764 93.5469C90.4264 95.0926 91.9196 97.5252 93.6413 99.2382C97.8642 103.44 105.309 105.383 111.075 104.98C110.79 106.013 110.584 106.733 110.195 107.721C109.78 108.774 108.939 110.427 108.763 111.484C108.021 115.935 107.709 120.521 107.263 125.002C106.973 127.914 106.441 130.968 106.123 133.894C105.869 136.236 105.454 138.602 105.613 140.977C105.827 143.714 106.586 146.402 107.158 149.074C108.874 157.093 107.155 165.134 106.284 173.14C106.15 174.368 106.213 175.601 106.102 176.807C105.719 176.904 105.024 177.003 104.818 177.252C104.74 177.786 104.387 179.78 104.558 180.159C103.978 181.488 103.869 182.437 103.788 183.89L99.8893 183.893C99.7275 183.139 99.6737 182.924 99.359 182.229C99.9569 181.189 101.122 178.724 100.119 177.975C98.0685 176.446 97.7974 179.651 97.8015 180.569C97.9314 181.062 98.0645 181.553 98.2007 182.044C97.7843 182.204 97.3326 182.319 97.0855 182.681C96.9702 183.006 97.003 183.098 97.0323 183.453L96.8968 183.612C95.3861 184.007 94.0969 184.408 92.6167 184.848L92.3082 184.32C91.9008 184.104 91.4869 184.272 90.9843 184.367C90.2878 182.845 89.195 179.365 88.5675 178.368C89.3418 178.187 90.8143 178.004 91.1822 177.417L91.3243 177.598C91.6348 177.623 91.6614 177.578 91.9389 177.398C91.3435 175.295 90.3897 173.077 89.6555 171.02C86.5257 162.295 82.9432 153.882 78.7419 145.626C76.633 141.48 78.8063 133.626 79.8408 129.228C82.1477 119.421 85.6244 110.141 87.6678 100.24C87.9451 97.9991 88.2998 95.7886 88.5764 93.5469Z" fill="#CCCCCD"/>
<path d="M87.6678 100.242C88.2364 100.398 88.9051 100.787 89.3769 101.105C93.3042 103.747 97.8104 104.691 102.476 104.677C102.984 104.675 103.597 104.742 104.116 104.812C103.304 107.193 101.976 108.957 100.369 110.868C99.7039 111.659 98.9966 112.457 98.4488 113.335C95.9957 117.717 93.9267 122.526 91.8958 127.107C91.4704 128.067 92.0841 131.723 92.2044 133.056C92.5614 137.015 92.7346 141.532 93.735 145.385C94.3238 147.653 95.2403 149.667 95.3879 152.081C96.1219 158.907 96.203 165.754 96.3063 172.61C96.3113 172.942 96.9897 174.256 97.1085 175.097C95.8991 175.79 93.273 177.204 91.9389 177.399C91.3435 175.297 90.3897 173.079 89.6555 171.022C86.5257 162.297 82.9432 153.884 78.7419 145.627C76.633 141.482 78.8063 133.627 79.8408 129.23C82.1477 119.423 85.6244 110.142 87.6678 100.242Z" fill="#FBFBFB"/>
<path d="M97.2926 176.94C97.4349 176.902 104.93 177.312 104.819 177.255C104.741 177.788 104.387 179.783 104.559 180.161C103.978 181.491 103.87 182.439 103.788 183.893L99.89 183.895C99.7282 183.141 99.6745 182.926 99.3598 182.231C99.9577 181.191 101.123 178.726 100.12 177.978C98.0693 176.448 97.7982 179.654 97.8022 180.572C97.4589 179.468 97.2023 179.758 97.2091 178.343C97.2195 177.874 97.2593 177.407 97.2926 176.94Z" fill="#CCCCCD"/>
<path d="M97.2079 178.34C96.8908 177.939 96.6496 176.918 96.9819 176.492L97.188 176.597L97.2914 176.937C97.2581 177.404 97.2184 177.872 97.2079 178.34Z" fill="#FBFBFB"/>
<path d="M129.712 48.3961C130.141 48.3952 130.735 48.3783 131.146 48.4088C131.225 49.135 131.344 50.5588 131.49 51.2139C131.683 53.4484 132.132 55.9043 132.472 58.137C135.253 76.3927 133.403 94.9916 133.255 113.368C133.239 115.442 133.21 117.529 133.159 119.607C132.935 126.593 132.767 133.58 132.655 140.569C128.513 141.813 125.763 141.291 121.691 140.832C121.339 137.408 121.303 133.844 121.103 130.393L119.934 108.952L118.658 86.3274C118.495 83.615 118.243 80.8386 118.116 78.138C117.76 80.9203 117.569 83.2188 117.462 86.0239C117.423 87.0845 117.342 89.7565 117.199 90.7087C117.175 90.5061 117.154 90.3029 117.135 90.0996L116.933 90.054C116.918 86.9443 116.575 84.2165 116.377 81.1528C116.036 75.8497 115.603 70.6145 114.839 65.3504C114.509 63.0766 114.323 60.7922 113.943 58.5195C115.377 59.1273 116.061 59.409 117.604 59.6766L117.942 59.6568C118.182 59.6651 118.423 59.6687 118.664 59.6676C120.121 59.6564 121.823 59.0044 122.841 57.959C121.136 58.351 119.153 58.5862 118.006 56.889C116.753 55.551 117.39 53.7653 118.341 52.453C118.702 51.8268 120.215 49.3258 120.22 48.8493C122.302 48.6614 125.525 48.6669 127.693 48.6114L127.83 50.0714C128.526 50.1171 129.064 50.0812 129.754 50.0426L129.712 48.3961Z" fill="#555554"/>
<path d="M129.713 48.3961C130.142 48.3952 130.736 48.3783 131.147 48.4088C131.226 49.135 131.345 50.5588 131.491 51.2139C130.691 51.0563 126.862 51.7755 125.612 51.8449C125.496 51.1247 125.464 50.2774 124.894 49.8263L124.688 49.8633C124.345 50.4755 124.632 51.2667 124.791 51.9636C123.513 52.2163 119.614 52.5661 118.342 52.453C118.703 51.8268 120.216 49.3258 120.22 48.8493C122.303 48.6614 125.526 48.6669 127.693 48.6114L127.831 50.0714C128.527 50.1171 129.065 50.0812 129.755 50.0426L129.713 48.3961Z" fill="#555554"/>
<path d="M124.79 51.9615C124.631 51.2647 124.344 50.4734 124.687 49.8612L124.893 49.8242C125.463 50.2753 125.495 51.1226 125.611 51.8428C126.861 51.7734 130.69 51.0542 131.49 51.2118C130.538 52.59 120.095 53.1407 118.074 53.2005C118.035 54.3949 117.97 55.6959 118.006 56.8869C116.753 55.5489 117.39 53.7632 118.341 52.4509C119.612 52.564 123.512 52.2142 124.79 51.9615Z" fill="#555554"/>
<path d="M117.605 59.676L117.942 59.6562C117.819 61.7057 118.191 65.8967 117.728 67.5997C117.532 67.3086 117.596 60.6697 117.605 59.676Z" fill="#252525"/>
<path d="M82.1431 89.9492C83.855 90.1084 86.7176 91.5838 87.8539 92.8489C88.04 93.0244 88.4271 93.3681 88.577 93.5472C88.3004 95.7889 87.9457 97.9995 87.6684 100.241C85.625 110.141 82.1484 119.422 79.8414 129.229C78.8069 133.626 76.6336 141.481 78.7425 145.626C82.9438 153.883 86.5263 162.295 89.6561 171.02C90.3903 173.077 91.3441 175.296 91.9395 177.398C91.662 177.578 91.6354 177.624 91.3249 177.598L91.1828 177.418C90.8149 178.005 89.3424 178.187 88.5681 178.368C88.3566 178.317 88.0208 178.354 87.7892 178.365C87.0075 177.991 85.7458 174.58 85.3412 173.651C84.3307 171.367 83.3432 169.072 82.379 166.767C79.7073 160.394 76.8181 153.701 73.2943 147.778C70.2054 142.585 72.0645 137.34 72.9519 131.799C74.2687 123.578 76.1568 115.545 78.4367 107.544C78.953 105.302 79.6946 103.113 80.2996 100.886C81.0117 98.2675 81.4121 95.9072 81.7286 93.2316C81.678 92.5578 82.019 90.7139 82.1431 89.9492Z" fill="#FBFBFB"/>
<path d="M87.854 92.8516C88.04 93.027 88.4272 93.3708 88.5771 93.5499C88.3005 95.7916 87.9457 98.0021 87.6685 100.243C85.625 110.144 82.1484 119.424 79.8415 129.231C78.807 133.629 76.6337 141.483 78.7426 145.629C82.9439 153.885 86.5263 162.298 89.6562 171.023C90.3904 173.08 91.3442 175.298 91.9396 177.401C91.6621 177.581 91.6355 177.626 91.3249 177.601L91.1828 177.42C90.8469 176.408 90.4471 175.365 90.0711 174.365C87.8041 168.342 85.6221 162.134 82.9749 156.271C82.0426 154.212 81.0709 152.171 80.0604 150.149C79.1578 148.335 78.1732 146.529 77.5288 144.601C75.1887 137.601 83.4448 113.996 85.658 105.83C86.2402 103.682 86.5904 101.42 86.9998 99.2307C87.2865 97.6869 87.4492 96.0922 87.6664 94.5364C87.7444 93.9775 87.733 93.3817 87.854 92.8516Z" fill="#555554"/>
<path d="M82.1423 89.9492C83.8541 90.1084 86.7167 91.5838 87.8531 92.8489C87.732 93.3791 87.7435 93.9749 87.6654 94.5337C87.4483 96.0896 87.2855 97.6842 86.9989 99.2281C85.2216 98.3835 83.4807 96.0595 82.4586 94.4153C82.1709 93.9527 82.0742 93.4748 81.7277 93.2316C81.6771 92.5578 82.0181 90.7139 82.1423 89.9492Z" fill="#CCCCCD"/>
<path d="M116.615 93.5195L116.786 93.7715L116.896 93.7916C116.976 97.4937 116.451 101.033 116.394 104.654C116.202 116.696 114.801 128.844 114.467 140.854C110.303 141.485 109.785 141.624 105.613 140.978C105.454 138.603 105.87 136.236 106.124 133.895C106.442 130.969 106.974 127.915 107.264 125.002C107.71 120.521 108.022 115.936 108.763 111.485C108.94 110.427 109.78 108.775 110.196 107.722C110.585 106.734 110.791 106.013 111.076 104.98C113.587 104.387 114.176 102.33 114.997 100.185C115.855 97.9422 116.238 95.8824 116.615 93.5195Z" fill="#555554"/>
<path d="M97.802 180.571C97.7979 179.653 98.069 176.448 100.12 177.978C101.123 178.726 99.9574 181.191 99.3595 182.231C99.6742 182.926 99.728 183.141 99.8898 183.895C99.8279 184.844 101.237 186.939 101.865 187.717C103.297 189.496 104.259 190.86 104.72 193.181C103.935 194.397 98.762 198.152 99.6817 199.686C97.9257 201.9 98.079 202.159 97.0945 204.748C95.8984 207.895 90.9671 208.617 88.0441 209.053C87.0734 209.199 84.6085 209.431 83.7985 208.77C83.5702 208.582 83.4361 208.303 83.4318 208.008C83.4106 206.46 85.9223 205.081 87.0605 204.407C88.6408 204.131 90.3589 200.008 89.7665 198.811C89.9779 198.398 89.8975 197.008 89.9712 196.439C90.5987 191.588 90.3534 189.457 89.2385 184.706C89.7865 184.577 90.4252 184.474 90.9848 184.369C91.4874 184.274 91.9013 184.106 92.3087 184.323L92.6172 184.85C94.0974 184.41 95.3866 184.009 96.8973 183.614L97.0328 183.456C97.0035 183.1 96.9707 183.008 97.086 182.683C97.3331 182.321 97.7848 182.206 98.2012 182.046C98.065 181.556 97.9319 181.064 97.802 180.571Z" fill="#555554"/>
<path d="M92.6172 184.85C94.0974 184.409 95.3866 184.008 96.8973 183.613C97.1647 183.74 97.1788 183.687 97.2696 184.027C97.8571 186.229 99.5091 190.133 99.606 192.284C99.6416 192.995 99.5036 193.704 99.2039 194.349C98.7095 195.397 97.5389 196.169 96.4058 195.743C95.5485 195.42 95.0183 193.477 94.7979 192.67C94.0918 190.083 93.2358 187.453 92.6172 184.85Z" fill="#3C263A"/>
<path d="M99.1043 178.383C99.2346 178.45 99.3644 178.558 99.4849 178.648C99.7924 179.328 99.3253 180.243 99.0664 180.974L98.9736 181.03L98.7957 180.965C98.5893 180.181 98.6791 179.086 99.1043 178.383Z" fill="#CCCCCD"/>
<path d="M75.2362 80.9844C76.1046 81.1829 77.193 81.5325 78.0445 81.5389L78.1704 81.7128C78.0206 82.3949 77.7627 83.5335 77.7758 84.1976C77.7428 85.2177 77.7425 85.8151 78.182 86.7683C78.8613 88.2415 80.5429 89.6623 82.1435 89.9521C82.0194 90.7168 81.6784 92.5607 81.729 93.2345C81.4124 95.9102 81.0121 98.2704 80.3 100.889C79.6949 103.115 78.9533 105.305 78.4371 107.547C77.3389 107.115 76.3355 106.916 75.2057 106.38C75.1662 105.429 75.1756 104.408 75.1837 103.455C75.2474 95.9817 75.0771 88.4535 75.2362 80.9844Z" fill="#3C263A"/>
<path d="M78.0426 81.5379C79.7946 81.8162 82.4934 81.1935 84.1441 80.6302C91.7593 78.0312 95.5677 70.2069 98.4523 63.2663C98.6402 62.8146 98.8137 62.3637 99.0508 61.9336C98.5886 63.9995 98.3881 66.1432 97.936 68.2311C96.8024 73.4651 95.0362 79.4339 90.2553 82.4709C88.1301 83.8208 85.7351 84.3945 83.2511 84.5637C82.1218 84.6406 78.3136 83.9001 77.7739 84.1966C77.7608 83.5324 78.0188 82.3939 78.1685 81.7118L78.0426 81.5379Z" fill="#CCCCCD"/>
<path d="M99.8894 183.893L103.788 183.891C104.21 183.922 104.514 183.888 104.818 184.158L104.933 184.487C104.656 188.99 105.742 188.709 106.71 192.752C107.031 195.002 106.657 197.292 106.755 199.561C106.78 200.129 107.4 201.887 106.986 202.26C106.339 202.842 106.555 203.987 106.595 204.776C105.025 204.841 103.204 204.859 101.638 204.727C101.634 203.154 101.426 200.659 100.68 199.2C100.515 198.876 99.8408 199.542 99.6814 199.684C98.7617 198.15 103.935 194.395 104.719 193.179C104.259 190.857 103.297 189.494 101.865 187.715C101.237 186.937 99.8276 184.842 99.8894 183.893Z" fill="#3C263A"/>
<path d="M69.1348 77.2969C70.2643 78.1222 72.348 79.5708 73.351 80.4455C73.4634 82.386 75.2258 99.0169 74.5322 99.7715C73.6702 100.709 72.3373 100.285 71.3434 100.789C71.2696 100.112 71.1864 99.4045 71.1482 98.7244C70.8459 93.3315 70.1875 87.9668 69.7606 82.5825C69.6157 80.7557 69.4601 79.1023 69.1348 77.2969Z" fill="#8A8484"/>
<path d="M87.0591 204.405C86.3526 204.318 82.4962 203.931 83.0576 202.277C83.641 200.558 86.828 200.218 88.2768 199.603C88.8459 199.363 89.2064 199.176 89.7651 198.809C90.3576 200.006 88.6395 204.129 87.0591 204.405Z" fill="#3C263A"/>
<path d="M104.558 180.16C104.806 179.878 105.353 179.352 105.737 179.42C108.891 179.988 105.265 183.24 104.933 184.488L104.817 184.159C104.513 183.89 104.21 183.923 103.787 183.892C103.868 182.438 103.977 181.49 104.558 180.16Z" fill="#555554"/>
<path d="M105.555 180.598C105.705 180.729 105.656 180.689 105.748 180.886C105.709 181.598 105.407 182.068 105.041 182.662L104.924 182.53C104.909 181.925 105.286 181.135 105.555 180.598Z" fill="#FBFBFB"/>
<path d="M116.932 90.0547L117.134 90.1002C117.153 90.3036 117.174 90.5068 117.198 90.7094L116.895 93.794L116.785 93.7739L116.613 93.522C116.782 92.3089 116.863 91.2748 116.932 90.0547Z" fill="#555554"/>
</g>
</g>
<defs>
<clipPath id="clip0_823_9318">
<rect width="144" height="208" fill="white"/>
</clipPath>
<clipPath id="clip1_823_9318">
<rect width="153" height="238" fill="white" transform="translate(-4 -14)"/>
</clipPath>
</defs>
</svg>
