<svg width="144" height="208" viewBox="0 0 144 208" fill="none" xmlns="http://www.w3.org/2000/svg">
<g clip-path="url(#clip0_823_9321)">
<g clip-path="url(#clip1_823_9321)">
<path d="M117.434 78.5503C117.385 79.3461 117.278 80.0872 117.684 80.8022L117.877 80.7788C118.265 79.7222 118.183 79.3753 118.181 78.2656C118.599 79.1837 120.56 83.7144 121.083 84.0837C121.64 83.2108 119.991 80.2409 119.611 79.2625L121.777 80.4702C121.661 81.4542 121.365 82.6471 122.036 83.4897C122.951 84.6402 129.078 86.735 130.648 87.1073C130.835 86.6229 131.548 84.8594 131.623 84.422C131.988 84.9364 132.545 85.6203 133.001 86.052V118.366C128.93 120.604 130.06 121.05 127.461 123.721C126.793 123.904 125.03 124.321 124.565 124.753C123.746 125.992 122.944 127.243 122.16 128.506L116.131 138.184C115.653 138.943 113.915 141.8 113.46 142.291C108.257 142.139 103.049 142.035 97.8519 141.738C97.0142 141.689 96.1766 141.659 95.3373 141.641L95.2604 141.626C94.9448 141.33 94.1695 137.844 93.959 137.071C92.677 132.789 91.6451 127.661 90.6301 123.257C90.4427 122.445 90.8171 119.295 90.8874 118.309L91.5005 109.472L92.2367 97.8088C92.3693 95.6579 92.4663 93.1439 92.7286 91.0209C93.1804 90.9354 93.5678 90.8987 94.0497 90.796L94.2004 90.5431L94.3452 90.7538C94.6294 90.7861 94.6792 90.7917 94.962 90.7733C95.5248 90.7724 96.7703 90.868 97.1546 90.5421C97.4871 90.7385 97.5631 90.7764 97.9704 90.6277L98.1902 90.7132C98.7321 90.5283 100.172 88.7833 100.646 88.245L101.579 87.2782C101.345 86.4355 101.192 85.5159 101.029 84.6531C100.937 84.1949 100.753 83.7015 100.602 83.2525C101.418 83.1244 103.021 82.9615 103.656 82.4945L103.714 82.0769C103.777 82.3249 103.766 82.3318 103.926 82.5448L104.127 82.5694C104.389 82.2428 104.352 81.8908 104.362 81.4726C104.434 81.9558 104.366 82.0823 104.648 82.3904C105.05 82.4012 105.277 82.3631 105.671 82.3117C105.795 82.2865 106.073 82.2391 106.18 82.2024L106.359 81.993C106.788 81.9591 107.926 80.6636 108.278 80.2963C109.347 79.9624 110.919 80.0416 112.026 79.7019C112.558 80.6487 113.679 84.2663 114.499 84.5689L114.677 84.5114C114.812 83.7462 113.772 81.8525 113.394 81.0501L113.634 80.7517C113.714 81.0579 113.71 81.0754 113.941 81.2742C114.57 81.0889 114.252 79.8787 114.148 79.4248C114.888 79.3288 116.979 79.0508 117.434 78.5503Z" fill="#7B7375"/>
<path d="M100.646 88.2461C100.711 88.3164 100.776 88.3867 100.84 88.457C101.364 91.3582 102.064 94.2177 102.75 97.0846L109.691 127.198L111.853 136.037C112.319 137.901 113.01 140.129 113.151 142.005C111.716 140.535 110.445 138.883 109.107 137.317C106.583 134.298 104.006 131.324 101.376 128.396C100.5 129.488 94.9426 136.747 94.1902 136.996C94.1451 137.011 94.1007 137.028 94.0555 137.043C94.0236 137.053 93.9912 137.061 93.959 137.072C92.677 132.79 91.6451 127.662 90.6301 123.259C90.4427 122.446 90.8171 119.296 90.8874 118.31L91.5005 109.473L92.2367 97.8099C92.3693 95.659 92.4663 93.1449 92.7286 91.022C93.1804 90.9365 93.5678 90.8997 94.0497 90.797L94.2004 90.5442L94.3452 90.7549C94.6294 90.7871 94.6792 90.7928 94.962 90.7743C95.5248 90.7734 96.7703 90.8691 97.1546 90.5432C97.4871 90.7395 97.5631 90.7774 97.9704 90.6288L98.1902 90.7143C98.7321 90.5293 100.172 88.7844 100.646 88.2461Z" fill="#585757"/>
<path d="M106.358 81.9936C106.787 81.9597 107.925 80.6642 108.277 80.2969C109.863 84.2728 111.554 87.8715 113.292 91.7775L121.202 109.491L125.199 118.553C126.004 120.376 126.67 122.091 127.667 123.818L121.031 119.866C120.173 119.36 117.774 118.02 117.119 117.5C116.672 116.534 116.377 115.536 116.091 114.513C115.455 112.235 114.736 109.982 114.063 107.715L107.773 86.5618C107.571 85.9058 106.709 82.6273 106.444 82.2806L106.18 82.203L106.358 81.9936Z" fill="#585757"/>
<path d="M110.066 128.441C111.464 127.966 123.905 124.523 124.565 124.753C123.745 125.992 122.943 127.243 122.16 128.506L122.08 128.517C122.037 128.521 121.992 128.526 121.948 128.531C118.036 128.61 113.982 128.266 110.066 128.441Z" fill="#585757"/>
<path d="M92.9474 82.2656C93.2399 83.005 93.2304 85.2297 92.6311 85.8546C93.3567 86.1573 93.5461 86.0681 93.6802 86.8915C93.809 87.9332 93.9742 89.5732 94.1995 90.5437L94.0488 90.7965C93.5669 90.8992 93.1795 90.936 92.7277 91.0215C92.4654 93.1444 92.3684 95.6585 92.2358 97.8094L91.4995 109.473L90.8865 118.31C90.8162 119.295 90.4417 122.446 90.6292 123.258C91.6442 127.661 92.6761 132.789 93.9581 137.071C94.1686 137.844 94.9439 141.33 95.2595 141.626L95.3363 141.641C95.8731 144.686 97.286 149.505 98.1191 152.56L102.302 168.065C102.951 170.444 104.045 174.118 104.456 176.419C103.575 176.282 99.944 175.731 99.44 175.354C98.3779 172.633 96.8948 169.946 95.6868 167.272C92.8264 160.935 89.8366 154.223 89.5782 147.169C89.4644 144.066 89.4882 141.087 88.0993 138.224C82.347 126.367 70.2565 115.88 68.9551 102.24C69.1851 102.077 69.3293 101.512 69.4344 101.215C69.5118 100.91 69.6898 100.526 69.804 100.223C70.7877 97.6129 71.8613 95.0374 72.3879 92.2858C73.4413 91.4419 74.4632 90.5159 75.6114 89.8068C79.1395 87.6279 84.0916 85.9403 88.0477 84.646C89.7747 84.063 91.421 83.2632 92.9474 82.2656Z" fill="#ECECEC"/>
<path d="M92.9485 82.2656C93.241 83.005 93.2315 85.2297 92.6322 85.8546C91.7978 86.4121 91.223 86.807 90.2928 87.2118C90.1788 89.632 90.0777 92.0528 89.9895 94.4741C89.9153 96.2226 89.8948 98.1282 89.5318 99.8299C88.8231 100.732 88.4973 100.883 87.4562 101.39C87.6973 103.038 87.8824 104.66 88.0504 106.316C88.3845 109.609 89.1457 112.886 89.1968 116.199C88.6399 114.193 88.2667 111.646 87.9471 109.594C87.5792 107.232 87.1098 104.65 86.9182 102.267C86.5402 97.5658 86.582 92.9482 86.81 88.2469C85.4257 88.5617 81.2361 89.3252 79.8975 89.296C79.3151 90.5577 79.0751 91.9801 78.656 93.3061C77.2557 97.7378 74.7467 101.83 69.4355 101.215C69.5129 100.91 69.6909 100.526 69.8051 100.223C70.7888 97.6129 71.8624 95.0374 72.389 92.2858C73.4424 91.4419 74.4643 90.5159 75.6125 89.8068C79.1406 87.6279 84.0927 85.9403 88.0488 84.646C89.7758 84.063 91.4222 83.2632 92.9485 82.2656Z" fill="#C9C8C9"/>
<path d="M89.3715 87.5273C89.5392 87.5403 89.4781 87.5337 89.6369 87.6309C89.6783 89.4355 89.5185 91.559 89.4792 93.3989C89.4437 95.0599 89.3911 97.0502 89.1477 98.6862C88.9845 99.783 88.3491 100.194 87.494 100.766C86.8953 99.7138 87.2706 89.93 87.4477 88.2207L89.3715 87.5273Z" fill="#ECECEC"/>
<path d="M100.25 200.885C99.9531 200.007 99.4641 198.691 99.4859 197.807C99.5538 194.936 100.893 192.596 100.158 189.575C100.055 189.22 99.8265 187.883 99.6447 187.637C98.6391 186.266 95.7718 186.542 96.4586 183.948C96.7393 182.887 98.127 183.043 99.005 183.345C99.3893 183.62 99.723 183.901 100.091 184.19C100.984 184.889 101.808 186.825 102.919 186.927C103.492 186.739 104.56 186.559 105.185 186.436C105.396 186.374 105.298 186.411 105.476 186.219C105.415 185.625 105.403 185.53 105.948 185.274C106.84 184.854 107.757 184.488 108.657 184.084L109.007 184.06C109.483 184.544 109.813 186.035 110.061 186.726C111.074 189.545 114.042 198.621 116.011 200.45C116.866 201.243 117.869 201.499 119.011 201.512C120.326 201.527 122.095 201.237 123.112 202.288C123.334 202.518 123.618 202.849 123.626 203.181C123.634 203.537 123.419 203.78 123.17 204.011C121.619 205.446 116.779 207.264 114.663 207.165C112.676 207.073 111.4 205.179 109.948 204.04C109.174 203.434 108.353 202.959 107.489 202.498C107.005 202.241 106.468 201.878 105.916 201.814C105.339 201.255 101.348 200.587 100.442 200.652L100.25 200.885Z" fill="#585757"/>
<path d="M102.918 186.928C103.491 186.741 104.559 186.561 105.184 186.438L105.528 186.601C105.978 187.998 109.097 197.902 108.883 198.386C108.79 198.595 108.522 198.899 108.301 198.977C107.355 199.31 104.587 198.592 103.496 198.397C103.057 196.998 102.907 194.701 102.759 193.202C102.566 191.219 102.321 189.074 102.213 187.092C102.397 186.956 102.662 186.963 102.918 186.928Z" fill="#3B2C42"/>
<path d="M97.2253 183.952C98.5704 183.888 100.39 184.867 100.582 186.275C99.0192 186.383 97.0539 185.933 97.2253 183.952Z" fill="#FAFAFA"/>
<path d="M116.225 73.4745C115.566 71.1739 114.685 67.5845 113.075 65.7884C112.374 65.0054 111.684 65.2063 111.265 64.7601C111.324 64.4668 111.255 64.5936 111.517 64.3901C112.207 64.3157 112.505 64.4185 113.08 64.7567C114.766 66.3323 115.267 67.9279 115.987 70.0497L116.025 70.2251C116.713 72.6347 117.564 77.3568 119.859 78.4438C120.323 78.838 120.973 79.4752 121.563 79.5732C122.226 79.988 123.631 79.1563 124.336 78.8449C124.851 79.1926 126.825 79.7652 127.471 79.8897C128.721 80.4699 131.488 81.4046 132.355 81.9029C132.467 82.619 131.874 83.7059 131.622 84.4202C131.547 84.8576 130.834 86.621 130.646 87.1055C129.077 86.7331 122.95 84.6383 122.035 83.4878C121.364 82.6452 121.66 81.4523 121.776 80.4683L119.609 79.2607C119.99 80.239 121.639 83.2089 121.082 84.0818C120.559 83.7125 118.598 79.1818 118.18 78.2638C118.182 79.3735 118.264 79.7203 117.875 80.7769L117.683 80.8003C117.277 80.0854 117.384 79.3442 117.432 78.5484C116.978 79.049 114.887 79.3269 114.147 79.4229C114.251 79.8768 114.569 81.087 113.94 81.2723C113.709 81.0735 113.712 81.056 113.633 80.7498L113.393 81.0483C113.771 81.8507 114.811 83.7443 114.676 84.5096L114.498 84.5671C113.678 84.2645 112.557 80.6468 112.024 79.7C111.334 77.7369 110.774 75.8463 110.135 73.8764C109.571 72.1368 107.122 68.8232 105.747 67.4736C105.225 66.9623 104.279 66.4664 103.604 66.1493L103.568 65.9368C104.911 64.9227 107.29 68.0923 108.051 69.0946C107.539 67.8256 106.784 65.8337 109.263 65.19C109.388 65.1575 109.448 65.29 109.537 65.3974C109.289 65.8603 108.68 65.8998 108.35 66.356C108.143 66.6441 108.069 67.1158 108.171 67.4444C109.393 71.4129 113.846 74.3304 116.97 76.4706C116.448 75.2254 114.56 72.3713 114.534 71.4879L114.666 71.3907C115.207 71.6029 115.878 72.9089 116.225 73.4745Z" fill="#302735"/>
<path d="M110.17 72.1289C112.459 74.2962 114.616 75.5259 116.947 77.5248C117.342 77.8637 117.373 78.0554 117.433 78.5513C116.978 79.0518 114.888 79.3298 114.148 79.4258C112.692 76.2443 112.017 75.0412 110.17 72.1289Z" fill="#FAFAFA"/>
<path d="M111.898 77.0865L112.134 76.8281C112.648 77.8682 113.015 78.5943 113.384 79.6861L112.934 79.7843C112.52 79.0895 112.18 77.8997 111.898 77.0865Z" fill="#ECECEC"/>
<path d="M113.383 79.6875L113.633 80.7523L113.393 81.0507L112.934 79.7858L113.383 79.6875Z" fill="#99979B"/>
<path d="M111.899 77.089C111.737 76.6778 111.509 76.2452 111.545 75.8242C111.802 75.9758 111.996 76.5269 112.135 76.8307L111.899 77.089Z" fill="#99979B"/>
<path d="M122.121 80.2539C122.774 80.3258 124.009 81.0618 124.531 81.4968C124.708 81.6452 124.654 81.6775 124.667 81.9598C123.745 82.2654 122.363 81.0822 122.121 80.2539Z" fill="#3B2C42"/>
<path d="M120.522 56.4145C120.998 56.526 126.458 56.4429 126.963 56.3575C127.43 56.3241 127.485 56.3408 127.917 56.5289L127.882 56.7008C128.479 57.16 129.523 58.1053 129.513 58.8833C129.476 61.6716 128.955 65.8314 126.664 67.6319C126.697 67.051 126.855 66.5605 126.351 66.2386C125.328 66.4529 120.937 66.6082 119.792 66.5795C119.759 65.3047 119.744 62.5582 119.546 61.4501C119.51 60.9891 119.402 60.1752 119.522 59.7704C119.95 58.7078 120.525 57.5444 120.522 56.4145Z" fill="#3B2C42"/>
<path d="M126.964 56.3575C127.432 56.3241 127.487 56.3408 127.918 56.5289L127.884 56.7008C128.481 57.16 129.525 58.1053 129.514 58.8833C129.477 61.6716 128.956 65.8314 126.665 67.6319C126.699 67.051 126.856 66.5605 126.352 66.2386C125.23 65.4749 123.649 65.2784 122.776 64.2609C122.455 63.8854 123.056 63.4099 122.753 63.0976C122.414 62.7474 122.112 62.6592 121.861 62.1572C122.029 61.3473 123.012 61.6661 123.64 61.765L124.113 61.5296C123.614 61.3792 123.134 61.3239 122.996 60.774C123.515 60.0783 126.199 60.2338 127.092 60.2079L127.016 59.6707C127.089 59.4201 127.135 58.7604 127.164 58.4709C126.742 57.5896 126.666 57.255 126.964 56.3575Z" fill="#E49B7E"/>
<path d="M127.163 58.4688C127.722 59.0352 127.864 59.1502 127.99 59.9625L127.868 60.2616C127.621 60.3626 127.33 60.343 127.092 60.2057L127.016 59.6686C127.088 59.4179 127.134 58.7582 127.163 58.4688Z" fill="#FAFAFA"/>
<path d="M124.112 61.5273C124.863 61.6601 125.793 61.7941 126.505 62.0268C125.774 62.0723 124.395 61.8677 123.639 61.7628L124.112 61.5273Z" fill="#693C31"/>
<path d="M124.123 63.3594C124.85 63.6306 126.377 63.7907 126.741 64.4607C126.236 64.3783 124.299 63.7513 124.123 63.3594Z" fill="#693C31"/>
<path d="M120.523 56.4124C121 56.5239 126.46 56.4409 126.965 56.3555C126.667 57.2529 126.743 57.5876 127.164 58.4689C127.135 58.7583 127.089 59.4181 127.016 59.6687C125.328 59.4903 121.568 59.7843 119.523 59.7684C119.951 58.7058 120.527 57.5424 120.523 56.4124Z" fill="#7B7375"/>
<path d="M92.9472 82.2667C93.2229 82.0171 94.1704 81.1801 94.3431 80.9158C96.5091 77.6034 94.8956 74.4119 94.1291 71.01C93.8067 69.5789 93.5532 67.863 93.3226 66.4609C93.5644 66.6459 96.7369 74.8508 96.8301 75.3946C97.6172 79.9732 96.3146 81.89 102.032 81.9398C102.765 81.9461 103.163 82.0486 103.635 81.7848L103.713 82.0785L103.655 82.4961C103.019 82.9632 101.417 83.126 100.601 83.2542C100.752 83.7031 100.936 84.1965 101.028 84.6547C101.191 85.5176 101.344 86.4372 101.578 87.2799L100.645 88.2467C100.17 88.7849 98.731 90.5299 98.189 90.7149L97.9693 90.6294C97.5619 90.778 97.486 90.7401 97.1535 90.5438C96.7691 90.8697 95.5237 90.774 94.9609 90.7749C94.6781 90.7934 94.6283 90.7877 94.3441 90.7555L94.1993 90.5448C93.974 89.5743 93.8088 87.9343 93.68 86.8926C93.5459 86.0692 93.3565 86.1584 92.6309 85.8557C93.2302 85.2308 93.2397 83.0061 92.9472 82.2667Z" fill="#ECECEC"/>
<path d="M96.6423 85.9523L97.1244 85.8711L97.3085 86.0126C97.3453 86.3123 97.3775 86.5739 97.435 86.8704C97.4569 88.051 97.7469 89.4551 97.9689 90.6279C97.5616 90.7765 97.4857 90.7386 97.1531 90.5422C96.7688 90.8681 95.5234 90.7725 94.9606 90.7734C94.6778 90.7918 94.6279 90.7862 94.3437 90.7539L94.199 90.5433C93.9737 89.5728 93.8084 87.9328 93.6797 86.891L93.7662 86.4224C94.0833 86.1351 94.1455 86.2199 94.6486 86.1842C95.3909 86.1557 95.9156 86.068 96.6423 85.9523Z" fill="#FAFAFA"/>
<path d="M93.6797 86.8904L93.7662 86.4218C94.0833 86.1345 94.1455 86.2193 94.6486 86.1836C94.6855 87.5656 94.709 89.445 94.9606 90.7728C94.6778 90.7912 94.6279 90.7856 94.3437 90.7533L94.199 90.5427C93.9737 89.5722 93.8084 87.9322 93.6797 86.8904Z" fill="#201E1F"/>
<path d="M96.6426 85.9523L97.1247 85.8711L97.3088 86.0126C97.3456 86.3123 97.3778 86.5739 97.4354 86.8704C97.4572 88.051 97.7472 89.4551 97.9693 90.6279C97.5619 90.7765 97.486 90.7386 97.1535 90.5422C96.8232 89.27 96.7243 87.3008 96.6426 85.9523Z" fill="#201E1F"/>
<path d="M97.4355 86.8696L97.4965 85.9362C97.6599 85.7017 100.5 84.8338 101.028 84.6523C101.191 85.5152 101.344 86.4348 101.578 87.2775L100.645 88.2443C100.171 88.7826 98.7312 90.5276 98.1892 90.7125L97.9694 90.627C97.7474 89.4543 97.4574 88.0501 97.4355 86.8696Z" fill="#FAFAFA"/>
<path d="M98.6807 175.215C98.9235 175.402 99.1122 175.534 99.4401 175.352C99.9441 175.729 103.576 176.28 104.456 176.417C105.385 179.006 105.753 181.53 106.811 184.237C107.558 184.119 107.901 184.087 108.656 184.083C107.756 184.488 106.839 184.853 105.947 185.274C105.402 185.529 105.414 185.624 105.475 186.219C105.297 186.41 105.395 186.373 105.184 186.435C104.559 186.558 103.492 186.738 102.918 186.926C101.807 186.825 100.983 184.889 100.09 184.189C99.722 183.9 99.3883 183.619 99.004 183.345C98.9914 182.718 98.179 181.083 97.8522 180.46C97.4829 180.261 97.125 180.028 96.7683 179.805C96.5083 179.158 96.384 178.4 96.2436 177.711L95.8247 177.301C94.9694 176.467 95.1738 176.157 95.5902 175.145C96.4473 175.185 97.8775 175.286 98.6807 175.215Z" fill="#C9C8C9"/>
<path d="M68.9545 102.238C70.2559 115.878 82.3464 126.366 88.0987 138.222C89.4876 141.086 89.4638 144.065 89.5776 147.168C89.836 154.221 92.8258 160.934 95.6862 167.271C96.8942 169.945 98.3774 172.631 99.4394 175.353C99.1115 175.535 98.9228 175.403 98.68 175.216C95.7236 169.092 91.1918 159.953 89.7452 153.44C89.3019 151.5 89.0096 149.527 88.8711 147.54C88.6457 144.32 89.0214 141.835 87.5605 138.801C82.5583 128.41 73.7717 120.15 69.8549 109.171C69.2279 107.413 68.5228 105.649 68.4202 103.756C68.3751 102.923 68.4114 102.837 68.9545 102.238Z" fill="#201E1F"/>
<path d="M72.3888 92.2869C72.6932 87.5597 72.0474 82.7744 71.6451 78.0785C71.557 77.05 71.1917 75.3378 71.2456 74.5781L71.3463 74.6779C71.651 76.9715 73.8036 82.6528 75.5749 84.2391C79.2408 87.5221 84.3988 84.7889 88.0486 84.6471C84.0925 85.9414 79.1404 87.629 75.6123 89.8078C74.4641 90.517 73.4422 91.4429 72.3888 92.2869Z" fill="#ECECEC"/>
<path d="M118.733 56.5353C119.488 56.5298 119.384 55.8958 120.007 55.6797C120.313 55.8583 120.369 56.0825 120.522 56.4119C120.526 57.5419 119.951 58.7053 119.523 59.7679C119.403 60.1727 119.511 60.9866 119.547 61.4475C119.745 62.5556 119.76 65.3021 119.793 66.5769C119.818 66.9775 119.882 67.6645 119.87 68.041C118.889 68.7077 117.156 69.9026 116.026 70.2248L115.988 70.0494C115.267 67.9276 114.767 66.332 113.08 64.7564C114.345 63.9487 115.485 63.9112 117.008 62.8059C117.264 61.5253 117.182 60.847 117.664 59.4347C117.952 58.5963 118.837 57.2503 118.954 56.7564L118.733 56.5353Z" fill="#E49B7E"/>
<path d="M119.547 61.4492C119.745 62.5573 119.76 65.3038 119.793 66.5786C119.819 66.9792 119.882 67.6662 119.871 68.0427C118.889 68.7094 117.156 69.9043 116.026 70.2265L115.988 70.0511C116.507 69.372 117.26 68.3627 117.672 67.6494C118.315 66.536 119.514 62.6592 119.547 61.4492Z" fill="#AE7466"/>
<path d="M100.25 200.886L100.442 200.653C101.348 200.587 105.339 201.256 105.916 201.814C106.322 203.285 107.325 207.084 107.292 208.459C106.429 208.896 103.267 209.542 102.225 209.739C101.587 208.126 100.562 202.736 100.25 200.886Z" fill="#3B2C42"/>
<path d="M100.655 70.2543C100.537 69.5141 100.495 68.6592 100.467 67.9072C100.428 66.8128 99.8768 66.6598 99 66.1497C99.3659 65.8124 99.1887 65.9 99.6674 65.8086C103.191 66.6329 104.279 78.5111 104.361 81.4732C104.35 81.8914 104.387 82.2434 104.126 82.57L103.925 82.5455C103.765 82.3324 103.775 82.3255 103.713 82.0775L103.635 81.7838C102.364 78.5646 101.49 76.7047 101.084 73.1073C100.825 72.2494 100.711 71.1473 100.655 70.2543Z" fill="#241B28"/>
<path d="M101.174 69.5567C101.157 69.2291 101.084 68.8033 101.244 68.543C102.443 70.1324 103.557 77.7367 103.685 80.0185C102.649 78.413 101.958 74.6731 101.627 72.7968C101.417 71.7019 101.304 70.6641 101.174 69.5567Z" fill="#FAFAFA"/>
<path d="M100.656 70.2553C100.68 69.9127 100.708 69.6818 100.766 69.3431L100.935 69.2812L101.174 69.5567C101.304 70.6641 101.417 71.7019 101.627 72.7968L101.524 73.4144C101.472 73.0911 101.424 72.4704 101.23 72.2545C101.087 72.5113 101.153 72.6771 101.203 72.973L101.085 73.1083C100.827 72.2504 100.713 71.1483 100.656 70.2553Z" fill="#201E1F"/>
<path d="M118.733 56.5391C118.345 56.0646 118.61 56.3196 118.497 55.7747C118.414 55.3788 120.082 53.4056 120.222 53.3297C121.027 52.8954 124.22 52.9987 125.124 52.9997C126.732 53.0014 126.539 53.5686 127.148 54.5711C127.196 54.6526 127.787 55.1306 127.972 55.336C128.067 55.7659 127.985 56.0997 127.917 56.5301C127.486 56.342 127.431 56.3253 126.964 56.3588C126.458 56.4441 120.999 56.5272 120.522 56.4157C120.369 56.0863 120.313 55.8621 120.007 55.6835C119.384 55.8995 119.488 56.5336 118.733 56.5391Z" fill="#241B28"/>
<path d="M126.352 66.2383C126.856 66.5601 126.698 67.0507 126.665 67.6316C126.622 68.3246 126.594 69.0187 126.581 69.7129C124.967 69.8571 121.62 69.9961 120.016 69.8948C119.968 69.2884 119.905 68.6468 119.87 68.0432C119.882 67.6667 119.818 66.9797 119.793 66.5791C120.938 66.6078 125.329 66.4525 126.352 66.2383Z" fill="#7B7375"/>
<path d="M125.896 78.0312C126.527 78.6571 126.928 79.1935 127.47 79.8922C126.825 79.7676 124.85 79.195 124.336 78.8473C124.808 78.5893 125.416 78.2359 125.896 78.0312Z" fill="#7B7375"/>
<path d="M119.859 78.4436C120.277 78.3435 120.55 78.2246 120.936 78.3786C121.269 78.7028 121.387 79.1303 121.563 79.573C120.973 79.4751 120.323 78.8378 119.859 78.4436Z" fill="#7B7375"/>
<path d="M105.669 82.31C105.462 81.8366 105.248 81.504 105.479 81.0039L105.699 81.0119C106.043 81.2839 106.156 81.596 106.357 81.9912L106.179 82.2006C106.072 82.2374 105.793 82.2847 105.669 82.31Z" fill="#201E1F"/>
<path d="M69.4897 11.1231C69.9058 10.6769 70.6187 9.8016 70.984 9.30736C73.993 5.23763 74.821 5.89147 78.887 7.90623C83.8385 6.38594 84.0764 9.38111 85.4025 13.3569C85.7091 14.4515 86.1464 15.8588 86.2077 16.9832C86.5657 17.3778 87.6035 17.9399 88.1109 18.3239C91.053 20.5502 93.8703 24.1449 92.4302 28.035C92.0404 28.888 91.6882 29.6492 91.0692 30.3757C94.8468 31.5652 98.0073 33.4136 98.5907 37.6975C100.118 37.8127 100.634 37.8431 102.175 37.5654C100.978 38.0635 99.7966 38.514 98.4929 38.627L98.4791 40.2084C99.5619 41.6434 100.419 42.8061 101.195 44.4301C103.947 50.1926 101.924 56.7208 96.8463 60.3932C93.5042 62.8099 86.9545 64.7092 87.1495 69.8491L86.9876 69.9413C86.7114 68.9791 87.3997 66.9998 87.8927 66.1155C89.0089 64.1135 90.587 63.1922 92.435 62.0237C90.2953 55.995 86.6805 48.4059 83.2104 43.0463C82.6864 44.3968 82.1962 45.3229 80.6872 45.6321C84.9273 51.2885 82.4399 58.1158 75.243 58.6985L75.346 58.6529C76.2587 58.2544 77.3111 58.1607 78.1532 57.6647C81.9568 55.4238 80.5279 49.8712 78.0815 47.1862C76.3637 45.5017 74.1613 44.4748 72.1034 43.1358C70.0214 41.781 69.39 41.0525 67.6671 39.54L67.6183 39.4977C66.5473 40.3585 65.1791 41.4128 64.2789 42.4159C67.0237 42.3898 71.4826 43.7384 72.5213 46.6526C73.3996 49.1169 73.2116 52.8683 73.4314 55.5101C73.5731 59.6223 72.8254 69.5914 71.0282 73.1419C70.9136 71.6568 70.4927 70.0476 70.5455 68.5891C70.5861 67.4634 70.921 66.2374 71.0605 64.988C71.6751 59.3434 71.849 53.3827 70.9564 47.7744C70.6175 45.6455 63.8535 42.6949 62.1091 45.2546C59.6481 48.8657 58.3593 54.099 57.7981 58.3927C56.3298 56.527 54.995 54.2068 54.1921 51.9708C53.9107 51.8132 53.9263 51.8191 53.739 51.5512C52.5205 49.9936 52.0855 47.9693 52.1475 46.0185C52.3062 41.0299 57.4235 39.1686 60.8596 35.9873C57.8773 37.62 54.3776 38.2387 51.506 40.5808C49.7931 41.9656 48.6504 43.9345 48.2967 46.1105C48.2065 46.6961 48.207 47.4602 48.1409 48.1029C47.8354 47.256 47.8357 45.3826 48.0123 44.4696C49.0501 39.1028 54.441 36.7117 58.7806 34.4416C59.9734 33.8176 61.15 33.3232 62.2432 32.5588C62.1809 31.308 62.1506 30.7322 62.2007 29.4557C59.4006 26.7633 56.2946 22.7249 56.7658 18.6778C57.5034 12.3418 64.2819 10.5639 69.4897 11.1231Z" fill="#201E1F"/>
<path d="M69.4884 11.1231C69.9045 10.6769 70.6175 9.8016 70.9828 9.30736C73.9917 5.23763 74.8197 5.89147 78.8858 7.90623C83.8373 6.38594 84.0752 9.38111 85.4013 13.3569C85.7079 14.4515 86.1452 15.8588 86.2065 16.9832C86.5645 17.3778 87.6022 17.9399 88.1097 18.3239C91.0517 20.5502 93.8691 24.1449 92.4289 28.035C91.9069 27.1307 91.8371 25.8536 91.3668 24.9503C89.3517 21.0801 85.1935 18.2048 81.1135 16.8689C78.223 15.9176 77.4432 16.8688 75.3005 16.6096C72.4797 16.2686 70.8708 13.124 67.405 15.0278C64.7064 16.51 63.2173 17.8894 62.1221 20.9685C61.361 23.1084 62.1831 24.3103 62.3701 26.3199C62.4423 27.0951 62.1748 28.6159 62.1995 29.4557C59.3994 26.7633 56.2933 22.7249 56.7645 18.6778C57.5022 12.3418 64.2806 10.5639 69.4884 11.1231Z" fill="#3B2C42"/>
<path d="M70.4766 11.0703C74.114 11.1007 77.4085 11.0378 80.9478 11.9489C81.8942 12.1925 84.6939 13.4641 85.4027 13.3562C85.7094 14.4508 86.1466 15.8581 86.2079 16.9825C85.5767 16.7281 84.434 16.0083 83.7969 15.642C82.7307 15.0179 81.6276 14.4591 80.4938 13.9688C78.7631 13.2155 76.462 12.3561 74.6262 11.9207C73.2515 11.5949 71.8868 11.4584 70.4766 11.0703Z" fill="#241B28"/>
<path d="M67.8335 22.168C69.0598 23.4997 71.5629 25.2058 73.326 25.3615C75.8275 25.5822 75.8885 26.2023 77.8233 27.6189C78.7921 28.3282 80.6482 29.138 81.8157 29.6932C81.3531 31.4499 80.5221 33.0257 79.6443 34.5974C79.5979 36.1724 79.6031 37.1131 79.7922 38.6784C79.6242 38.6654 79.6504 38.6594 79.5016 38.7086C77.4302 39.394 74.9643 39.1242 73.1019 37.9893C72.7937 37.8015 72.6006 37.7422 72.2694 37.8518L71.7153 36.9455C71.3459 36.646 70.9877 36.3329 70.6413 36.0068C67.8072 33.3336 67.2604 29.4875 67.1504 25.7836L68.6842 26.8142C67.628 25.0281 67.4259 24.1851 67.8335 22.168Z" fill="#E49B7E"/>
<path d="M79.6438 34.5977C79.5974 36.1727 79.6026 37.1133 79.7917 38.6787C79.6237 38.6657 79.6499 38.6597 79.5011 38.7089C77.4297 39.3943 74.9638 39.1245 73.1014 37.9896C72.7932 37.8017 72.6001 37.7425 72.2689 37.8521L71.7148 36.9458C72.766 37.1978 73.2936 37.6563 74.6615 37.5634C76.9113 37.4108 78.2288 36.1238 79.6438 34.5977Z" fill="#AE7466"/>
<path d="M73.4713 32.7461C73.6683 32.7759 75.379 33.3032 75.6615 33.3869C74.7453 34.1356 74.4383 34.3226 73.3053 34.6484C72.8206 34.603 71.2353 34.1029 71.3671 33.4725C72.1086 32.7915 72.7182 33.0916 73.4713 32.7461Z" fill="#A74E3E"/>
<path d="M71.5033 26.6094L71.9044 26.692C72.5189 27.2345 72.3595 30.4644 72.1748 31.2728C71.9188 31.2251 71.6179 31.1515 71.5571 30.8608C71.3851 30.0391 71.1871 27.3052 71.5033 26.6094Z" fill="#AE7466"/>
<path d="M72.2695 37.8517C72.6008 37.7421 72.7939 37.8013 73.102 37.9892C74.9645 39.1241 77.4304 39.3939 79.5018 38.7085C79.6506 38.6593 79.6243 38.6652 79.7923 38.6783L79.8527 39.4109C81.3366 39.5879 82.4744 41.8701 83.2096 43.0466C82.6856 44.3971 82.1954 45.3233 80.6864 45.6324C80.5211 45.4999 79.6905 44.4814 79.4879 44.2518C78.0737 42.6499 75.25 41.3061 73.9917 39.7311C73.3725 39.1542 72.6975 38.5742 72.2695 37.8517Z" fill="#585757"/>
<path d="M72.2695 37.8517C72.6008 37.7421 72.7939 37.8013 73.102 37.9892C74.9645 39.1241 77.4304 39.3939 79.5018 38.7085C79.6506 38.6593 79.6243 38.6652 79.7923 38.6783L79.8527 39.4109C80.2291 44.5762 75.5711 39.8352 73.9917 39.7311C73.3725 39.1542 72.6975 38.5742 72.2695 37.8517Z" fill="#E49B7E"/>
<path d="M67.6172 39.4963C68.4333 38.8763 68.9855 38.6224 69.9357 38.2383C70.7238 39.4323 71.2467 40.1286 72.3221 41.0934C74.0684 42.6603 77.6113 44.6961 78.0804 47.1847C76.3626 45.5002 74.1602 44.4734 72.1023 43.1344C70.0203 41.7795 69.3889 41.051 67.666 39.5386L67.6172 39.4963Z" fill="#585757"/>
<path d="M55.2756 41.6289C53.8762 44.1021 53.3874 46.2232 53.5371 49.075C53.4649 49.3002 53.4151 49.5039 53.3045 49.7105C52.2379 46.643 53.1524 43.9173 55.2756 41.6289Z" fill="#FAFAFA"/>
<path d="M53.5372 49.0742C53.7003 50.2157 53.9757 50.9204 54.191 51.9704C53.9096 51.8128 53.9252 51.8186 53.7379 51.5508C53.6984 51.0913 53.4316 50.1904 53.3047 49.7097C53.4153 49.5031 53.4651 49.2994 53.5372 49.0742Z" fill="#ECECEC"/>
<path d="M81.8075 26.7763C81.3256 26.4835 81.3524 26.6045 81.1973 26.1703C81.553 23.4629 87.3347 22.328 85.3488 28.4439L84.0904 27.9745C83.2101 27.5624 82.6335 27.2939 81.8075 26.7763Z" fill="#E49B7E"/>
<path d="M82.1416 26.7923C81.8808 25.8001 83.368 24.7452 84.2048 25.1845C84.0368 25.5274 83.4593 25.7291 83.0785 25.8974L83.071 26.049L83.4079 26.1114C84.3393 26.4655 84.3276 26.8022 84.1399 27.7345C83.8706 27.0095 83.8222 26.819 83.2626 26.3387C82.7717 26.49 82.6004 26.5604 82.1416 26.7923Z" fill="#AE7466"/>
<path d="M91.3789 32.5625C94.0629 33.116 96.5161 34.771 97.432 37.4374C95.2425 37.1743 91.8593 34.8316 91.3789 32.5625Z" fill="#FAFAFA"/>
<path d="M100.575 51.3359C100.627 51.5967 100.486 52.6322 100.415 52.9187C99.7334 55.6936 97.5368 58.778 95.1523 60.3117C95.1597 60.1012 96.0709 59.174 96.2803 58.935C98.34 56.5792 99.608 54.2901 100.575 51.3359Z" fill="#ECECEC"/>
<path d="M59.5672 117.484C59.8669 117.919 59.8349 117.756 59.8709 118.199L59.7818 118.329L59.9268 118.48C60.4704 119.211 60.3749 119.589 60.6532 120.055C60.983 120.447 61.0448 120.841 61.1619 121.341C61.4845 121.5 61.6081 121.882 61.713 122.231C62.26 122.912 63.3311 123.781 63.5556 124.494L63.5936 124.265L63.7683 124.2L64.0114 124.433C64.4568 124.854 65.2408 125.545 65.3848 126.134C65.6158 127.426 65.997 129.26 66.0781 130.525C66.479 131.705 71.4401 132.887 71.967 134.356C72.0167 134.494 72.0618 134.634 72.1026 134.775C72.7793 134.236 73.76 131.336 74.199 130.384C74.9312 128.796 75.7541 127.091 76.3595 125.459C78.615 128.867 81.4648 132.8 83.3475 136.406C83.3119 136.487 82.9084 137.372 82.9039 137.404C82.6338 139.382 75.2502 149.863 75.2961 150.88C76.0923 155.141 76.9361 159.391 77.8274 163.632C78.1925 165.335 79.2394 169.634 79.2959 171.149C75.2123 172.221 70.9539 173.069 66.9325 174.117L66.6787 174.108C66.309 174.009 64.4723 172.853 64.0094 172.572C62.2898 171.414 58.8171 169.491 56.9517 168.474C50.991 164.989 44.9591 161.762 39.0488 158.114C40.0091 157.279 43.4846 154.189 43.9578 153.319C44.5332 152.262 45.6572 148.828 46.1688 147.472C44.5022 145.937 42.6504 144.415 40.9426 142.906C39.7124 141.82 38.0591 140.267 36.7695 139.326C37.8882 138.086 39.6665 135.492 40.7481 134.07C41.659 132.872 43.9001 129.919 44.5314 128.697L44.3693 128.459C44.4183 128.02 45.8846 127.072 46.4987 126.488C47.2339 125.127 48.6217 123.586 49.4775 122.142C50.4834 122.721 51.0273 123.183 52.1716 123.153C52.6867 123.097 53.3443 122.989 53.8381 123.086C53.9536 123.058 59.0133 118.018 59.5672 117.484Z" fill="#7B7375"/>
<path d="M72.1016 134.774C72.7783 134.234 73.7589 131.334 74.198 130.382C74.9302 128.794 75.7531 127.09 76.3585 125.457C78.614 128.866 81.4638 132.799 83.3465 136.404C83.3109 136.485 82.9074 137.37 82.9029 137.402C82.6328 139.381 75.2491 149.861 75.2951 150.879C74.4192 147.273 73.7983 143.533 73.0172 139.899C72.6572 138.225 72.2719 136.473 72.1016 134.774Z" fill="#C9C8C9"/>
<path d="M66.6777 174.107L70.2428 146.444C70.4514 144.82 71.3002 136.572 71.7727 135.492C71.5219 136.45 71.9997 136.919 72.037 137.845L72.8148 158.993C72.9127 161.467 72.8598 165.847 73.1518 168.193C71.9188 169.809 67.8333 172.489 66.9316 174.116L66.6777 174.107Z" fill="#585757"/>
<path d="M59.5671 117.484C59.8667 117.919 59.8347 117.756 59.8707 118.199L59.7817 118.329L59.9266 118.48C59.9051 118.527 55.5424 125.206 55.5288 125.22C56.1689 127.396 49.4004 132.065 47.6716 133.001C47.258 132.401 44.9433 129.094 44.5313 128.697L44.3691 128.459C44.4182 128.02 45.8844 127.072 46.4985 126.488C47.2338 125.127 48.6216 123.586 49.4773 122.142C50.4832 122.721 51.0271 123.183 52.1714 123.153C52.6866 123.097 53.3442 122.989 53.8379 123.086C53.9534 123.058 59.0132 118.018 59.5671 117.484Z" fill="#3B2C42"/>
<path d="M59.7823 118.328L59.9273 118.479C59.9057 118.526 55.543 125.205 55.5294 125.219C55.1565 124.744 54.8931 124.339 54.5645 123.831C54.6409 123.027 58.9705 118.941 59.7823 118.328Z" fill="#FAFAFA"/>
<path d="M59.5665 117.484C59.8661 117.919 59.8341 117.756 59.8701 118.199L59.7811 118.329C58.9693 118.942 54.6396 123.028 54.5632 123.831C53.5439 123.965 53.0965 125.828 52.2157 126.404C51.8649 126.291 51.9835 126.397 51.8145 126.117C51.9156 125.599 53.4684 123.889 53.8373 123.086C53.9528 123.058 59.0125 118.018 59.5665 117.484Z" fill="#585757"/>
<path d="M49.4768 122.141C50.4827 122.719 51.0266 123.181 52.1709 123.151C49.7225 123.447 48.3455 125.956 46.498 126.486C47.2333 125.125 48.6211 123.585 49.4768 122.141Z" fill="#7B7375"/>
<path d="M61.7133 122.23C62.2603 122.912 63.3314 123.78 63.5559 124.494C63.6304 126.25 63.9874 128.043 64.0795 129.879L59.7012 127.522C59.969 126.343 61.2087 123.462 61.7133 122.23Z" fill="#FAFAFA"/>
<path d="M60.6523 120.055C60.982 120.446 61.0438 120.841 61.161 121.341C60.7814 122.727 59.5076 125.571 58.9326 127.145C58.2104 126.883 57.9698 126.733 57.3066 126.326C58.0352 124.876 58.7871 123.439 59.5617 122.013C59.9118 121.366 60.3594 120.695 60.6523 120.055Z" fill="#FAFAFA"/>
<path d="M64.0117 124.43C64.4571 124.85 65.2412 125.542 65.3851 126.131C65.6162 127.422 65.9974 129.257 66.0785 130.522L65.8698 130.55C65.463 130.387 65.5185 130.482 65.3317 130.178C65.3064 130.259 65.223 130.41 65.1811 130.493L65.0506 130.468C64.783 129.934 64.8324 129.256 64.6787 128.653L64.5598 128.699C64.3695 127.66 64.2241 125.123 64.0117 124.43Z" fill="#585757"/>
<path d="M64.6779 128.656C64.6295 127.758 64.2868 125.948 64.4187 125.326L64.5074 125.301C64.8843 126.961 64.8634 128.45 65.3309 130.181C65.3056 130.263 65.2222 130.414 65.1803 130.497L65.0498 130.471C64.7822 129.938 64.8315 129.259 64.6779 128.656Z" fill="#C9C8C9"/>
<path d="M66.4337 131.848L66.5612 131.982C66.6059 132.464 65.4153 137.129 65.2275 137.971L62.1825 151.94C59.8641 152.885 57.3454 153.998 55.0176 154.855L54.9043 154.664C56.0487 152.73 57.4479 149.674 58.5082 147.598L66.4337 131.848Z" fill="#585757"/>
<path d="M59.5682 120.371L59.6276 120.509C59.0151 121.567 56.9765 125.452 56.4757 126.057C56.4204 126.012 56.3527 125.902 56.3066 125.838C56.4683 124.908 58.9307 121.024 59.5682 120.371Z" fill="#ECECEC"/>
<path d="M56.9517 168.473C58.8171 169.489 62.2897 171.412 64.0094 172.57C63.597 173.4 63.0888 175.444 62.8273 176.415C62.1089 179.064 61.4348 181.725 60.8054 184.396C61.4971 184.761 61.8508 184.887 62.3253 185.507C61.7273 187.771 61.2282 190.144 60.7332 192.44C59.9489 196.079 58.8703 199.591 59.0354 203.333L59.109 203.454C60.3121 205.413 64.2978 206.656 64.0893 208.961C63.8978 211.078 57.5618 208.863 56.5659 208.55C55.4187 208.188 53.8561 207.695 53.3207 206.585C52.3134 204.205 51.8364 200.588 50.1809 198.532L50.0283 198.5C49.6236 197.628 46.6791 194.925 45.7949 194.063C47.49 188.617 51.0943 188.647 52.7129 182.463C51.7189 181.471 49.3902 179.12 51.1666 177.504C51.7599 176.964 52.9227 177.124 53.6715 177.224C54.0234 177.492 54.2855 177.796 54.588 178.119C54.5518 178.227 55.1994 175.39 55.2621 175.681C54.6651 172.915 56.3956 171.105 56.9517 168.473Z" fill="#585757"/>
<path d="M56.9505 168.473C58.8159 169.489 62.2886 171.412 64.0082 172.57C63.5958 173.4 63.0876 175.444 62.8262 176.415C62.1077 179.064 61.4337 181.725 60.8043 184.396C61.4959 184.761 61.8496 184.887 62.3241 185.507C60.782 185.614 59.8438 184.701 58.4298 184.759C58.156 184.77 58.041 185.046 57.8649 185.295C56.8466 184.865 56.0555 184.431 55.0816 183.901C55.2606 183.546 55.3492 183.427 55.1538 183.089C55.0537 183.065 54.5061 182.946 54.5198 182.822C54.7251 180.942 55.5659 180.003 54.5869 178.119C54.5506 178.227 55.1982 175.39 55.2609 175.681C54.664 172.915 56.3944 171.105 56.9505 168.473Z" fill="#C9C8C9"/>
<path d="M49.7734 193.902C50.087 193.107 54.7311 184.235 55.0833 183.902C56.0572 184.432 56.8483 184.866 57.8666 185.296L57.9798 185.536C57.5697 187.207 54.9944 196.13 54.2516 197.094C52.8497 197.764 50.514 194.966 49.7734 193.902Z" fill="#3B2C42"/>
<path d="M52.2016 177.848C54.9594 177.828 54.4816 181.892 53.5455 182.13C52.9947 181.703 52.4961 181.215 52.0603 180.672C51.1944 179.581 50.9133 178.712 52.2016 177.848Z" fill="#FAFAFA"/>
<path d="M42.2521 95.3609C43.6326 93.4315 51.1605 95.8968 52.9341 96.5347C53.2671 96.6544 53.6978 96.9606 53.9256 96.6525C55.9349 101.077 56.9323 102.492 60.186 106.289C60.2769 107.041 60.3381 107.9 60.4087 108.663C57.3462 108.173 52.6744 107.662 49.7024 107.351C42.3347 106.583 40.575 105.273 41.9862 97.5453C42.0744 97.0616 42.2951 95.8802 42.2521 95.3609Z" fill="#585757"/>
<path d="M45.3268 83.728C45.8292 84.0739 47.2155 83.6751 47.76 83.4727C49.9401 83.4967 51.5202 83.4009 53.7688 83.7576C52.7249 89.0794 51.5471 90.502 53.597 95.9261L53.9263 96.6514C53.6985 96.9595 53.2678 96.6533 52.9348 96.5335C51.1612 95.8957 43.6334 93.4304 42.2528 95.3598C42.0024 95.6738 41.2927 97.0443 41.0456 97.4635C40.3632 98.6209 39.6676 99.758 38.9657 100.904C38.1481 100.507 37.4523 100.011 36.7637 99.4237C38.3796 97.5647 40.1721 94.4667 41.2597 92.2741C40.9155 91.9624 40.4896 91.9699 39.9736 91.8702C40.6473 90.0257 41.7615 88.0427 42.8761 86.413C43.3357 85.7409 45.1985 84.2385 45.3268 83.728Z" fill="#585757"/>
<path d="M41.2597 92.2746C41.345 92.2287 41.4301 92.1827 41.5154 92.1367C43.4661 92.4411 46.8164 93.6213 48.6003 94.0631C50.3413 94.4942 52.3138 95.6058 53.597 95.9267L53.9263 96.6519C53.6985 96.96 53.2678 96.6538 52.9348 96.5341C51.1612 95.8962 43.6334 93.4309 42.2528 95.3603C42.0024 95.6743 41.2927 97.0448 41.0456 97.464C40.3632 98.6214 39.6676 99.7586 38.9657 100.905C38.1481 100.508 37.4523 100.012 36.7637 99.4243C38.3796 97.5652 40.1721 94.4672 41.2597 92.2746Z" fill="#201E1F"/>
<path d="M61.1155 110.82C62.2854 110.937 63.1919 110.949 64.3366 110.705C64.7926 110.608 65.3885 110.474 65.8084 110.691C66.4669 111.391 66.4494 115.477 66.5623 116.564C66.6676 117.578 67.6515 119.714 66.8993 120.479C64.7733 121.237 65.0104 116.533 63.8132 116.364C63.5041 116.547 63.4751 116.675 63.3244 116.998C63.8998 119.066 64.2248 120.816 64.7135 122.896C65.7734 124.942 65.5114 123.902 65.3839 126.133C65.24 125.545 64.4559 124.853 64.0105 124.433L63.7675 124.2L63.5927 124.264L63.5548 124.494C63.3303 123.78 62.2591 122.911 61.7121 122.23C61.6073 121.881 61.4837 121.5 61.1611 121.341C61.0439 120.841 60.9822 120.447 60.6524 120.055C60.374 119.588 60.4695 119.21 59.926 118.48L59.781 118.329L59.8701 118.198C59.834 117.756 59.866 117.918 59.5664 117.484C59.9116 115.316 60.4167 112.891 61.1155 110.82Z" fill="#E49B7E"/>
<path d="M62.791 117.818C62.914 117.363 62.8926 117.16 63.3245 116.996C63.8999 119.065 64.2248 120.815 64.7135 122.895C64.3801 122.698 63.7821 122.08 63.4742 121.782L63.1681 120.625C63.0606 119.648 62.9648 118.786 62.791 117.818Z" fill="#585757"/>
<path d="M63.1684 120.624C62.5779 119.902 61.9709 118.579 62.7914 117.816C62.9651 118.784 63.0609 119.646 63.1684 120.624Z" fill="#ECECEC"/>
<path d="M45.3262 83.7284C46.1312 80.9928 48.6925 81.3275 49.697 79.1733C51.866 74.5216 53.5442 69.6127 55.4735 64.8563C56.2087 63.0436 56.8125 61.168 57.6351 59.3867C56.9532 62.5209 56.7513 66.1478 56.0211 69.2355C55.3241 71.5809 54.3377 73.8411 53.4502 76.1265C52.8386 77.4717 52.2595 79.3961 51.2809 80.5139C50.369 81.5554 48.847 82.5317 47.7594 83.473C47.2149 83.6755 45.8287 84.0743 45.3262 83.7284Z" fill="#201E1F"/>
<path d="M45.795 194.062C46.6791 194.924 49.6236 197.628 50.0283 198.5C49.3574 200.275 48.6436 202.304 47.9355 204.036C47.2853 205.626 43.7686 203.568 42.3574 203.096C43.5453 200.199 44.6761 197.011 45.795 194.062Z" fill="#3B2C42"/>
<path d="M67.1935 104.379L67.4456 104.402C67.6159 104.745 67.5982 105.549 67.6136 105.975C65.8133 106.386 63.3445 106.477 61.5128 106.265L60.5723 106.143L60.6276 106.022C62.8696 105.74 64.9816 104.888 67.1935 104.379Z" fill="#ECECEC"/>
</g>
</g>
<defs>
<clipPath id="clip0_823_9321">
<rect width="144" height="208" fill="white"/>
</clipPath>
<clipPath id="clip1_823_9321">
<rect width="152" height="236" fill="white" transform="translate(-19 -11)"/>
</clipPath>
</defs>
</svg>
