<svg width="376" height="176" viewBox="0 0 376 176" fill="none" xmlns="http://www.w3.org/2000/svg">
<rect width="376" height="176" fill="#F2EEF4"/>
<g clip-path="url(#clip0_965_5875)">
<path d="M215.905 38.4243C218.899 35.1593 224.039 33.3968 227.354 36.8995C231.617 41.4063 226.925 50.4324 224.586 54.8726C223.971 56.0421 222.751 57.5629 222.568 58.7379L222.47 58.7488C222.245 58.2564 222.159 58.1358 222.296 57.5919C221.047 55.4127 220.496 52.7191 219.707 50.3551C218.885 47.8845 218.045 45.3778 217.162 42.9291L217.075 43.0107C216.252 42.1586 215.476 39.6073 215.905 38.4243Z" fill="#ECAF91"/>
<path d="M215.905 38.4243C218.899 35.1593 224.039 33.3968 227.354 36.8995C231.617 41.4063 226.925 50.4324 224.586 54.8726C223.971 56.0421 222.751 57.5629 222.568 58.7379L222.47 58.7488C222.245 58.2564 222.159 58.1358 222.296 57.5919C222.988 56.0859 224.015 54.6666 224.747 53.1813C227.281 48.0352 232.597 36.6942 222.816 35.6731C220.229 35.4029 217.772 37.48 216.035 39.11C216.471 40.4426 216.814 41.572 217.162 42.9291L217.075 43.0107C216.252 42.1586 215.476 39.6073 215.905 38.4243Z" fill="#0E0D10"/>
<path d="M252.277 36.3734C258.348 35.8255 257.071 45.7361 256.77 49.144C259.95 48.625 264.252 47.9479 267.37 48.1976C269.425 48.3622 270.357 52.2278 268.024 53.426C269.33 55.3405 269.173 55.8427 268.996 57.9835C268.514 58.2525 268.035 58.456 267.743 58.9146C267.881 59.9743 268.649 59.8653 268.824 60.8817C269.169 62.8883 267.325 63.1887 266.684 64.1347C268.18 66.393 268.626 67.962 265.387 68.782C261.87 69.466 255.353 70.1364 251.742 70.0146C250.593 69.9759 247.363 69.1793 245.97 68.9138C245.539 64.8537 244.247 58.2136 244.298 53.9715C244.302 53.6895 244.709 53.5685 244.953 53.4178C247.245 52.0096 250.357 45.5538 251.22 43.15C252.016 40.9382 250.262 38.7558 252.277 36.3734Z" fill="#373549"/>
<path d="M239.657 52.7118C240.546 52.622 241.389 52.4791 242.142 52.9719C242.844 54.0865 243.987 68.5763 244.043 70.8085C242.235 71.1646 240.602 71.3033 238.778 71.4776C237.84 71.6022 236.66 71.8121 235.87 71.1456C234.693 70.154 234 56.0895 233.965 53.6567C235.632 53.0894 237.871 52.9075 239.657 52.7118Z" fill="#373549"/>
<path d="M197.199 71.0818C199.844 69.4606 201.203 69.694 203.69 71.5642C206.706 73.8329 209.348 76.7046 212.077 79.3219L227.49 94.0103L234.153 100.533C235.399 101.737 236.693 102.824 237.838 104.121L237.952 103.188L239.597 104.72C241.164 102.541 244.625 100.275 247.331 99.8078C252.516 98.9131 254.841 101.553 258.842 103.152C262.6 101.068 264.545 99.0237 269.61 100.509C273.687 101.705 278.666 104.706 282.156 107.094C284.599 105.722 287.351 104.991 290.009 105.956C295.615 107.988 306.186 114.329 310.337 118.194C312.225 119.977 313.832 122.034 315.108 124.297C316.062 125.998 318.222 129.932 318.052 131.68C317.554 136.824 318.974 138.948 320.656 143.697L326.248 159.53L329.258 168.136C329.554 168.998 330.22 171.302 330.563 172H329.849H226.009C225.053 170.881 224.316 170.064 223.27 169.033C222.54 168.14 221.88 167.328 221.092 166.486L220.742 166.79L220.484 166.508C218.696 163.776 216.554 160.918 214.728 158.365C213.061 156.032 206.283 148.923 205.661 146.869C205.487 144.034 206.102 142.768 208.908 141.501C213.278 139.529 217.036 140.745 221.265 142.403C223.245 140.459 234.669 138.288 237.727 136.775C238.023 136.629 238.291 136.248 238.484 135.985C242.084 140.112 244.822 144.881 247.344 149.713C247.614 150.23 248.566 152.247 248.847 152.613L249.276 153.557L249.364 152.515C245.64 143.61 239.44 136.054 233.52 128.551C226.97 120.298 220.265 112.169 213.409 104.17C207.326 96.9454 191.685 80.8787 197.199 71.0818Z" fill="#ECAF91"/>
<path d="M238.483 135.984C242.083 140.111 244.821 144.88 247.342 149.712C247.612 150.229 248.565 152.246 248.846 152.612C248.959 155.753 249.141 157.872 246.759 160.435C246.292 160.932 245.815 161.421 245.332 161.903C242.365 159.704 239.738 157.072 237.025 154.574C236.272 153.879 234.965 152.362 235.25 151.25C235.569 150.002 238.547 149.232 239.689 149.423C240.223 149.756 240.428 150.369 240.696 150.95L240.92 150.904C241.092 150.196 240.253 148.996 239.528 148.816C237.417 148.292 235.591 150.141 234.31 151.551C234.141 151.737 232.646 150.297 232.488 150.141C228.979 146.69 225.586 144.599 221.264 142.402C223.243 140.458 234.668 138.287 237.726 136.774C238.021 136.628 238.289 136.247 238.483 135.984Z" fill="#E5E4E4"/>
<path d="M235.683 145.24C236.307 144.999 237.013 145.118 237.524 145.55C238.034 145.982 238.27 146.659 238.137 147.315C238.003 147.971 237.524 148.502 236.883 148.701C235.94 148.994 234.935 148.485 234.61 147.551C234.285 146.618 234.76 145.595 235.683 145.24Z" fill="#0E0D10"/>
<path d="M236.172 145.587C236.887 145.488 237.548 145.988 237.646 146.704C237.743 147.419 237.243 148.079 236.528 148.177C235.813 148.275 235.154 147.775 235.055 147.06C234.957 146.345 235.457 145.685 236.172 145.587Z" fill="#E5E4E4"/>
<path d="M239.597 104.721C241.164 102.543 244.625 100.276 247.331 99.8094C252.516 98.9147 254.84 101.555 258.841 103.154C262.599 101.069 264.544 99.0253 269.609 100.511C273.687 101.707 278.666 104.708 282.156 107.095C284.599 105.724 287.35 104.993 290.008 105.957C295.615 107.99 306.186 114.331 310.336 118.196C312.225 119.978 313.832 122.036 315.107 124.299C316.061 126 318.222 129.934 318.052 131.681C317.554 136.825 318.973 138.949 320.655 143.698L326.247 159.532L329.258 168.138C329.553 169 330.219 171.303 330.562 172.002H329.849C328.929 167.777 326.477 162.567 325.136 158.352C323.118 152.013 320.506 145.606 318.366 139.338C316.866 134.948 318.603 130.312 315.321 125.974C312.214 119.677 307.12 115.679 300.982 112.351C294.987 109.1 289.68 103.828 282.623 107.545C282.725 107.601 298.873 118.829 298.472 118.356C296.843 118.861 289.253 112.757 287.892 111.838C283.955 109.178 279.99 106.124 275.812 103.858C269.275 100.314 265.728 99.394 259.407 103.459C260.001 103.896 260.842 104.47 261.483 104.847C267.697 108.501 272.663 113.638 278.447 117.849C279.231 118.42 281.712 119.448 282.112 120.181C280.322 121.212 267.888 109.777 265.747 108.417C257.053 102.897 248.947 95.3263 239.952 105.11C244.302 109.003 248.754 113.659 253.189 117.642C255.475 119.694 260.717 124.652 262.59 126.902C260.208 125.557 256.035 121.168 253.827 119.087C248.566 114.124 243.058 109.111 237.838 104.123L237.951 103.189L239.597 104.721Z" fill="#0E0D10"/>
<path d="M205.66 146.871C205.486 144.036 206.101 142.77 208.907 141.503C213.277 139.531 217.035 140.747 221.264 142.405C225.586 144.602 228.98 146.693 232.488 150.144C232.647 150.3 234.141 151.74 234.311 151.554C235.592 150.144 237.418 148.295 239.529 148.819C240.253 148.999 241.093 150.199 240.921 150.907L240.697 150.953C240.428 150.372 240.224 149.759 239.69 149.426C238.547 149.235 235.57 150.005 235.251 151.253C234.966 152.365 236.272 153.882 237.026 154.577C239.739 157.075 242.366 159.707 245.333 161.906L245.13 162.683C243.213 161.039 241.114 159.343 239.294 157.605C233.003 151.591 227.276 144.96 218.743 142.122C214.479 140.704 210.226 140.499 206.775 143.869C206.302 144.33 206.149 145.305 206.224 145.96C207.353 149.974 212.974 154.692 215.419 158.175C217.581 161.256 219.237 163.57 221.091 166.488L220.741 166.792L220.483 166.51C218.695 163.778 216.554 160.92 214.727 158.367C213.06 156.034 206.282 148.925 205.66 146.871Z" fill="#0E0D10"/>
<path d="M249.364 152.516C250.781 155.428 251.524 156.923 252.283 160.077L251.87 160.67C251.175 161.452 249.34 163.653 248.747 164.47L248.134 164.643C246.968 163.988 246.222 163.466 245.131 162.682L245.333 161.904C245.817 161.423 246.293 160.934 246.76 160.437C249.143 157.874 248.96 155.755 248.847 152.614L249.276 153.558L249.364 152.516Z" fill="#373549"/>
<path d="M248.746 164.468C249.339 163.651 251.174 161.45 251.87 160.668C253.426 165.005 254.261 167.333 248.746 164.468Z" fill="#F9F8F8"/>
<path d="M251.869 160.667L252.282 160.074C252.889 161.518 254.796 165.369 252.696 166.36C251.428 166.959 249.133 165.371 248.133 164.64L248.746 164.467C254.261 167.332 253.426 165.004 251.869 160.667Z" fill="#0E0D10"/>
<path d="M143.953 45.4441C147.062 43.593 153.742 42.2738 157.352 41.3031L178.033 35.7434C181.839 34.7136 185.59 33.5911 189.44 32.647C192.459 31.9064 195.699 30.3842 198.883 30.3477C199.44 31.4104 199.817 32.9133 200.217 34.0945L203.322 43.5817C204.377 46.8352 210.224 63.4538 209.899 65.5269C211.404 67.2342 212.28 69.1864 212.791 71.398C213.154 72.6427 215.433 79.9902 214.986 80.691C214.911 80.8077 214.805 80.9142 214.712 81.0163C218.374 84.4567 224.81 90.1959 228.127 93.842C227.925 93.9048 227.693 93.9946 227.489 94.0107L212.076 79.3223C209.346 76.7049 206.705 73.8332 203.689 71.5645C201.202 69.6944 199.843 69.4609 197.197 71.0821C191.684 80.879 207.325 96.9457 213.408 104.17C220.264 112.17 226.969 120.298 233.519 128.551C239.439 136.054 245.638 143.61 249.362 152.515L249.275 153.557L248.846 152.614C248.565 152.247 247.612 150.23 247.342 149.713C244.821 144.881 242.083 140.113 238.483 135.986C238.29 136.249 238.021 136.629 237.726 136.775C234.668 138.288 223.243 140.459 221.264 142.404C217.035 140.746 213.276 139.529 208.907 141.501C206.101 142.768 205.486 144.035 205.659 146.87C206.281 148.923 213.059 156.032 214.727 158.365C216.553 160.918 218.695 163.776 220.483 166.508L220.74 166.79L221.09 166.486C221.879 167.328 222.539 168.14 223.269 169.034C224.314 170.064 225.051 170.882 226.007 172.001H215.803H209.434H204.851H174.119C173.888 169.234 172.592 166.795 171.769 164.168C171.1 162.029 170.497 159.876 169.747 157.763C168.824 155.506 168.385 153.383 167.577 151.18C165.996 146.873 164.8 142.546 163.333 138.22L164.631 136.916C166.595 134.634 168.904 132.53 171.027 130.022C171.246 129.53 172.682 127.665 173.067 127.027C175.405 123.262 176.758 120.255 177.138 115.742C177.462 111.898 177.093 105.566 172.031 104.988C169.036 104.646 166.467 107.392 164.345 109.254C163.736 108.078 162.722 104.381 162.252 103C161.147 99.7537 160.102 96.4197 159.026 93.1649L150.251 66.0643L146.538 54.8435C145.517 51.7085 144.449 48.7188 143.953 45.4441Z" fill="#E5E4E4"/>
<path d="M171.028 130.022C173.082 131.414 173.597 139.927 175.925 141.545C176.335 141.722 177.211 141.555 177.653 141.424C189.816 137.824 201.902 133.875 214.009 130.104C219.325 128.448 224.631 126.581 229.978 125.145C232.034 127.37 236.756 133.449 238.484 135.986C238.29 136.249 238.022 136.629 237.727 136.776C234.669 138.289 223.244 140.459 221.265 142.404C217.036 140.746 213.277 139.529 208.908 141.502C206.102 142.769 205.487 144.035 205.66 146.87C206.282 148.924 213.06 156.033 214.728 158.365C216.554 160.919 218.696 163.777 220.484 166.508L220.741 166.79L221.091 166.487C221.879 167.328 222.54 168.14 223.27 169.034C224.315 170.064 225.052 170.882 226.008 172.001H215.804H209.435H204.852H174.12C173.889 169.234 172.593 166.795 171.77 164.168C171.101 162.029 170.498 159.876 169.748 157.764C168.825 155.506 168.386 153.383 167.578 151.181C165.997 146.873 164.801 142.546 163.334 138.22L164.632 136.916C166.596 134.635 168.905 132.531 171.028 130.022Z" fill="#F9F8F8"/>
<path d="M169.748 157.765C170.471 157.672 171.745 157.549 172.406 157.344C181.958 154.385 191.456 151.219 201.007 148.241C202.52 147.768 204.103 147.081 205.66 146.871C206.282 148.925 213.06 156.034 214.727 158.366C216.554 160.92 218.695 163.778 220.483 166.51L220.741 166.791L221.091 166.488C221.879 167.33 222.54 168.142 223.269 169.035C224.315 170.066 225.052 170.883 226.008 172.002H215.804H209.435H204.851H174.119C173.888 169.235 172.593 166.796 171.77 164.169C171.1 162.031 170.497 159.877 169.748 157.765Z" fill="#E5E4E4"/>
<path d="M221.091 166.488C221.879 167.33 222.54 168.142 223.269 169.035C224.315 170.066 225.052 170.883 226.008 172.002H215.804H209.435H204.852C209.166 169.691 216.218 168.768 220.483 166.51L220.741 166.792L221.091 166.488Z" fill="#373549"/>
<path d="M221.362 167.977C221.836 168.456 222.207 168.714 222.752 169.112C221.588 170.165 217.534 171.129 215.803 172H209.434C212.061 170.342 218.461 169.152 221.362 167.977Z" fill="#E5E4E4"/>
<path d="M183.702 161.191C185.229 161.831 186.275 162.438 187.95 163.064C188.273 164.642 188.72 165.809 189.276 167.303C188.077 168.043 187.28 168.315 185.957 168.766C185.269 169.009 183.343 169.338 182.54 169.494C182.137 168.169 181.697 166.854 181.223 165.551C181.887 164.226 182.803 162.308 183.702 161.191Z" fill="#373549"/>
<path d="M200.53 156.133C202.632 155.975 204.196 156.754 204.28 159.015C204.347 160.809 205.309 160.515 205.971 161.571L205.891 161.844C205.121 161.852 205.292 161.177 204.27 160.915L203.851 161.202C202.836 161.992 202.234 162.616 200.835 162.342C199.983 162.175 199.239 161.665 198.775 160.93C197.443 158.854 198.757 157.234 200.53 156.133Z" fill="#0E0D10"/>
<path d="M200.654 156.781C201.541 156.519 202.501 156.755 203.165 157.397C203.831 158.04 204.099 158.99 203.869 159.886C203.639 160.782 202.944 161.485 202.052 161.727C200.693 162.096 199.291 161.301 198.908 159.946C198.525 158.59 199.302 157.179 200.654 156.781Z" fill="#E5E4E4"/>
<path d="M215.177 134.512C215.792 134.556 216.292 134.714 216.715 135.184C216.969 135.466 217.086 135.845 217.038 136.221C216.963 136.864 216.593 137.108 216.11 137.46C213.679 137.678 213.373 135.634 215.177 134.512Z" fill="#CFCECF"/>
<path d="M205.845 137.672C206.478 137.281 207.306 137.46 207.72 138.076C208.136 138.693 207.99 139.528 207.39 139.967C206.982 140.266 206.44 140.318 205.982 140.101C205.522 139.884 205.219 139.433 205.192 138.927C205.163 138.42 205.414 137.938 205.845 137.672Z" fill="#CFCECF"/>
<path d="M196.93 140.543C197.62 140.245 198.423 140.555 198.733 141.239C199.043 141.924 198.747 142.731 198.069 143.053C197.618 143.267 197.087 143.221 196.68 142.934C196.275 142.646 196.054 142.161 196.107 141.665C196.158 141.169 196.474 140.74 196.93 140.543Z" fill="#1F1F38"/>
<path d="M201.816 139.06C202.517 139.032 203.119 139.559 203.183 140.259C203.248 140.959 202.752 141.587 202.057 141.688C201.574 141.758 201.092 141.556 200.802 141.162C200.514 140.768 200.466 140.246 200.678 139.806C200.889 139.366 201.327 139.079 201.816 139.06Z" fill="#CFCECF"/>
<path d="M210.608 136.145C212.561 136.421 212.606 137.815 211.066 138.993C210.178 138.626 209.579 138.275 209.543 137.285C209.751 136.713 210.119 136.512 210.608 136.145Z" fill="#CFCECF"/>
<path d="M179.587 77.2286C182.493 76.6597 188.129 75.215 190.685 73.6641C192.294 75.7423 194.246 77.5337 195.677 79.7711C196.6 81.0252 196.972 83.2011 197.777 84.4206C201.404 89.9118 203.484 95.2355 205.941 101.319L212.516 117.602C211.942 118.284 211.816 118.423 211.081 118.914C210.869 118.922 210.778 118.942 210.57 118.897L210.296 119.137C209.626 119.607 208.807 119.73 208.576 119.958C207.552 120.401 207.391 120.589 206.472 119.958C205.914 119.417 193.006 95.1774 191.608 92.5411L190.922 92.3356C191.327 95.4058 192.54 98.7721 193.38 101.794L197.53 117.283C197.809 118.334 198.988 121.873 199.034 122.61C198.702 122.99 198.57 123.103 198.191 123.413L197.988 122.774C196.713 123.38 195.894 123.698 194.518 124.074C193.546 124.211 192.623 124.423 192.197 123.262C189.486 115.873 186.39 108.604 183.655 101.207C183.135 99.8012 180.495 91.808 179.756 90.9349L179.071 91.3961C178.768 91.072 178.866 91.1543 178.826 90.588C179.001 90.3545 179.384 89.8574 179.369 89.5913C179.296 88.3176 179.187 86.669 179.041 85.4096C178.669 82.2008 178.971 80.3036 179.587 77.2286Z" fill="#856767"/>
<path d="M197.987 122.772C198.056 122.703 198.23 122.304 198.228 122.296C196.85 116.2 194.546 108.558 193.034 102.679C192.3 99.827 189.266 90.3276 189.708 88.3766L189.97 88.3164C191.182 90.1455 193.362 94.4455 194.42 96.4589L200.166 107.152C201.581 109.801 205.98 117.467 206.73 119.687L206.471 119.956C205.913 119.415 193.005 95.1751 191.607 92.5389L190.921 92.3334C191.326 95.4035 192.539 98.7698 193.379 101.791L197.529 117.281C197.808 118.332 198.987 121.871 199.033 122.608C198.7 122.987 198.569 123.101 198.19 123.41L197.987 122.772Z" fill="#0E0D10"/>
<path d="M190.921 92.3321C190.757 91.8295 190.469 91.1781 190.629 90.6992C191.238 91.131 191.355 91.7886 191.607 92.5376L190.921 92.3321Z" fill="#9C95AB"/>
<path d="M210.295 119.134C209.334 117.499 208.797 116.016 208.018 114.307L204.68 107.169L198.442 94.1456C197.429 92.0196 195.696 88.79 195.207 86.6602C195.229 86.67 195.253 86.6764 195.275 86.6894C195.962 87.127 209.783 116.342 210.569 118.894L210.295 119.134Z" fill="#0E0D10"/>
<path d="M187.2 55.9414C188.537 56.1392 189.645 56.9477 190.289 58.036C191.564 60.1965 196.678 68.279 197.384 70.187C202.237 67.2423 206.928 73.6795 210.208 76.6063C211.73 77.9634 213.215 79.5908 214.713 81.0155C218.375 84.4559 224.811 90.1951 228.128 93.8412C227.926 93.904 227.694 93.9938 227.49 94.0098L212.077 79.3214C209.347 76.7041 206.705 73.8324 203.69 71.5637C201.203 69.6936 199.844 69.4601 197.198 71.0813C191.685 80.8782 207.326 96.9449 213.408 104.169C220.265 112.169 226.97 120.297 233.519 128.55C239.44 136.053 245.639 143.61 249.363 152.514L249.275 153.556L248.847 152.613C248.566 152.246 247.613 150.229 247.343 149.712C244.822 144.88 242.083 140.112 238.484 135.985C236.756 133.447 232.034 127.369 229.978 125.143C227.946 122.341 225.669 119.733 223.448 117.079L213.777 105.57L206.605 97.1212C205.39 95.6677 204.397 94.2245 203.089 92.8455C204.403 96.6047 213.053 115.938 213.089 117.619C213.091 117.738 212.952 118.02 212.909 118.145C212.722 117.984 212.642 117.811 212.516 117.6L205.941 101.318C203.483 95.2335 201.404 89.9099 197.777 84.4186C196.972 83.1991 196.6 81.0233 195.677 79.7691C194.246 77.5318 192.294 75.7403 190.685 73.6621C188.129 75.2131 182.493 76.6578 179.587 77.2266C178.971 80.3017 178.668 82.1988 179.041 85.4076C179.187 86.6671 179.296 88.3157 179.369 89.5894C179.384 89.8555 179.001 90.3526 178.826 90.586C178.866 91.1524 178.768 91.07 179.071 91.3942L179.756 90.933C180.495 91.8061 183.135 99.7993 183.655 101.205C186.39 108.602 189.486 115.871 192.197 123.26C192.622 124.421 193.546 124.209 194.518 124.072L194.221 124.591C193.504 124.758 193.387 124.788 192.661 124.704C191.721 124.088 191.112 121.658 190.659 120.523C187.647 112.968 184.606 105.38 181.96 97.7028C181.83 97.7793 181.386 98.0312 181.299 98.1109C180.34 98.4135 179.113 97.8091 178.375 97.2075C176.537 95.7104 176.597 93.2948 175.835 91.2743C175.295 89.8421 173.894 88.5725 173.294 87.2159C171.832 83.9133 171.449 79.4618 171.124 75.8692C171.125 75.3523 171.085 74.8836 171.25 74.3998C171.4 73.3564 171.171 71.8973 171.004 70.8616L170.554 71.2187C170.206 68.7969 169.227 65.7777 169.631 63.4004C169.834 62.207 170.561 61.6819 171.518 61.0572L171.662 61.4219C172.57 60.6048 174.56 58.5901 175.81 58.8549L176.01 58.4863C178.948 58.848 179.884 58.3731 181.932 56.3626C182.126 56.4258 182.277 56.4594 182.451 56.5617C183.019 56.0323 184.569 56.2889 185.58 56.2641C186.001 55.9642 186.656 55.9825 187.2 55.9414Z" fill="#0E0D10"/>
<path d="M182.451 56.561C183.018 56.0316 184.569 56.2882 185.58 56.2634L188.406 56.5404C188.169 59.1331 187.995 61.8705 188.661 64.411C188.973 66.001 191.331 69.8858 189.307 71.1279C186.31 72.9696 182.046 73.8089 178.589 74.6077C176.947 74.9868 174.875 68.0156 173.843 66.7308C173.174 65.8984 170.776 63.1916 170.672 62.8471C170.784 62.0926 171.024 61.9083 171.662 61.4212C172.57 60.6041 174.559 58.5894 175.81 58.8542L176.009 58.4856C178.947 58.8473 179.884 58.3724 181.931 56.3619C182.126 56.4251 182.276 56.4587 182.451 56.561Z" fill="#C3B39C"/>
<path d="M181.931 56.3633C182.125 56.4264 182.275 56.46 182.45 56.5624C180.901 58.3707 178.211 60.1961 175.809 58.8556L176.008 58.4869C178.946 58.8486 179.883 58.3738 181.931 56.3633Z" fill="#0E0D10"/>
<path d="M170.145 62.8672L170.191 62.9577C171.243 64.9815 173.165 66.3028 174.173 68.3214C177.328 74.6412 178.768 82.6736 178.494 89.6801C178.466 90.3713 177.037 90.81 176.462 91.0287C175.453 88.8315 174.157 88.1245 173.483 86.3713C172.121 82.8289 172.231 78.1013 171.251 74.403C171.401 73.3596 171.171 71.9005 171.005 70.8648C170.49 68.2584 170.109 65.5256 170.145 62.8672Z" fill="#856767"/>
<path d="M181.3 98.1132C181.103 97.5671 180.968 96.9723 180.531 96.7559C180.281 96.9351 180.035 97.1209 179.795 97.3136L179.482 97.2138L179.441 96.8725C179.711 96.2794 180.536 95.8424 181.108 95.4648L181.961 97.7051C181.831 97.7816 181.387 98.0334 181.3 98.1132Z" fill="#CFCECF"/>
<path d="M188.788 57.2422C189.877 57.7455 195.836 68.5017 197.029 70.3983C195.201 72.4688 195.181 74.4517 195.219 77.0858C195.299 77.6229 195.44 77.8131 195.197 78.1562C195.12 78.077 195.044 77.9963 194.971 77.9142C194.181 77.0365 191.813 73.6642 190.828 72.5796C190.284 71.6935 190.961 69.9037 190.724 69.0817C189.333 64.2913 188.472 62.4053 188.788 57.2422Z" fill="#C3B39C"/>
<path d="M189.237 71.9727C189.535 72.1033 190.188 72.8543 190.213 73.21C188.241 74.3669 182.527 76.1947 180.307 76.5194L179.604 76.3802C179.296 75.8553 179.272 76.0033 179.357 75.5134C180.739 74.3146 186.667 73.3026 189.237 71.9727Z" fill="#856767"/>
<path d="M177.315 95.2685C176.709 94.2991 176.263 92.5019 177.021 91.4912C177.296 91.3129 177.55 91.1598 177.833 91.1771C179.278 91.2656 179.825 92.6804 179.852 93.9446C180.108 94.2001 180.333 94.4252 180.527 94.6197L180.512 95.0515L180.216 95.2932C179.111 94.8754 179.865 94.0565 178.148 94.2171C177.873 94.6301 177.695 94.9371 177.315 95.2685Z" fill="#ECAF91"/>
<path d="M177.318 74.9609C179.451 75.4393 178.768 77.7465 178.593 79.3933C178.436 79.419 178.451 79.379 178.251 79.2841C177.876 78.1395 177.558 76.1974 177.318 74.9609Z" fill="#E5E4E4"/>
<path d="M177.314 95.2663C177.694 94.9348 177.873 94.6279 178.148 94.2148C178.56 94.9699 178.935 95.4924 178.881 96.3564L178.678 96.5757C177.962 96.2828 177.845 95.9435 177.314 95.2663Z" fill="#C3B39C"/>
<path d="M171.518 61.0575C170.876 58.7764 171.323 56.3118 170.802 54.4125C169.522 49.7429 166.382 43.6263 173.098 41.1557C175.395 40.3107 177.054 41.194 179.171 42.3465C180.735 45.3951 181.972 46.1998 182.788 49.9714C185.233 52.1436 185.421 52.1387 186.638 55.474C186.727 55.7182 186.941 55.7817 187.2 55.9417C186.656 55.9828 186.001 55.9645 185.579 56.2644C184.569 56.2892 183.018 56.0326 182.451 56.5621C182.276 56.4597 182.125 56.4261 181.931 56.3629C179.884 58.3734 178.947 58.8483 176.009 58.4866L175.809 58.8552C174.559 58.5904 172.569 60.6051 171.661 61.4222L171.518 61.0575Z" fill="#1F1F38"/>
<path d="M170.746 50.3697C172.337 48.1306 173.712 47.0147 174.216 44.3438C180.106 48.1132 180.823 44.4837 179.386 53.3648L179.288 53.4042C177.349 54.1952 177.666 54.6677 175.517 53.8477L175.375 53.7831C173.484 52.9166 172.857 51.4753 170.746 50.3697Z" fill="#ECAF91"/>
<path d="M179.387 53.3633L179.622 53.7276C180.391 54.944 180.755 55.4338 181.932 56.3638C179.885 58.3743 178.948 58.8492 176.01 58.4875C176.089 56.753 176.17 56.3555 175.854 54.6479C175.66 54.4337 175.602 54.1304 175.518 53.8462C177.667 54.6662 177.35 54.1937 179.289 53.4027L179.387 53.3633Z" fill="#ECAF91"/>
<path d="M179.387 53.3633L179.622 53.7276C178.347 54.7228 177.482 55.4636 175.854 54.6479C175.66 54.4337 175.602 54.1304 175.518 53.8462C177.667 54.6662 177.35 54.1937 179.289 53.4027L179.387 53.3633Z" fill="#0E0D10"/>
<path d="M210.57 118.896C210.778 118.941 210.87 118.921 211.081 118.913C211.816 118.422 211.942 118.283 212.517 117.602C212.643 117.812 212.723 117.986 212.909 118.146C212.577 118.787 212.572 118.566 212.714 119.167C214.524 121.246 219.833 120.781 220.486 122.636C219.871 124.394 212.426 125.969 210.567 126.137C209.685 124.086 209.319 121.963 208.576 119.957C208.808 119.729 209.627 119.606 210.297 119.137L210.57 118.896Z" fill="#1F1F38"/>
<path d="M197.989 122.773L198.191 123.412C199.178 125.977 199.581 126.965 200.125 129.666C198.923 130.374 196.265 131.775 194.902 131.437C193.22 130.14 195.305 126.969 194.221 124.592L194.519 124.074C195.894 123.697 196.713 123.379 197.989 122.773Z" fill="#1F1F38"/>
<path d="M212.791 71.3981L212.293 71.244C211.583 70.4209 211.516 69.0372 211.029 68.19C209.44 65.4186 206.656 63.5147 203.685 62.5139C202.032 61.9567 198.351 62.5392 197.701 62.0423C197.964 61.9348 198.23 61.8437 198.511 61.8236C204.109 61.4236 205.796 62.1845 209.899 65.5269C211.405 67.2342 212.28 69.1865 212.791 71.3981Z" fill="#0E0D10"/>
<path d="M171.003 70.8633C171.169 71.899 171.399 73.3581 171.249 74.4015C171.084 74.8853 171.124 75.354 171.123 75.8709C170.874 74.9049 170.668 72.3235 170.553 71.2204L171.003 70.8633Z" fill="#5B4A4B"/>
<path d="M199.2 65.3038C201.126 65.1324 202.06 65.1313 203.898 65.8925C205.591 66.5937 209.612 69.5824 208.663 71.6489C206.64 68.2324 204.95 65.9035 200.619 66.0643C200.156 66.0814 199.517 66.1 199.15 65.8368L199.2 65.3038Z" fill="#0E0D10"/>
<path d="M192.703 3H194.837L194.947 3.04882C196.049 3.52944 197.884 3.84793 199.117 4.26619C206.118 6.64058 207.8 13.9779 209.712 20.2415C210.922 24.1998 212.418 28.2511 213.76 32.1744C214.32 33.7224 214.906 37.1132 215.906 38.4227C215.477 39.6057 216.253 42.1569 217.075 43.009L217.163 42.9274C218.046 45.3761 218.885 47.8828 219.708 50.3534C220.496 52.7174 221.047 55.411 222.297 57.5903C222.16 58.1342 222.246 58.2548 222.47 58.7472L222.569 58.7362C223.167 61.2849 224.127 63.6338 224.983 66.1018C226.03 69.1224 227.019 72.184 228.033 75.2174C229.504 79.6136 235.621 100.265 237.608 102.773C237.719 102.914 237.83 103.054 237.951 103.187L237.838 104.121C236.692 102.824 235.398 101.737 234.152 100.532L227.489 94.0101C227.694 93.9941 227.925 93.9043 228.128 93.8415C224.811 90.1954 218.374 84.4562 214.713 81.0158C214.806 80.9137 214.912 80.8072 214.986 80.6905C215.433 79.9897 213.155 72.6422 212.792 71.3975C212.281 69.1859 211.405 67.2337 209.9 65.5264C210.225 63.4533 204.377 46.8347 203.323 43.5812L200.217 34.094C199.818 32.9128 199.44 31.4099 198.884 30.3472C195.7 30.3837 192.46 31.9059 189.44 32.6465C185.591 33.5906 181.84 34.7131 178.034 35.7429L157.353 41.3026C153.743 42.2733 147.063 43.5925 143.954 45.4436C144.45 48.7183 145.518 51.708 146.539 54.843L150.251 66.0638L159.027 93.1644C160.102 96.4192 161.148 99.7532 162.253 102.999C162.723 104.38 163.737 108.077 164.345 109.254C163.23 110.229 156.549 115.711 156.082 116.517L156.573 116.73C155.387 117.589 152.672 119.646 151.5 120.192L151.226 119.849C149.43 121.005 148.605 121.622 147.209 123.23C144.269 114.591 141.71 105.918 138.946 97.2436L131.737 75.2462C131.552 74.6637 131.28 73.8079 131.185 73.1894C130.635 69.6256 128.66 66.5402 128.052 63.0271C127.963 62.5099 127.976 62.0608 127.816 61.5623L121.54 42.1485C120.812 39.8216 119.585 36.7328 119.099 34.4106C119.143 33.4598 118.89 30.9812 118.887 29.6016C119.023 28.1921 119.432 26.8226 120.089 25.5684C121.524 22.7765 124.317 20.249 127.317 19.2782L127.408 19.0532L127.283 18.788C129.129 17.9955 131.058 17.1609 132.972 16.5653C134.784 16.0012 136.705 15.8013 138.555 15.3982L150.298 12.7795C161.386 10.3326 172.548 7.58503 183.606 4.981C186.08 4.39812 190.572 3.98784 192.703 3Z" fill="#373549"/>
<path d="M131.543 42.482C132.433 42.0985 135.621 41.4315 136.839 41.0716C143.43 39.1235 150.252 37.5949 156.898 35.8151L190.441 26.8464L200.957 24.1141C202.791 23.621 204.616 22.9694 206.464 22.5781C208.511 27.7894 210.266 34.1855 212.065 39.5838L225.234 79.3472C227.082 84.9023 228.897 91.267 231.127 96.6197C230.663 96.1791 228.585 94.1557 228.129 93.8419C224.812 90.1958 218.376 84.4566 214.714 81.0162C214.807 80.9142 214.913 80.8076 214.988 80.6909C215.435 79.9901 213.156 72.6426 212.793 71.398C212.282 69.1864 211.406 67.2341 209.901 65.5268C210.226 63.4537 204.378 46.8351 203.324 43.5816L200.219 34.0944C199.819 32.9132 199.441 31.4103 198.885 30.3476C195.701 30.3841 192.461 31.9063 189.442 32.6469C185.592 33.591 181.841 34.7135 178.035 35.7433L157.354 41.303C153.744 42.2737 147.064 43.5929 143.955 45.444C144.451 48.7187 145.519 51.7084 146.54 54.8434L150.252 66.0642L159.028 93.1648C160.104 96.4196 161.149 99.7536 162.254 103C162.724 104.381 163.738 108.078 164.346 109.254C163.231 110.23 156.55 115.712 156.083 116.517C154.845 114.56 151.332 102.632 150.44 99.9321L137.098 59.442C135.477 54.5487 133.406 47.1258 131.543 42.482Z" fill="#F9F8F8"/>
<path d="M184.241 9.0832C184.336 9.03697 184.433 8.99264 184.53 8.95021C187.669 7.56583 194.809 6.27367 198.096 7.63938C204.23 10.1863 204.392 17.7074 206.461 22.5766C204.613 22.9679 202.789 23.6195 200.955 24.1126L190.439 26.8449L156.896 35.8136C150.25 37.5934 143.428 39.122 136.836 41.0701C135.619 41.43 132.431 42.0971 131.541 42.4805C130.882 40.9659 130.513 38.5052 130.011 37.422C123.958 24.3563 131.367 19.5088 143.606 18.4546C144.265 19.4512 144.641 20.3164 145.036 21.4325C146.754 22.5115 147.83 23.2921 149.763 23.8609C151.847 23.4308 153.887 22.7794 155.961 22.3011C159.765 21.4243 181.384 16.8331 182.849 15.3965C183.15 15.1009 183.448 14.8021 183.699 14.4623C184.894 12.8568 184.495 10.9114 184.241 9.0832Z" fill="#E5E4E4"/>
<path d="M194.41 14.9336C194.609 14.9661 194.646 14.971 194.828 15.06C197.43 16.3356 197.928 17.8362 198.705 20.4628C197.714 21.064 197.466 21.1722 196.355 21.5025C195.713 21.6805 194.308 22.118 193.733 21.8323C193.288 21.1766 193.135 20.4794 192.949 19.7531C192.241 16.9871 192.985 17.2264 194.41 14.9336Z" fill="#0E0D10"/>
<path d="M195.849 16.7099L196.404 16.6875C197.259 17.1549 197.903 19.2882 198.299 20.3117C197.267 20.7018 196.331 20.927 195.263 21.2008C194.477 21.3761 194.658 21.462 194.048 21.171C193.377 20.1731 193.28 18.7089 193.07 17.4792C194.227 17.2437 194.745 17.1363 195.849 16.7099Z" fill="#E5E4E4"/>
<path d="M141.998 30.957L142.102 30.9735L142.221 31.1552C141.739 31.738 136.896 32.9609 135.775 33.2785L135.518 33.0571C136.012 32.4711 140.869 31.2686 141.998 30.957Z" fill="#0E0D10"/>
<path d="M141.477 28.9297C141.655 28.9512 141.639 28.9788 141.812 29.0934C141.225 30.0103 136.714 30.533 135.253 30.9706L135.132 31.0146L134.928 30.8464C135.188 30.4445 140.473 29.2416 141.477 28.9297Z" fill="#373549"/>
<path d="M141.884 33.3555L142.164 33.3741L142.131 33.5396C141.054 34.0063 137.792 34.8653 136.525 35.2256L136.362 35.2212L136.225 35.0573C136.904 34.2926 140.747 33.4874 141.884 33.3555Z" fill="#0E0D10"/>
<path d="M118.887 29.6008C119.023 28.1913 119.432 26.8218 120.089 25.5676C121.524 22.7756 124.317 20.2481 127.317 19.2773L127.387 19.6337L126.163 21.2623C123.882 24.3078 123.451 28.6461 124.31 32.2738C124.703 35.2241 126.343 38.62 127.174 41.529C127.993 44.395 128.9 47.22 129.892 50.0299C129.966 50.2376 130.517 52.0767 130.513 52.0657L132.363 57.3204C132.631 58.4071 133.917 63.019 134.333 63.931C134.879 65.4058 135.415 66.8848 135.939 68.3677C136.476 71.0324 138.111 75.5158 138.95 78.2125C141.535 86.5249 144.21 94.8094 146.974 103.064C147.429 104.457 149.028 110.35 149.644 111.399L150.562 113.877C150.855 115.264 152.171 118.59 151.892 119.355L151.226 119.848C149.43 121.004 148.605 121.622 147.209 123.229C144.269 114.59 141.71 105.917 138.946 97.2428L131.737 75.2454C131.552 74.6628 131.28 73.8071 131.185 73.1885C130.635 69.6248 128.66 66.5393 128.052 63.0263C127.963 62.5091 127.976 62.0599 127.816 61.5615L121.54 42.1477C120.812 39.8207 119.585 36.732 119.099 34.4098C119.143 33.4589 118.89 30.9803 118.887 29.6008Z" fill="#697D85"/>
<path d="M131.968 67.8309C132.65 67.7499 132.986 67.661 133.62 67.9056C134.692 69.0048 136.651 76.1296 137.107 78.0381C137.372 79.1481 137.363 79.3518 136.817 80.1984C136.341 80.2825 136.227 80.2488 135.747 80.1661C133.95 79.0214 132.58 71.5487 131.617 69.4059C131.356 68.8263 131.655 68.3178 131.968 67.8309Z" fill="#1F1F38"/>
<path d="M132.725 68.0391C134.338 68.7525 137.029 78.1563 136.463 79.9943C134.319 78.8815 133.016 71.3614 132.436 68.9892C132.397 68.8324 132.646 68.2177 132.725 68.0391Z" fill="#434B58"/>
<path d="M130.134 64.2878C129.333 62.2505 126.743 55.2549 127.124 53.4892C127.507 52.9009 127.294 53.0858 127.93 52.7891C130.149 52.9228 132.971 64.3234 132.43 65.0417C131.899 65.3876 131.554 65.5719 130.918 65.4334C130.399 65.0788 130.364 64.8717 130.134 64.2878Z" fill="#434B58"/>
<path d="M130.134 64.2878C129.333 62.2505 126.743 55.2549 127.124 53.4892C127.507 52.9009 127.294 53.0858 127.93 52.7891C130.149 52.9228 132.971 64.3234 132.43 65.0417L132.252 64.8519C132.205 62.5224 130.111 58.2482 129.649 55.8095C129.505 55.0499 128.871 53.5934 128.046 53.399C126.643 55.1474 131.012 62.6856 130.134 64.2878Z" fill="#1F1F38"/>
<path d="M126.162 21.2617L126.638 21.3993C126.639 21.7037 126 22.6389 125.742 22.8995C124.178 24.478 124.848 31.5047 124.309 32.2732C123.45 28.6455 123.881 24.3072 126.162 21.2617Z" fill="#1F1F38"/>
<path d="M134.332 63.93L134.701 63.668C135.366 64.1876 136.652 67.5625 136.074 68.3149L135.938 68.3668C135.414 66.8839 134.878 65.4049 134.332 63.93Z" fill="#1F1F38"/>
<path d="M130.512 52.0678L130.88 51.8008C131.574 52.5585 132.6 56.1263 132.594 57.1604L132.362 57.3225L130.512 52.0678Z" fill="#1F1F38"/>
<path d="M149.645 111.4L150.141 111.254C150.725 111.93 150.945 113.06 150.563 113.879L149.645 111.4Z" fill="#1F1F38"/>
<path d="M168.533 13.2808C169.272 13.213 169.058 13.135 169.676 13.4385C170.085 14.0384 170.067 13.8246 170.027 14.4534C169.163 15.8558 162.647 16.719 160.59 17.2104C159.617 17.4082 159.437 17.3728 158.883 16.6199C158.822 14.57 166.577 13.6706 168.533 13.2808Z" fill="#1F1F38"/>
<path d="M168.648 13.6016C169.106 13.6716 169.4 13.7725 169.608 14.1641L169.381 14.5321C167.997 15.3896 162.478 16.1958 160.413 16.6459C159.955 16.7269 159.832 16.7758 159.408 16.5999L159.385 16.2376C159.94 15.546 167.447 13.9042 168.648 13.6016Z" fill="#434B58"/>
<path d="M172.785 11.8307C173.532 11.5289 174.383 11.8807 174.699 12.622C175.015 13.3634 174.68 14.2214 173.946 14.5521C173.457 14.7718 172.888 14.7105 172.458 14.3918C172.028 14.0731 171.804 13.5468 171.871 13.0156C171.939 12.4844 172.288 12.0312 172.785 11.8307Z" fill="#1F1F38"/>
<path d="M172.746 12.525C173.04 12.3378 173.412 12.3249 173.718 12.4914C174.024 12.6579 174.215 12.9776 174.218 13.326C174.22 13.6744 174.033 13.9967 173.73 14.1675C173.278 14.4218 172.705 14.27 172.439 13.825C172.173 13.3801 172.308 12.8037 172.746 12.525Z" fill="#434B58"/>
<path d="M118.668 34.7241L119.098 34.4102C119.584 36.7324 120.811 39.8211 121.539 42.148L127.814 61.5618C127.975 62.0603 127.962 62.5094 128.051 63.0266C128.658 66.5397 130.633 69.6251 131.184 73.1889C131.279 73.8074 131.55 74.6632 131.736 75.2457L138.945 97.2431C141.708 105.918 144.268 114.591 147.208 123.23C148.604 121.622 149.429 121.004 151.224 119.848L151.499 120.191C152.671 119.646 155.386 117.589 156.572 116.73L156.08 116.516C156.547 115.711 163.229 110.229 164.344 109.253C166.466 107.391 169.035 104.645 172.03 104.987C177.092 105.565 177.462 111.897 177.138 115.741C176.757 120.254 175.404 123.261 173.066 127.026C172.682 127.664 171.245 129.529 171.026 130.021C168.903 132.529 166.594 134.633 164.63 136.915L163.332 138.219C164.8 142.545 165.995 146.872 167.576 151.179C168.385 153.382 168.824 155.505 169.747 157.762C170.496 159.875 171.099 162.028 171.769 164.167C172.591 166.794 173.887 169.233 174.118 172H169.967H163.449H162.723H154.028H153.429H107.148H106.521C106.902 171.107 107.382 169.435 107.736 168.445L110.751 160.104L117.987 140.207C118.464 138.9 118.879 137.541 119.317 136.217C122.471 126.684 127.334 118.216 131.92 109.317L135.913 101.571C136.588 100.241 137.446 98.2451 138.264 97.1261C137.266 94.2672 136.606 91.7201 135.699 88.9145L127.124 61.7728L121.281 43.2301C120.355 40.26 119.336 37.8139 118.668 34.7241Z" fill="#ECAF91"/>
<path d="M164.044 136.574L164.633 136.917L163.335 138.221C164.802 142.547 165.997 146.874 167.579 151.181C168.387 153.384 168.826 155.507 169.749 157.764C170.498 159.877 171.101 162.03 171.771 164.169C172.594 166.796 173.889 169.234 174.12 172.001H169.97H163.451C161.742 166.443 159.977 160.89 158.104 155.383C157.854 154.647 156.461 151.024 156.558 150.569C156.779 149.525 159.542 143.357 160.176 142.921C160.527 143.179 160.536 143.421 160.727 143.88C160.596 142.758 161.01 141.051 160.809 140.528C161.254 139.622 163.213 137.264 164.044 136.574Z" fill="#697D85"/>
<path d="M164.044 136.574L164.633 136.917L163.335 138.221C164.802 142.547 165.998 146.874 167.579 151.181C168.387 153.384 168.826 155.507 169.749 157.764C170.498 159.877 171.102 162.03 171.771 164.169C172.594 166.796 173.89 169.234 174.121 172.001H169.97C168.977 169.613 168.346 167.333 167.532 164.929C166.394 161.566 165.401 158.617 164.471 155.183C163.707 153.293 163.046 151.363 162.49 149.401C162.302 149.055 160.941 144.565 160.728 143.88C160.596 142.758 161.011 141.051 160.809 140.528C161.255 139.622 163.213 137.264 164.044 136.574Z" fill="#373549"/>
<path d="M162.488 149.398C163.514 150.135 165.186 153.948 164.47 155.181C163.706 153.291 163.044 151.36 162.488 149.398Z" fill="#1F1F38"/>
<path d="M118.668 34.7241L119.098 34.4102C119.584 36.7324 120.811 39.8211 121.539 42.148L127.814 61.5618C127.975 62.0603 127.962 62.5094 128.051 63.0266C128.658 66.5397 130.633 69.6251 131.184 73.1889C131.279 73.8074 131.55 74.6632 131.736 75.2457L138.945 97.2431C141.708 105.918 144.268 114.591 147.208 123.23C148.604 121.622 149.429 121.004 151.224 119.848L151.499 120.191C149.769 121.642 147.534 123.422 146.178 125.153C140.61 132.259 135.761 139.559 128.852 145.528C128.135 146.147 126.073 148.432 125.112 148.473C126.088 146.927 129.04 144.502 130.458 143.167C136.755 137.239 141.293 130.274 146.61 123.512C144.746 117.97 142.982 112.394 141.316 106.789C140.296 103.436 139.351 101.09 138.57 97.5767C134.339 106.317 129.695 114.818 125.284 123.461C122.366 129.178 120.238 135.663 118.104 141.733L112.441 157.583C111.381 160.593 110.115 163.643 109.088 166.697C108.525 168.374 107.546 170.311 107.148 172H106.521C106.902 171.107 107.382 169.435 107.736 168.445L110.751 160.104L117.987 140.207C118.464 138.9 118.879 137.541 119.317 136.217C122.471 126.684 127.334 118.216 131.92 109.317L135.913 101.571C136.588 100.241 137.446 98.2451 138.264 97.1261C137.266 94.2672 136.606 91.7201 135.699 88.9145L127.124 61.7728L121.281 43.2301C120.355 40.26 119.336 37.8139 118.668 34.7241Z" fill="#0E0D10"/>
<path d="M160.809 140.527C161.01 141.05 160.596 142.757 160.727 143.879C160.536 143.42 160.527 143.179 160.176 142.921C159.542 143.356 156.779 149.524 156.557 150.569C156.461 151.024 157.854 154.646 158.104 155.383C159.977 160.889 161.742 166.442 163.451 172.001H162.725H154.031H153.432C153.564 169.6 154.025 166.92 154.148 164.639C154.546 157.226 154.624 151.688 158.366 144.97C159.144 143.571 159.748 141.86 160.809 140.527Z" fill="#ECAF91"/>
<path d="M160.809 140.527C161.01 141.05 160.596 142.757 160.727 143.879C160.536 143.42 160.527 143.179 160.176 142.921C159.542 143.356 156.779 149.524 156.557 150.569C156.461 151.024 157.854 154.646 158.104 155.383C159.977 160.889 161.742 166.442 163.451 172.001H162.725C161.873 167.441 159.478 162.181 158.174 157.618C157.542 155.406 156.657 153.623 156.179 151.265C154.991 157.483 154.884 165.311 154.031 172.001H153.432C153.564 169.6 154.025 166.92 154.148 164.639C154.546 157.226 154.624 151.688 158.366 144.97C159.144 143.571 159.748 141.86 160.809 140.527Z" fill="#0E0D10"/>
<path d="M164.346 109.253C166.468 107.39 169.037 104.644 172.032 104.986C177.094 105.565 177.463 111.896 177.139 115.74C176.759 120.254 175.406 123.26 173.068 127.025C172.683 127.663 171.247 129.528 171.028 130.02C168.905 132.529 166.596 134.633 164.632 136.915L164.043 136.572C165.314 135.131 166.942 133.684 168.205 132.31C173.382 126.674 177.268 119.959 176.607 112.055C176.648 109.36 174.87 105.854 171.894 105.515C169.166 105.204 165.681 108.972 163.675 110.716C161.324 112.739 158.956 114.743 156.573 116.729L156.082 116.516C156.549 115.71 163.231 110.228 164.346 109.253Z" fill="#0E0D10"/>
<path d="M118.516 28.5713C119.329 24.1578 122.848 19.8872 127.283 18.7852L127.408 19.0503L127.317 19.2754C124.317 20.2462 121.524 22.7736 120.089 25.5656C119.432 26.8198 119.023 28.1893 118.887 29.5988C118.76 29.3493 118.612 28.8555 118.516 28.5713Z" fill="#0E0D10"/>
<path d="M118.515 28.5742C118.612 28.8584 118.76 29.3522 118.886 29.6017C118.889 30.9813 119.143 33.4599 119.099 34.4107L118.669 34.7246C118.197 32.933 118.28 30.4 118.515 28.5742Z" fill="#51666C"/>
<path d="M105.284 76.4535C107.83 76.3352 110.786 76.5967 113.244 77.2165C114.112 81.414 114.478 86.6037 115.13 90.9722C112.37 92.7744 109.405 98.7746 108.622 102.02C108.413 103.278 109.006 105.102 108.378 106.226C107.836 107.195 106.773 107.928 105.726 107.018C104.047 105.559 103.405 103.583 103.128 101.428C103.116 99.5003 103.37 97.277 103.544 95.3357C100.746 95.5574 95.8786 96.3384 93.3158 96.248C90.0782 94.0788 91.4803 93.3097 92.7457 91.0826C92.127 90.1354 91.6638 90.0279 91.5187 88.8374C91.377 87.6748 93.3852 86.8946 93.0697 86.2374C92.1376 84.295 91.3124 84.0306 93.5636 82.0438C93.9495 80.8656 90.175 77.3324 98.0116 76.8112C100.341 76.6562 102.923 76.5449 105.284 76.4535Z" fill="#D12926"/>
<path d="M119.864 74.6109C120.8 74.514 121.995 74.2957 122.802 74.7759C123.666 75.9516 124.809 89.2345 124.759 91.2386C123.187 91.656 122.063 91.733 120.461 91.8758C119.559 91.9473 118.007 92.2628 117.194 91.7872C116.822 91.5695 116.764 91.4045 116.669 90.9908C116.39 89.764 114.912 76.1832 115.276 75.714C116.019 74.7578 118.695 74.7288 119.864 74.6109Z" fill="#D12926"/>
</g>
<defs>
<clipPath id="clip0_965_5875">
<rect width="373.648" height="169" fill="white" transform="translate(0 3)"/>
</clipPath>
</defs>
</svg>
