<svg width="376" height="176" viewBox="0 0 376 176" fill="none" xmlns="http://www.w3.org/2000/svg">
<g clip-path="url(#clip0_965_5798)">
<rect width="376" height="176" fill="#F2EEF4"/>
<g clip-path="url(#clip1_965_5798)">
<path d="M121.706 71.1451C122.148 70.5245 122.665 67.457 122.908 66.5432C124.641 60.0668 125.958 53.566 127.997 47.1674C129.347 42.9293 133.328 42.8864 136.057 40.0322C138.194 37.7973 139.548 36.8212 142.634 36.4102C142.285 37.2195 141.297 37.7152 140.535 38.1988C140.375 42.5496 142.068 50.4988 142.924 54.9518C143.665 58.8107 144.772 65.295 145.865 68.9439C147.169 62.6194 148.36 56.2725 149.437 49.9059C149.962 46.882 150.954 41.7528 151.142 38.8648C150.648 38.1402 149.734 37.2986 149.55 36.6397C153.472 37.1145 154.164 39.1236 157.039 41.37C157.886 42.0316 160.144 43.1072 161.224 43.7848C163.716 45.6137 163.94 47.0108 164.709 49.9482C164.763 50.1512 164.684 49.9373 164.781 50.1766C165.014 49.6865 165.027 49.6752 165.427 49.5206L165.196 49.3376C165.264 48.8794 165.891 48.4879 166.252 48.2336C166.849 48.1723 167.572 48.1621 168.181 48.1376L168.679 48.2035C171.744 48.3618 172.803 48.463 175.162 50.8392C175.948 51.6306 177.058 52.681 177.658 53.5775L177.704 53.6465C177.949 54.0101 177.951 54.2967 177.984 54.7249C177.114 55.9219 176.733 57.0858 176.063 58.0934C175.82 58.6613 175.407 59.6563 175.333 60.2737L175.557 60.4928C178.492 61.967 179.444 62.5458 179.509 65.8985C179.597 70.3761 184.604 71.3285 187.524 73.6011C187.86 75.4521 188.021 77.1471 188.171 79.02C188.611 84.54 189.291 90.04 189.604 95.5688C189.643 96.2661 189.729 96.991 189.805 97.6858C189.877 98.1698 189.935 98.6883 189.96 99.1776C190.207 103.924 191.195 108.896 191.327 113.62C189.607 114.05 187.304 114.426 185.588 113.988C184.82 108.864 183.989 102.605 183.431 97.4382C182.482 97.4855 181.554 97.5254 180.608 97.6198C180.993 99.0849 181.231 101.361 181.521 102.933C183.365 112.944 183.697 123.387 184.246 133.579L186.147 166.807C184.564 167.075 181.613 167.24 180.269 166.313C178.233 165.506 176.709 165.533 174.641 166.057C173.936 166.285 172.386 167.236 171.695 167.683C170.254 168.619 166.645 169.22 165.114 168.492C163.906 167.919 163.226 166.819 161.371 166.785C159.147 166.759 156.603 167.784 154.389 167.318C152.914 167.007 154.436 163.876 153.9 163.039C152.003 162.859 150.94 163.192 149.232 164.052C148.519 164.711 145.561 165.47 144.785 164.545C144.814 163.898 145.726 160.257 145.934 159.35C146.666 156.234 147.317 153.101 147.885 149.952C149.15 142.965 150.082 136.168 151.216 129.174C151.527 127.252 151.696 125.091 152.049 123.244C151.12 123.233 150.132 123.27 149.206 123.349C141.178 124.037 133.562 122.648 125.756 121.13C125.744 120.355 125.782 119.515 125.836 118.741C126.319 111.83 126.802 104.894 127.111 97.9757L126.238 97.7859C124.651 97.5071 123.286 97.0056 121.734 96.6807C121.852 94.5666 121.692 90.4441 121.685 88.1362C121.662 82.4725 121.669 76.8088 121.706 71.1451Z" fill="#8A8484"/>
<path d="M121.706 71.1451C122.148 70.5245 122.665 67.457 122.908 66.5432C124.641 60.0668 125.958 53.5661 127.997 47.1674C129.347 42.9293 133.328 42.8864 136.057 40.0322C138.194 37.7973 139.548 36.8212 142.634 36.4102C142.285 37.2195 141.297 37.7152 140.535 38.1988C140.375 42.5496 142.068 50.4988 142.924 54.9518C143.665 58.8107 144.772 65.295 145.865 68.9439C147.169 62.6194 148.36 56.2725 149.437 49.9059C149.962 46.882 150.954 41.7528 151.142 38.8648C150.648 38.1402 149.734 37.2986 149.55 36.6397C153.472 37.1145 154.164 39.1236 157.039 41.37C157.886 42.0316 160.144 43.1072 161.224 43.7848C163.716 45.6137 163.94 47.0108 164.709 49.9482C164.763 50.1512 164.684 49.9373 164.781 50.1766C164.382 51.9631 160.759 53.671 159.18 54.338C158.753 54.1758 155.903 55.4737 155.153 55.7344L154.456 56.0923C153.459 56.826 152.298 57.1895 151.355 58.0495C149.328 59.9003 149.744 63.0816 149.397 65.6791L149.107 67.4444C148.981 69.2318 148.729 71.1623 148.525 72.9558C148.284 75.0747 148.134 77.9313 147.775 79.9934C147.753 81.4353 147.572 83.4935 147.377 84.9488C147.303 87.2837 146.853 90.8326 146.607 93.2136C145.993 98.8128 145.445 104.42 144.965 110.031C144.878 111.087 144.698 112.289 144.635 113.307C146.476 113.69 148.356 113.852 150.236 113.789C151.435 106.762 152.526 99.7185 153.51 92.6597L154.857 83.5204C155.134 81.5987 155.469 78.719 155.929 76.8849C156.21 79.7116 156.677 82.7521 157.071 85.5775C157.546 88.9771 157.376 90.0536 156.854 93.4162C156.346 96.5728 155.803 99.7233 155.225 102.869C154.224 108.513 153.492 114.213 152.577 119.871C152.49 120.407 152.187 122.962 152.049 123.244C151.12 123.233 150.132 123.27 149.206 123.349C141.178 124.038 133.562 122.648 125.756 121.13C125.744 120.355 125.782 119.515 125.836 118.741C126.319 111.83 126.802 104.894 127.111 97.9757L126.238 97.7859C124.651 97.5071 123.286 97.0056 121.734 96.6807C121.852 94.5666 121.692 90.4441 121.685 88.1363C121.662 82.4725 121.669 76.8088 121.706 71.1451Z" fill="#3C263A"/>
<path d="M126.238 97.7845C126.215 95.7522 130.536 66.0183 131.035 64.8658L131.2 64.7305C131.498 65.3809 129.8 83.34 129.716 85.7096C129.595 89.0993 128.59 94.5691 128.34 98.167C127.98 98.0904 127.461 97.9494 127.112 97.9743L126.238 97.7845Z" fill="#3C263A"/>
<path d="M146.289 70.6682C146.66 70.0408 148.986 65.3588 149.25 65.2773L149.396 65.676L149.107 67.4413C148.981 69.2288 148.729 71.1592 148.525 72.9527C148.284 75.0717 148.134 77.9282 147.774 79.9903C147.752 81.4322 147.572 83.4904 147.377 84.9457L147.285 84.9207C146.938 84.3621 147.159 77.8847 147.064 76.7592C146.894 74.7507 146.436 72.6704 146.289 70.6682Z" fill="#3C263A"/>
<path d="M147.775 79.9904C147.719 77.185 147.12 74.2972 147.049 71.5259C147.026 70.6065 148.383 68.0244 149.108 67.4414C148.981 69.2289 148.73 71.1593 148.526 72.9529C148.284 75.0718 148.134 77.9283 147.775 79.9904Z" fill="#3C263A"/>
<path d="M157.668 45.7225C157.214 44.3942 156.775 43.314 156.489 41.9313L156.605 41.8624L156.47 41.7787L156.524 41.6953C156.923 42.4009 157.817 44.943 158.243 45.9435C156.986 46.3339 155.752 46.7963 154.549 47.3282C155.274 48.0909 157.428 49.1772 157.621 49.8456C158.161 51.7223 155.867 54.0852 155.154 55.7325L154.457 56.0904C154.478 55.7406 156.643 50.562 156.942 49.7582C155.607 48.6966 154.548 48.4048 153.25 47.0325C154.561 46.3033 156.157 46.1196 157.668 45.7225Z" fill="#3C263A"/>
<path d="M132.969 46.1194C133.702 44.9478 134.11 43.1895 134.903 41.9258L134.964 42.0149L134.841 42.0424L134.944 42.1392C134.742 43.0596 134.179 44.535 133.874 45.5297C135.358 46.1652 136.625 46.3357 138.213 47.1138C137.055 48.2462 135.805 49.2621 134.65 50.4373C137.217 55.6803 139.629 61.0446 142.162 66.3083C142.992 68.0333 143.927 69.9086 144.6 71.6891L144.367 71.769C143.719 70.1535 141.828 66.7944 140.977 65.3012C139.204 62.192 137.386 59.0926 135.733 55.9047C134.97 54.4329 133.619 52.0792 133.156 50.529C134.081 49.4645 135.617 48.2561 136.736 47.3325C135.533 46.8719 134.227 46.3717 132.969 46.1194Z" fill="#3C263A"/>
<path d="M148.42 113.824C148.717 113.865 148.871 113.91 149.161 113.991C149.897 115.275 149.555 121.601 150.277 123.147C149.727 123.157 149.104 123.209 148.548 123.242C148.406 120.91 148.308 116.151 148.42 113.824Z" fill="#3C263A"/>
<path d="M143.932 77.3648C144.391 77.3221 144.913 77.2586 145.339 77.4582C146.032 77.7824 145.956 78.6607 145.56 79.1855C143.847 79.5463 143.272 78.9818 143.932 77.3648Z" fill="#3C263A"/>
<path d="M144.6 71.6875C144.794 72.0592 144.988 72.3224 144.956 72.7262C144.671 72.5718 144.488 72.0897 144.367 71.7673L144.6 71.6875Z" fill="#3C263A"/>
<path d="M168.181 48.1367L168.679 48.2026C171.744 48.3608 172.803 48.4621 175.162 50.8382C175.948 51.6297 177.058 52.68 177.658 53.5766L177.704 53.6455C177.949 54.0092 177.951 54.2958 177.984 54.724C177.114 55.921 176.733 57.0849 176.063 58.0925C175.82 58.6604 175.407 59.6554 175.333 60.2727L175.557 60.4918L175.313 60.9932C174.181 60.911 171.649 60.9857 170.386 60.9756C167.235 60.9228 164.083 60.9036 160.932 60.9179L160.635 60.0501C160.228 59.1554 159.661 56.8958 159.522 55.9245L159.18 54.337C160.759 53.6701 164.382 51.9622 164.781 50.1757C165.014 49.6855 165.027 49.6742 165.427 49.5197L165.196 49.3367C165.264 48.8785 165.892 48.487 166.252 48.2326C166.849 48.1714 167.572 48.1611 168.181 48.1367Z" fill="#D3947A"/>
<path d="M160.928 55.4509C161.616 55.3098 164.626 53.66 165.565 53.2734C165.793 54.3196 166.158 56.2328 166.476 57.226C167.231 57.6978 170.355 57.3463 171.264 57.0063C172.667 57.357 174.652 57.8393 176.063 58.0927C175.82 58.6606 175.407 59.6556 175.333 60.2729L175.557 60.492L175.313 60.9934C174.181 60.9112 171.649 60.9859 170.386 60.9758C167.235 60.923 164.083 60.9038 160.932 60.9181L160.635 60.0503C160.228 59.1556 159.661 56.896 159.521 55.9247C159.753 55.8862 160.654 55.5482 160.928 55.4509Z" fill="#555554"/>
<path d="M160.635 60.0507C162.423 60.0305 174.48 59.9106 175.333 60.2733L175.556 60.4924L175.313 60.9938C174.181 60.9116 171.649 60.9863 170.386 60.9762C167.235 60.9234 164.083 60.9042 160.931 60.9185L160.635 60.0507Z" fill="#252525"/>
<path d="M160.928 55.4509C161.616 55.3098 164.625 53.66 165.565 53.2734C165.792 54.3196 166.157 56.2328 166.476 57.226C165.091 57.1633 162.053 56.2968 160.928 55.4509Z" fill="#3C263A"/>
<path d="M165.427 49.5195C166.458 49.6382 167.535 49.7131 168.544 49.8382C164.569 50.886 166.876 51.6993 166.691 52.733L166.388 52.9828C165.971 53.0382 165.92 53.0504 165.566 53.2731C164.626 53.6597 161.617 55.3094 160.928 55.4505C160.654 55.5478 159.753 55.8858 159.522 55.9243L159.18 54.3369C160.759 53.6699 164.382 51.962 164.781 50.1755C165.014 49.6854 165.027 49.6741 165.427 49.5195Z" fill="#252525"/>
<path d="M165.566 53.2746C165.921 53.0519 165.972 53.0398 166.388 52.9844C167.249 54.0526 167.517 54.4628 167.988 55.7916C169.05 56.2898 170.157 56.6219 171.265 57.0075C170.356 57.3474 167.232 57.699 166.477 57.2272C166.159 56.2339 165.794 54.3208 165.566 53.2746Z" fill="#8A8484"/>
<path d="M175.532 112.926C175.821 114.24 175.823 116.432 175.967 117.892C176.432 122.314 176.858 126.74 177.245 131.17L179.228 152.83C179.428 154.932 180.633 164.889 180.27 166.313C178.234 165.505 176.71 165.532 174.642 166.057C174.103 164.596 174.848 150.733 174.901 148.178L175.275 125.68C175.354 121.369 175.502 117.27 175.532 112.926Z" fill="#555554"/>
<path d="M149.232 164.049C149.011 162.783 152.141 147.839 152.676 145.157L155.819 129.014C156.687 124.646 157.646 120.37 158.471 115.973L158.453 116.29L158.5 116.237C158.497 116.435 158.49 116.631 158.478 116.829C158.168 121.436 157.603 125.481 157.101 131.074C156.198 141.141 155.176 152.692 154.081 162.877C154.02 162.93 153.96 162.983 153.899 163.037C152.003 162.857 150.94 163.189 149.232 164.049Z" fill="#555554"/>
<path d="M160.932 60.9186C164.083 60.9043 167.235 60.9235 170.386 60.9763C171.649 60.9864 174.181 60.9117 175.313 60.9939C173.949 65.1649 170.822 72.0368 168.121 75.3985C167.379 73.9865 166.386 72.6579 165.58 71.184C163.8 67.8705 162.247 64.4409 160.932 60.9186Z" fill="#555554"/>
<path d="M180.806 76.7852C180.977 79.3868 181.384 81.7928 181.744 84.3735C182.387 88.7173 182.949 93.0726 183.432 97.437C182.483 97.4843 181.555 97.5242 180.609 97.6187C180.409 97.0275 180.38 96.3782 180.233 95.7838C178.613 89.251 179.849 83.4074 180.806 76.7852Z" fill="#8A8484"/>
<path d="M199.88 27.0571C199.206 24.5169 198.243 23.591 197.093 21.3825C195.217 17.7272 196.077 11.7757 198.12 8.3023C200.374 5.1191 204.916 1.92172 208.648 0.962161C216.632 -1.09075 222.989 4.75727 224.702 12.1241C225.915 17.3386 227.17 21.8522 231.799 25.0174C232.842 25.7311 234.002 26.6696 235.175 27.1857L235.248 27.1791C236.73 27.0341 236.9 26.5409 238.245 26.3077C238.892 26.1954 239.891 26.9825 240.219 27.003C243.034 27.1794 246.421 26.9905 249.212 27.1073C249.22 26.4958 249.096 25.6032 249.931 25.6155C250.582 26.0441 250.436 26.6108 250.43 27.3279C253.047 27.6201 255.443 28.931 257.093 30.9749C259.634 34.1022 259.481 37.8707 259.478 41.6387L259.475 48.7421L259.44 71.9422L259.368 136.592L259.372 159.165C259.381 162.25 259.278 166.523 259.41 169.522L263.082 171.16C266.054 172.463 267.833 173.169 269.209 176.481C269.595 177.407 269.702 178.314 270 179.148V186.321L267.769 186.314C267.693 183.267 268.006 179.822 267.037 176.928C266.574 175.28 263.704 173.777 262.12 173.229C260.049 172.511 251.209 167.467 249.531 168.138C248.419 169.309 248.686 174.065 248.668 175.778L246.502 175.793C246.391 172.131 245.612 163.799 251.929 166.106C253.579 166.709 255.427 167.672 257.031 168.437C257.035 168.313 257.036 168.188 257.037 168.064L257.069 78.8605L257.086 50.2242L257.094 41.3932C257.097 37.7081 257.525 34.6072 254.621 31.7181C253.671 30.7788 252.503 30.0879 251.221 29.707C249.191 29.1238 243.493 29.331 241.07 29.3469L240.629 31.074C241.89 32.5189 242.529 33.9829 242.854 35.8446C245.814 35.8676 249.822 35.6597 252.801 36.0127C253.527 36.0986 254.256 37.8666 253.913 38.6472C253.421 38.8303 252.478 38.8029 251.914 38.8171C251.899 39.7431 251.978 41.338 251.778 42.1974C251.6 42.9651 250.754 42.6934 250.2 42.9679C249.961 43.3817 250.054 43.426 250.082 43.97L250.125 45.658C249.412 45.6976 248.857 45.7344 248.138 45.6876L247.996 44.1908C245.758 44.2476 242.43 44.242 240.279 44.4347C240.274 44.9231 238.712 47.4872 238.339 48.1292C237.357 49.4746 236.699 51.3053 237.993 52.6771C239.177 54.417 241.225 54.1758 242.986 53.774C241.934 54.8458 240.177 55.5141 238.673 55.5257C238.424 55.5268 238.175 55.5231 237.926 55.5146L237.578 55.5349C235.984 55.2605 235.278 54.9717 233.798 54.3486C233.402 52.5122 232.873 50.6398 232.41 48.8512C231.233 44.2996 229.567 39.4458 225.575 36.5528C222.967 34.6633 221.457 34.271 218.906 31.8987C216.723 32.5935 213.316 33.5955 211.501 34.84C210.728 35.4461 209.605 36.3752 209.056 37.1507C206.846 40.2719 205.155 44.3491 203.397 47.7755L203.178 48.11C202.694 49.3479 201.868 50.544 201.297 51.7408C199.627 55.2397 197.776 58.5136 193.365 58.8279C192.627 58.4095 190.347 56.8837 189.934 56.2378C187.253 54.2127 186.127 54.455 183.136 55.5071C182.116 55.0584 180.314 53.9392 179.19 53.3638L177.985 54.7253C177.951 54.2971 177.949 54.0105 177.705 53.6469L177.658 53.5779C177.059 52.6813 175.949 51.631 175.162 50.8395C172.803 48.4634 171.744 48.3621 168.68 48.2039L168.181 48.138C167.572 48.1625 166.85 48.1727 166.252 48.2339C165.892 48.4883 165.265 48.8798 165.196 49.338L165.427 49.521C165.027 49.6755 165.014 49.6869 164.781 50.177C164.685 49.9377 164.763 50.1516 164.71 49.9486C163.941 47.0112 163.716 45.614 161.224 43.7852C160.144 43.1076 157.886 42.032 157.039 41.3704C154.164 39.124 153.472 37.1149 149.55 36.6401C149.734 37.299 150.648 38.1406 151.142 38.8652C150.954 41.7532 149.962 46.8824 149.438 49.9063C148.36 56.2728 147.169 62.6198 145.866 68.9443C144.773 65.2954 143.665 58.8111 142.924 54.9522C142.069 50.4992 140.375 42.55 140.536 38.1992C141.298 37.7156 142.286 37.2199 142.635 36.4105C139.548 36.8216 138.194 37.7977 136.057 40.0325C133.328 42.8868 129.348 42.9297 127.997 47.1678C125.958 53.5664 124.641 60.0672 122.908 66.5436C122.665 67.4574 122.149 70.5249 121.707 71.1455C121.67 76.8092 121.662 82.4729 121.685 88.1366C121.692 90.4445 121.853 94.567 121.734 96.681C121.548 105.338 121.7 114.545 121.701 123.261L121.697 177.621C125.51 180.775 129.272 183.066 129.599 188.29C129.787 191.312 129.76 194.247 129.776 197.265C129.073 197.263 128.205 197.282 127.516 197.24C127.505 193.375 128.196 186.322 125.182 183.595C122.504 181.172 119.453 178.801 116.68 176.444C115.958 175.837 114.97 175.119 114.324 174.512C113.837 176.761 114.001 180.48 114.02 182.88L112 182.89V174.458C112.387 173.76 112.81 172.601 113.608 172.415C115.506 171.973 117.987 174.664 119.405 175.753C119.362 170.701 119.353 165.648 119.378 160.595L119.369 133.438L119.35 110.52C119.342 105.658 119.267 100.503 119.393 95.6628C118.373 95.1703 117.351 94.7043 116.394 94.0992C116.864 91.1588 117.929 87.8427 118.547 84.8886C118.813 83.6174 119.316 82.0163 119.339 80.7311C119.405 76.9528 119.378 73.1122 119.375 69.3358L119.375 48.1286C119.373 44.7354 119.095 37.9199 119.851 34.9729C120.47 32.6044 121.896 30.5236 123.885 29.0859C125.251 28.1111 126.845 27.5026 128.516 27.3188C128.37 26.544 128.161 25.8537 129.04 25.4807C129.462 25.605 129.304 25.5173 129.631 25.8614C129.771 26.2778 129.776 26.5986 129.81 27.0306C132.699 27.0581 135.589 27.0677 138.478 27.0592C140.066 27.0586 141.652 27.0569 143.238 27.0336C144.172 27.0199 145.121 26.1965 145.728 26.2712C147.082 26.4379 147.275 27.0393 148.843 27.0443C157.048 27.0703 165.255 27.0516 173.46 27.0709C174.413 27.0949 175.156 26.3352 176.109 26.3196C177.077 26.3037 177.906 27.0747 178.863 27.0579C185.834 26.9357 192.92 27.2336 199.88 27.0571Z" fill="#252525"/>
<path d="M174.877 39.4883C175.522 39.7269 176.344 40.0023 176.934 40.3248C177.251 41.0138 177.55 41.9246 178.271 42.2168C178.653 42.1878 178.804 42.0017 179.105 41.7519C179.738 41.6451 182.186 43.0575 182.944 43.4356C183.502 43.3706 183.819 43.6196 184.382 43.6502C185.389 43.7513 185.623 43.7583 186.45 44.3453C187.041 43.5084 188.026 42.3456 188.929 41.8807C189.341 41.6624 189.636 41.372 189.984 41.0639C190.542 41.6459 193.002 43.4429 193.714 43.5456L193.826 43.4791C194.661 42.2989 196.144 41.6108 197.392 40.8863C197.777 41.8958 198.147 42.0853 198.983 42.7206C200.479 43.8576 201.823 45.0377 202.777 46.6874C202.995 47.0629 203.103 47.4462 203.396 47.7724L203.177 48.1069C202.693 49.3448 201.867 50.5408 201.296 51.7377C199.626 55.2365 197.775 58.5105 193.364 58.8248C192.626 58.4064 190.346 56.8805 189.933 56.2347C187.252 54.2095 186.126 54.4519 183.135 55.504C182.115 55.0553 180.313 53.9361 179.189 53.3607L177.984 54.7222C177.95 54.294 177.948 54.0074 177.704 53.6437L177.657 53.5748C177.058 52.6782 175.948 51.6279 175.162 50.8364C172.803 48.4603 171.743 48.359 168.679 48.2008C168.672 47.6912 168.698 47.1219 168.71 46.6072C169.751 44.9189 171.115 44.7605 170.976 42.5092C170.911 42.2322 170.647 41.7511 170.51 41.4775C172.012 40.7445 173.326 40.1117 174.877 39.4883Z" fill="#CCCCCD"/>
<path d="M174.877 39.4883C175.522 39.7269 176.344 40.0023 176.934 40.3248C177.251 41.0138 177.55 41.9246 178.271 42.2168C178.653 42.1878 178.804 42.0017 179.105 41.7519C179.738 41.6451 182.186 43.0575 182.944 43.4356C183.502 43.3706 183.819 43.6196 184.382 43.6502C185.092 44.522 184.149 45.3826 183.944 46.2785C183.81 46.52 183.629 46.8813 183.461 47.0842C181.927 49.2869 177.813 50.9053 175.162 50.8364C172.803 48.4603 171.743 48.359 168.679 48.2008C168.672 47.6912 168.698 47.1219 168.71 46.6072C169.751 44.9189 171.115 44.7605 170.976 42.5092C170.911 42.2322 170.647 41.7511 170.51 41.4775C172.012 40.7445 173.326 40.1117 174.877 39.4883Z" fill="#8A8484"/>
<path d="M174.877 39.4883C175.522 39.7269 176.344 40.0023 176.934 40.3248C177.251 41.0138 177.55 41.9246 178.271 42.2168C178.653 42.1878 178.804 42.0017 179.105 41.7519C179.738 41.6451 182.186 43.0575 182.944 43.4356C182.203 43.6335 181.459 43.8207 180.713 43.9974C178.303 44.5448 173.618 44.5932 171.303 43.3482C171.061 43.2181 171.046 42.8267 170.976 42.5092C170.911 42.2322 170.647 41.7511 170.51 41.4775C172.012 40.7445 173.326 40.1117 174.877 39.4883Z" fill="#FBFBFB"/>
<path d="M183.463 47.0855C179.904 47.2532 174.166 47.0558 170.412 47.1074C170.155 47.111 169.881 46.7776 169.738 46.5231L169.777 46.3927C169.954 46.2809 170.187 46.2284 170.396 46.2349C174.912 46.3775 179.43 46.2124 183.946 46.2797C183.812 46.5212 183.631 46.8826 183.463 47.0855Z" fill="#252525"/>
<path d="M184.382 43.6523C185.39 43.7534 185.623 43.7604 186.451 44.3474C186.098 44.8802 185.72 45.4797 185.35 45.994C186.209 46.9932 187.155 48.146 188.097 49.048C187.995 50.543 187.837 51.8615 188.26 53.3333C188.494 54.1477 189.877 55.6355 189.934 56.2368C187.253 54.2117 186.127 54.454 183.136 55.5061C182.115 55.0574 180.314 53.9382 179.189 53.3628L177.984 54.7243C177.951 54.2961 177.949 54.0095 177.704 53.6459L177.657 53.5769C177.058 52.6803 175.948 51.63 175.162 50.8385C177.813 50.9074 181.928 49.289 183.462 47.0863C183.63 46.8834 183.81 46.5221 183.945 46.2806C184.149 45.3848 185.093 44.5241 184.382 43.6523Z" fill="#8A8484"/>
<path d="M193.826 43.4796C194.661 42.2994 196.144 41.6112 197.392 40.8867C197.777 41.8962 198.148 42.0857 198.983 42.721C200.479 43.8581 201.823 45.0382 202.778 46.6878C202.995 47.0633 203.104 47.4466 203.396 47.7728L203.177 48.1074C199.631 47.1628 199.114 44.4375 195.953 43.5247C195.71 43.4547 194.272 43.4965 193.826 43.4796Z" fill="#3C263A"/>
<path d="M121.707 71.1432L121.701 49.2393C121.703 45.3314 121.66 41.3191 121.761 37.4127C121.819 35.1918 123.023 32.8174 124.73 31.3543C125.765 30.4681 127.011 29.8588 128.348 29.5838C130.481 29.1397 136.473 29.3263 138.889 29.3306C141.166 29.3345 145.601 29.2 147.768 29.3762C148.503 30.2685 146.484 31.6972 145.963 32.261C145.252 33.0287 145.46 34.3012 145.474 35.3061C144.641 35.3745 143.042 35.6029 142.635 36.4082C139.548 36.8193 138.194 37.7954 136.057 40.0302C133.328 42.8845 129.348 42.9274 127.997 47.1655C125.958 53.5641 124.641 60.0649 122.908 66.5413C122.665 67.4551 122.149 70.5226 121.707 71.1432Z" fill="#FBFBFB"/>
<path d="M148.626 29.3354L168.297 29.3277C171.015 29.327 175.691 29.174 178.182 29.3672C178.491 30.0036 178.078 30.5907 177.627 31.0479C175.892 32.8054 175.883 32.9337 175.888 35.3953C174.88 35.4023 174.103 35.3642 173.377 36.201C172.409 37.3178 172.227 38.118 171.059 39.141C169.318 40.6653 168.593 39.7916 166.803 40.5332C166.435 40.6856 165.909 41.3336 165.561 41.6175C164.181 42.0495 162.468 43.0307 161.225 43.7855C160.144 43.1078 157.886 42.0322 157.04 41.3706C154.165 39.1242 153.472 37.1152 149.551 36.6404C148.203 36.2471 148.446 35.5283 146.036 35.3165C145.996 34.3631 145.99 34.0062 146.104 33.0381C147.626 31.5793 148.255 31.2927 148.626 29.3354Z" fill="#FBFBFB"/>
<path d="M179.048 29.3285C185.712 29.3271 193.158 29.1711 199.76 29.3558C197.833 34.2444 195.211 35.3581 197.394 40.8887C196.146 41.6132 194.662 42.3014 193.828 43.4816L193.716 43.5481C193.004 43.4454 190.544 41.6484 189.985 41.0664C189.637 41.3745 189.343 41.6648 188.931 41.8832C188.028 42.3481 187.042 43.5109 186.452 44.3477C185.625 43.7607 185.391 43.7537 184.384 43.6527C183.821 43.6221 183.504 43.373 182.945 43.4381C182.188 43.0599 179.739 41.6475 179.106 41.7544C178.805 42.0041 178.655 42.1902 178.273 42.2193C177.552 41.927 177.253 41.0162 176.936 40.3272C176.346 40.0047 175.523 39.7294 174.879 39.4907C175.139 39.1289 174.868 38.8812 175.285 38.3797C176.3 37.7861 178.22 38.834 179.297 39.0578C179.764 39.1546 180.146 39.17 180.619 39.1912C180.021 36.5649 179.108 35.9837 176.596 35.4699C176.447 34.7848 176.425 34.0782 176.532 33.3851C177.564 31.5719 178.791 31.4435 179.048 29.3285Z" fill="#FBFBFB"/>
<path d="M176.532 33.3828C176.545 33.747 176.525 34.4674 176.692 34.7414C177.821 34.1093 181.768 34.9288 183.148 35.3594C184.978 37.5855 186.89 39.8374 188.931 41.8809C188.028 42.3458 187.042 43.5086 186.452 44.3454C185.625 43.7584 185.391 43.7514 184.384 43.6504C183.821 43.6197 183.504 43.3707 182.945 43.4358C182.188 43.0576 179.739 41.6452 179.106 41.7521C178.805 42.0018 178.655 42.1879 178.273 42.217C177.552 41.9247 177.253 41.0139 176.936 40.3249C176.346 40.0024 175.523 39.7271 174.879 39.4884C175.139 39.1266 174.868 38.8789 175.285 38.3774C176.3 37.7837 178.22 38.8317 179.297 39.0555C179.764 39.1523 180.146 39.1677 180.619 39.1889C180.021 36.5626 179.108 35.9814 176.596 35.4675C176.447 34.7825 176.425 34.0759 176.532 33.3828Z" fill="#D3947A"/>
<path d="M200.344 11.1914C201.663 12.9318 202.8 14.2384 204.795 15.2308L204.966 14.8354L205.044 14.6937C205.245 14.7031 208.629 15.773 208.986 15.9348C210.03 16.0815 211.055 16.2293 212.105 16.3351C212.258 15.4621 212.458 14.6042 213.266 14.0738C213.655 13.8211 214.131 13.7376 214.584 13.8423C216.289 14.2478 216.695 16.4902 216.244 17.9243C215.9 19.0181 215.52 19.4703 214.769 20.3158C214.594 21.2058 214.348 22.095 214.164 22.9795C213.785 24.8037 211.899 25.7351 210.997 27.1062C210.561 27.4464 210.107 27.7646 209.638 28.0596C207.23 29.5943 206.004 30.003 204.874 27.1498C204.735 26.7992 204.407 26.7699 204.071 26.6654L203.943 26.5622C203.55 25.423 203.111 25.272 202.856 24.5969L203.026 24.2729C203.049 23.115 201.749 23.0197 200.827 22.7643C201.026 21.4684 201.462 19.9456 201.772 18.6354C201.628 18.11 201.256 17.3506 201.018 16.8327C200.106 14.8449 199.967 13.3332 200.344 11.1914Z" fill="#D3947A"/>
<path d="M204.07 26.6659L203.942 26.5627C203.549 25.4235 203.11 25.2725 202.855 24.5974L203.025 24.2734C203.746 24.4625 205.092 24.5662 205.857 24.5745C205.412 25.5457 205.069 26.179 204.07 26.6659Z" fill="#A2503D"/>
<path d="M204.967 14.8332L205.044 14.6914C205.246 14.7008 208.629 15.7707 208.986 15.9325L208.939 16.3317C207.76 15.8254 206.292 15.3867 204.967 14.8332Z" fill="#AC7565"/>
<path d="M204.966 14.8359C206.291 15.3895 207.759 15.8281 208.938 16.3345L209.105 16.3786C207.054 16.0679 206.717 15.977 204.795 15.2312L204.966 14.8359Z" fill="#381B17"/>
<path d="M214.272 14.9609C215.249 15.2789 214.316 15.508 214.141 16.0712C213.976 16.6006 214.02 17.4062 214.017 17.974L213.921 18.0619L213.801 17.9266C213.701 16.9405 213.72 15.8151 214.272 14.9609Z" fill="#AC7565"/>
<path d="M167.951 40.6172C167.962 41.3286 167.843 42.4645 168.796 42.5855C169.082 42.6852 170.024 43.0362 170.263 43.0512C169.37 45.4732 167.86 45.0964 168.182 48.1378C167.572 48.1622 166.85 48.1725 166.252 48.2337C165.892 48.4881 165.265 48.8796 165.196 49.3378L165.427 49.5208C165.027 49.6753 165.014 49.6866 164.782 50.1768C164.685 49.9374 164.763 50.1514 164.71 49.9484C163.941 47.011 163.717 45.6138 161.225 43.785C162.468 43.0303 164.181 42.049 165.56 41.617C165.375 42.074 165.247 42.1658 165.324 42.588C166.013 42.4293 166.276 41.285 167.951 40.6172Z" fill="#8A8484"/>
<path d="M216.477 28.6484C217.482 30.2614 217.982 30.6211 218.905 31.8953C216.723 32.5901 213.316 33.5921 211.501 34.8366C209.485 31.0106 212.076 32.1357 212.999 30.4961L213.305 30.3542C214.366 29.7151 215.435 29.3187 216.477 28.6484Z" fill="#555554"/>
<path d="M210.998 27.1068C211.9 25.7358 213.786 24.8043 214.165 22.9802C214.348 22.0957 214.594 21.2064 214.77 20.3164C214.852 21.6592 214.982 22.9987 215.159 24.3324C215.398 25.6805 215.843 27.4329 216.479 28.6512C215.436 29.3215 214.367 29.7179 213.306 30.357L213 30.4989C212.48 29.4404 211.815 27.8859 210.998 27.1068Z" fill="#AC7565"/>
<path d="M213.305 30.3566C213.08 29.6619 214.685 25.9422 214.939 24.4776L214.949 24.4136L215.157 24.332C215.397 25.6801 215.841 27.4325 216.477 28.6509C215.434 29.3212 214.365 29.7175 213.305 30.3566Z" fill="#D3947A"/>
<path d="M241.682 42.9682C242.755 42.9547 247.022 42.8318 247.856 43.0154C248.051 43.3598 247.997 43.7757 247.996 44.1901C245.758 44.2469 242.43 44.2413 240.279 44.434C240.285 43.9933 240.609 43.0187 241.063 42.9062L241.166 43.0311C241.138 43.2294 241.114 43.4107 241.066 43.6058L241.035 43.7284C241.418 43.5683 241.425 43.3859 241.682 42.9682Z" fill="#FBFBFB"/>
<path d="M168.795 42.5826C169.145 42.3192 169.507 41.9633 169.912 41.9492C170.213 42.2545 170.213 42.585 170.262 43.0483C170.023 43.0333 169.081 42.6823 168.795 42.5826Z" fill="#FBFBFB"/>
<path d="M243.232 38.7926C245.382 38.7074 249.108 38.7167 251.238 38.8141C251.286 39.7116 251.582 41.6259 250.883 42.2431C250.443 42.3533 250.616 42.3667 250.217 42.2222C249.949 41.8479 249.988 41.0938 249.938 40.551C249.374 40.3466 248.52 40.4229 247.896 40.4429L247.886 42.3202L242.027 42.3251C242.719 40.9494 242.752 40.1489 243.232 38.7926Z" fill="#FBFBFB"/>
<path d="M198.107 40.5134C197.528 38.8232 197.65 36.5552 198.414 34.9691C198.699 34.3766 199.207 33.0655 199.616 32.6055C199.662 32.9992 199.232 34.0531 199.14 34.6483C198.813 36.7808 198.802 38.0741 199.09 40.1931L198.107 40.5134Z" fill="#FBFBFB"/>
<path d="M240.703 38.7578L242.064 38.8064C242.034 40.3075 242.056 40.821 241.575 42.2741C241.324 42.392 241.3 42.3665 241.028 42.3393C240.685 41.9264 240.74 39.5128 240.703 38.7578Z" fill="#FBFBFB"/>
<path d="M238.891 32.6992C239.58 33.2711 240.978 34.9717 240.998 35.8595L239.669 35.8662C239.184 34.6432 238.374 34.0343 238.891 32.6992Z" fill="#FBFBFB"/>
<path d="M198.105 40.5118L199.089 40.1914C199.308 41.4096 199.809 42.2552 200.395 43.3236C198.533 42.128 198.927 42.2037 198.105 40.5118Z" fill="#3C263A"/>
<path d="M235.355 30.0234C235.928 30.2288 237.211 31.1294 237.7 31.5578C238.234 32.0254 238.325 32.064 238.378 32.6853L238.108 32.7418C237.598 32.6562 235.839 30.5584 235.355 30.0234Z" fill="#FBFBFB"/>
<path d="M238.676 29.3465C239.133 29.3258 239.792 29.2344 240.16 29.4419C240.32 29.8521 240.235 29.8811 240.147 30.3576C239.867 30.4843 238.952 29.5708 238.676 29.3465Z" fill="#FBFBFB"/>
<path d="M207.603 90.2617C209.513 91.8464 211.055 94.3404 212.833 96.0965C217.194 100.404 224.882 102.396 230.836 101.983C230.543 103.042 230.33 103.781 229.928 104.793C229.499 105.873 228.63 107.567 228.449 108.651C227.683 113.214 227.361 117.915 226.9 122.51C226.601 125.495 226.051 128.626 225.723 131.626C225.461 134.027 225.031 136.453 225.196 138.888C225.417 141.694 226.201 144.449 226.791 147.188C228.564 155.41 226.789 163.654 225.889 171.861C225.751 173.12 225.816 174.385 225.7 175.621C225.305 175.72 224.588 175.821 224.375 176.078C224.294 176.624 223.929 178.669 224.107 179.057C223.507 180.42 223.395 181.392 223.311 182.883L219.285 182.885C219.118 182.112 219.063 181.892 218.738 181.179C219.355 180.113 220.559 177.586 219.523 176.819C217.405 175.251 217.125 178.537 217.129 179.478C217.263 179.983 217.401 180.487 217.541 180.99C217.111 181.154 216.645 181.272 216.39 181.643C216.271 181.976 216.305 182.07 216.335 182.435L216.195 182.597C214.635 183.002 213.304 183.413 211.775 183.865L211.456 183.324C211.036 183.102 210.608 183.274 210.089 183.371C209.37 181.811 208.241 178.243 207.593 177.221C208.393 177.035 209.914 176.848 210.294 176.247L210.44 176.431C210.761 176.458 210.788 176.411 211.075 176.226C210.46 174.071 209.475 171.797 208.717 169.688C205.485 160.743 201.785 152.118 197.447 143.653C195.269 139.404 197.513 131.351 198.582 126.843C200.964 116.788 204.554 107.274 206.664 97.124C206.951 94.8262 207.317 92.5599 207.603 90.2617Z" fill="#CCCCCD"/>
<path d="M206.664 97.1211C207.251 97.281 207.942 97.6799 208.429 98.0052C212.485 100.715 217.138 101.682 221.956 101.668C222.481 101.665 223.114 101.734 223.65 101.806C222.811 104.247 221.44 106.056 219.781 108.014C219.094 108.826 218.363 109.644 217.798 110.544C215.264 115.037 213.128 119.967 211.031 124.663C210.591 125.647 211.225 129.395 211.349 130.762C211.718 134.821 211.897 139.452 212.93 143.402C213.538 145.727 214.484 147.792 214.637 150.266C215.395 157.265 215.478 164.284 215.585 171.314C215.59 171.653 216.291 173.001 216.414 173.863C215.165 174.573 212.453 176.023 211.075 176.224C210.46 174.068 209.475 171.794 208.717 169.685C205.485 160.74 201.785 152.115 197.447 143.651C195.269 139.401 197.513 131.348 198.582 126.84C200.964 116.785 204.554 107.271 206.664 97.1211Z" fill="#FBFBFB"/>
<path d="M216.602 175.753C216.749 175.713 224.489 176.134 224.374 176.075C224.294 176.622 223.929 178.667 224.106 179.055C223.506 180.418 223.394 181.39 223.31 182.881L219.284 182.883C219.117 182.11 219.062 181.89 218.737 181.177C219.354 180.111 220.558 177.584 219.522 176.817C217.404 175.249 217.124 178.535 217.128 179.476C216.774 178.344 216.509 178.642 216.516 177.191C216.527 176.71 216.568 176.232 216.602 175.753Z" fill="#CCCCCD"/>
<path d="M216.515 177.191C216.188 176.78 215.939 175.733 216.282 175.297L216.495 175.404L216.602 175.753C216.567 176.232 216.526 176.711 216.515 177.191Z" fill="#FBFBFB"/>
<path d="M250.081 43.9666C250.524 43.9656 251.137 43.9483 251.562 43.9795C251.643 44.7241 251.767 46.1838 251.917 46.8554C252.116 49.1462 252.58 51.664 252.932 53.953C255.803 72.669 253.892 91.7367 253.74 110.576C253.723 112.703 253.693 114.843 253.641 116.973C253.409 124.134 253.235 131.298 253.12 138.464C248.842 139.738 246.003 139.203 241.797 138.733C241.434 135.223 241.397 131.569 241.191 128.03L239.983 106.049L238.666 82.8541C238.497 80.0733 238.237 77.2269 238.106 74.4582C237.738 77.3107 237.541 79.6672 237.431 82.543C237.39 83.6303 237.306 86.3697 237.159 87.3459C237.134 87.1381 237.112 86.9299 237.093 86.7214L236.884 86.6747C236.868 83.4866 236.514 80.69 236.31 77.5491C235.958 72.1122 235.511 66.7451 234.721 61.3482C234.381 59.0171 234.189 56.6752 233.797 54.3451C235.278 54.9682 235.983 55.257 237.578 55.5314L237.926 55.5112C238.174 55.5196 238.423 55.5233 238.672 55.5222C240.177 55.5107 241.934 54.8423 242.985 53.7705C241.224 54.1724 239.177 54.4135 237.993 52.6736C236.699 51.3018 237.356 49.4711 238.338 48.1258C238.712 47.4837 240.274 44.9197 240.278 44.4312C242.429 44.2386 245.758 44.2442 247.995 44.1873L248.138 45.6841C248.857 45.7309 249.411 45.6941 250.124 45.6545L250.081 43.9666Z" fill="#555554"/>
<path d="M250.083 43.9666C250.525 43.9656 251.139 43.9483 251.564 43.9795C251.645 44.7241 251.768 46.1838 251.919 46.8554C251.092 46.6938 247.138 47.4312 245.848 47.5023C245.728 46.764 245.694 45.8953 245.106 45.4328L244.893 45.4707C244.539 46.0983 244.836 46.9096 245 47.6239C243.68 47.8831 239.653 48.2417 238.34 48.1258C238.713 47.4837 240.275 44.9197 240.28 44.4312C242.43 44.2386 245.759 44.2442 247.997 44.1873L248.139 45.6841C248.858 45.7309 249.413 45.6941 250.126 45.6545L250.083 43.9666Z" fill="#555554"/>
<path d="M244.999 47.6247C244.835 46.9103 244.539 46.0991 244.893 45.4715L245.105 45.4336C245.694 45.8961 245.727 46.7648 245.847 47.5031C247.138 47.4319 251.092 46.6946 251.918 46.8561C250.935 48.2691 240.151 48.8336 238.064 48.895C238.024 50.1195 237.957 51.4533 237.994 52.6744C236.7 51.3026 237.357 49.4719 238.339 48.1265C239.653 48.2425 243.68 47.8838 244.999 47.6247Z" fill="#555554"/>
<path d="M237.578 55.532L237.926 55.5117C237.799 57.6129 238.183 61.9095 237.706 63.6555C237.502 63.357 237.569 56.5507 237.578 55.532Z" fill="#252525"/>
<path d="M200.957 86.5703C202.725 86.7335 205.681 88.2461 206.854 89.5431C207.047 89.723 207.446 90.0754 207.601 90.259C207.316 92.5572 206.949 94.8235 206.663 97.1213C204.553 107.271 200.962 116.786 198.58 126.84C197.512 131.348 195.267 139.401 197.445 143.651C201.784 152.116 205.483 160.74 208.716 169.685C209.474 171.794 210.459 174.068 211.074 176.224C210.787 176.408 210.759 176.455 210.439 176.429L210.292 176.244C209.912 176.846 208.392 177.033 207.592 177.219C207.374 177.166 207.027 177.204 206.788 177.215C205.98 176.831 204.677 173.335 204.26 172.383C203.216 170.04 202.196 167.687 201.201 165.325C198.442 158.791 195.458 151.93 191.819 145.857C188.629 140.533 190.549 135.156 191.465 129.475C192.825 121.047 194.775 112.811 197.13 104.608C197.663 102.31 198.428 100.065 199.053 97.7831C199.789 95.0983 200.202 92.6785 200.529 89.9354C200.477 89.2447 200.829 87.3543 200.957 86.5703Z" fill="#FBFBFB"/>
<path d="M206.855 89.543C207.047 89.7229 207.447 90.0753 207.602 90.2589C207.316 92.5571 206.95 94.8234 206.664 97.1211C204.554 107.271 200.963 116.786 198.581 126.84C197.513 131.348 195.268 139.401 197.446 143.651C201.785 152.116 205.484 160.74 208.716 169.685C209.475 171.794 210.46 174.068 211.074 176.224C210.788 176.408 210.76 176.455 210.44 176.429L210.293 176.244C209.946 175.206 209.533 174.136 209.145 173.112C206.804 166.937 204.551 160.572 201.817 154.561C200.854 152.45 199.851 150.358 198.807 148.285C197.875 146.425 196.858 144.574 196.193 142.597C193.776 135.42 202.302 111.22 204.588 102.848C205.189 100.647 205.55 98.327 205.973 96.083C206.269 94.5002 206.437 92.8653 206.662 91.2703C206.742 90.6973 206.73 90.0865 206.855 89.543Z" fill="#555554"/>
<path d="M200.957 86.5703C202.725 86.7335 205.681 88.2461 206.854 89.5431C206.729 90.0866 206.741 90.6975 206.66 91.2704C206.436 92.8655 206.268 94.5003 205.972 96.0831C204.137 95.2172 202.339 92.8346 201.283 91.149C200.986 90.6747 200.886 90.1848 200.529 89.9354C200.476 89.2447 200.829 87.3543 200.957 86.5703Z" fill="#CCCCCD"/>
<path d="M236.555 90.2305L236.732 90.4888L236.846 90.5094C236.929 94.3048 236.387 97.9335 236.327 101.645C236.13 113.991 234.682 126.446 234.338 138.758C230.037 139.405 229.503 139.548 225.195 138.885C225.03 136.45 225.46 134.024 225.722 131.624C226.05 128.624 226.6 125.493 226.899 122.507C227.36 117.913 227.682 113.212 228.448 108.649C228.63 107.564 229.498 105.87 229.927 104.791C230.329 103.778 230.542 103.039 230.835 101.98C233.429 101.371 234.037 99.2626 234.885 97.0641C235.771 94.7646 236.167 92.653 236.555 90.2305Z" fill="#555554"/>
<path d="M217.129 179.475C217.125 178.534 217.405 175.248 219.523 176.816C220.558 177.583 219.355 180.11 218.737 181.176C219.062 181.889 219.118 182.109 219.285 182.883C219.221 183.856 220.677 186.003 221.325 186.801C222.804 188.625 223.797 190.023 224.273 192.403C223.463 193.649 218.12 197.499 219.07 199.071C217.257 201.341 217.415 201.607 216.398 204.261C215.163 207.487 210.071 208.227 207.052 208.675C206.05 208.824 203.504 209.063 202.668 208.385C202.432 208.192 202.294 207.906 202.289 207.603C202.267 206.016 204.861 204.603 206.036 203.912C207.668 203.629 209.443 199.401 208.831 198.174C209.049 197.751 208.966 196.326 209.042 195.743C209.69 190.77 209.437 188.585 208.286 183.714C208.852 183.582 209.511 183.476 210.089 183.369C210.608 183.271 211.036 183.099 211.456 183.321L211.775 183.862C213.303 183.41 214.635 182.999 216.195 182.594L216.335 182.432C216.304 182.068 216.271 181.974 216.39 181.64C216.645 181.269 217.111 181.151 217.541 180.987C217.401 180.484 217.263 179.98 217.129 179.475Z" fill="#555554"/>
<path d="M193.824 77.3789C194.721 77.5824 195.845 77.9409 196.724 77.9474L196.854 78.1257C196.7 78.825 196.433 79.9923 196.447 80.6731C196.413 81.719 196.413 82.3315 196.866 83.3087C197.568 84.819 199.305 86.2756 200.957 86.5728C200.829 87.3567 200.477 89.2471 200.529 89.9379C200.203 92.681 199.789 95.1007 199.054 97.7855C198.429 100.068 197.663 102.313 197.13 104.611C195.996 104.169 194.96 103.964 193.793 103.415C193.752 102.44 193.762 101.393 193.77 100.416C193.836 92.7544 193.66 85.0363 193.824 77.3789Z" fill="#3C263A"/>
<path d="M196.725 77.9462C198.535 78.2315 201.321 77.5931 203.026 77.0156C210.89 74.3511 214.823 66.3295 217.802 59.214C217.996 58.7509 218.175 58.2886 218.42 57.8477C217.943 59.9656 217.736 62.1634 217.269 64.3039C216.098 69.6699 214.274 75.7892 209.337 78.9027C207.142 80.2866 204.669 80.8748 202.104 81.0483C200.938 81.1271 197.005 80.368 196.448 80.6719C196.434 79.991 196.701 78.8238 196.855 78.1244L196.725 77.9462Z" fill="#CCCCCD"/>
<path d="M187.525 73.6016C188.692 74.4477 190.844 75.9328 191.879 76.8296C191.995 78.819 193.815 95.8692 193.099 96.6428C192.209 97.604 190.833 97.1696 189.806 97.6863C189.73 96.9915 189.644 96.2665 189.605 95.5693C189.292 90.0405 188.612 84.5405 188.172 79.0204C188.022 77.1475 187.861 75.4525 187.525 73.6016Z" fill="#8A8484"/>
<path d="M236.886 86.6758L237.095 86.7225C237.114 86.931 237.136 87.1392 237.161 87.347L236.847 90.5094L236.734 90.4888L236.557 90.2305C236.731 88.9869 236.815 87.9266 236.886 86.6758Z" fill="#555554"/>
</g>
</g>
<defs>
<clipPath id="clip0_965_5798">
<rect width="376" height="176" fill="white"/>
</clipPath>
<clipPath id="clip1_965_5798">
<rect width="158" height="244" fill="white" transform="translate(112 -20)"/>
</clipPath>
</defs>
</svg>
