<svg width="376" height="176" viewBox="0 0 376 176" fill="none" xmlns="http://www.w3.org/2000/svg">
<g clip-path="url(#clip0_966_4327)">
<rect width="376" height="176" fill="#F2EEF4"/>
<path d="M138.224 227.41C137.131 227.468 136.038 227.496 134.945 227.492C130.972 227.483 127.664 225.998 124.849 223.219C121.894 220.3 121.137 216.987 120.705 212.993C120.254 208.83 119.828 204.652 119.371 200.487L116.755 178.59L109.165 112.419L102.548 55.5117C101.618 47.8956 100.517 40.2209 99.8929 32.5945C99.3498 25.9555 97.1289 17.7439 102.79 12.6943C110.172 6.11027 121.04 8.53217 129.913 9.267L161.65 12.0467L178.347 13.4465C181.008 13.6693 185.32 13.7592 187.755 14.4877C198.589 17.7292 198.92 28.5095 199.981 37.4057L201.947 53.8623C202.68 59.7008 204.863 72.8491 204.751 78.281C206.17 81.7849 209.404 79.6732 211.245 81.0258C215.122 83.8771 214.665 86.1216 220.31 83.3562L220.485 83.7531C224.451 81.2275 233.586 66.8161 237.845 66.7886C238.008 67.6692 238.054 68.0548 238.501 68.8322L238.593 68.9857L238.659 68.3701C241.905 70.0375 245.935 66.7175 248.013 64.4015L248.453 64.555C248.853 64.6474 249.489 64.7648 249.832 64.9455C245.385 69.4801 245.08 72.453 245.217 78.7457C245.35 84.7238 246.527 90.3534 247.085 96.25L247.593 100.973C246.94 101.272 245.953 101.776 245.286 101.889C245.121 102.324 244.999 102.879 244.691 103.148C244.162 103.614 241.892 103.257 241.251 103.01C236.871 102.387 235.665 103.788 233.164 107.075C227.494 105.948 226.848 104.895 228.084 99.1409C222.485 102.023 218.132 103.591 212.037 100.733L211.904 101.161C209.249 99.4899 207.053 97.4504 204.588 95.4952L212.434 159.165C213.482 167.682 215.199 178.281 215.812 186.722L218.666 186.554C219.506 192.851 220.49 199.48 220.841 205.741C221.177 211.708 217.356 217.763 211.309 218.853C208.18 219.417 204.753 219.832 201.5 220.234L157.988 225.282C152.488 225.889 144.867 227.066 139.664 227.389L138.224 227.41Z" fill="#3B2E42"/>
<path d="M211.588 187.01C212.853 186.974 213.397 186.806 214.372 187.462C214.743 188.09 215.048 191.938 215.114 193.113C215.443 198.96 218.394 206.268 213.992 211.239C213.066 212.285 210.988 213.721 209.701 213.934C203.374 214.983 196.91 215.413 190.535 216.193L163.756 219.253C157.03 220.058 150.454 221.039 143.636 221.502C139.622 221.774 138.092 221.225 134.878 218.587C133.24 217.245 132.292 214.046 132.004 211.941C130.937 204.12 130.332 196.129 129.429 188.281L122.572 128.165L115.794 68.834L112.358 38.7497C111.728 33.2944 110.821 27.896 110.458 22.3888C110.251 19.2478 110.856 17.6982 112.946 15.2951C114.068 13.8619 116.21 13.2417 118.102 13.2422C120.78 13.2428 125.497 13.5267 128.043 14.0899C129.548 14.4229 130.522 19.8163 132.314 20.8023C133.109 21.2396 133.691 22.0307 134.898 22.0498C140.942 22.714 147.99 23.3448 154.036 23.6502C159.62 23.9322 168.242 25.1114 173.429 24.9069C174.849 24.0168 175.325 23.4311 176.254 22.123L176.383 18.0109C178.694 17.9608 181.236 18.3808 183.547 18.5595C194.694 19.4222 194.544 28.9511 195.666 37.4497C196.724 45.441 197.691 53.4442 198.563 61.4575C198.759 63.0916 199.703 68.4608 199.586 69.4559C199.072 69.1361 198.403 68.6 197.864 68.6455L198.065 69.0108L199.746 70.5047C199.996 71.4629 200.288 72.737 200.606 73.6478L201.158 73.876C201.621 75.4468 201.909 76.9155 201.838 78.5709L202.288 78.9146L202.964 79.1765C201.453 80.3564 199.334 82.4574 198.085 83.9243C200.377 85.8317 201.016 86.5284 201.288 89.6502C201.311 89.8946 201.326 90.1392 201.334 90.3841L200.683 90.1456L200.347 90.3468L199.749 90.6572C200.782 100.573 202.117 110.192 203.338 120.052L208.554 163.014C209.518 170.955 210.917 179.017 211.588 187.01Z" fill="#FAFAF9"/>
<path d="M199.021 85.4041C196.848 83.3084 198.741 83.5688 197.953 82.4383C196.678 80.604 189.077 76.4202 189.993 73.9226C192.175 72.5177 193.114 75.2732 194.714 75.1888C195.744 72.318 190.097 69.199 189.814 66.5464L190.132 66.205C191.992 66.0256 195.869 68.3873 197.65 69.3751L198.064 69.009L199.746 70.5028C199.995 71.4611 200.288 72.7352 200.606 73.646L201.158 73.8741C201.621 75.4449 201.908 76.9136 201.837 78.569L202.287 78.9128L202.964 79.1747C201.453 80.3545 199.334 82.4556 198.085 83.9225C200.377 85.8299 201.015 86.5265 201.288 89.6483C201.311 89.8927 201.326 90.1374 201.333 90.3823L200.682 90.1437L200.346 90.3449L199.749 90.6554L199.021 85.4041Z" fill="#C29787"/>
<path d="M199.021 85.4041C196.848 83.3084 198.741 83.5688 197.953 82.4383C196.678 80.604 189.077 76.4202 189.993 73.9226C192.175 72.5177 193.114 75.2732 194.714 75.1888C195.744 72.318 190.097 69.199 189.814 66.5464L190.132 66.205C191.992 66.0256 195.869 68.3873 197.65 69.3751L198.064 69.009L199.746 70.5028C199.995 71.4611 200.288 72.7352 200.606 73.646L201.158 73.8741C201.621 75.4449 201.908 76.9136 201.837 78.569C200.013 76.5882 199.466 73.3482 198.054 71.033C197.108 69.478 192.325 66.4999 190.59 66.7177C190.623 69.2079 195.121 69.8784 195.487 76.8252C193.925 75.6317 192.964 74.7039 191.051 74.2057L190.728 74.4239C191.224 76.5844 197.019 80.8858 198.823 82.1677C200.069 81.0595 201.125 80.1073 202.287 78.9128L202.964 79.1747C201.453 80.3545 199.334 82.4556 198.085 83.9225C200.377 85.8299 201.015 86.5265 201.288 89.6483C201.311 89.8927 201.326 90.1374 201.333 90.3823L200.682 90.1437L200.346 90.3449L199.749 90.6554L199.021 85.4041Z" fill="#1F1B20"/>
<path d="M198.065 69.0117L199.747 70.5056C199.996 71.4638 200.288 72.7379 200.606 73.6487C200.706 74.5036 200.792 75.3598 200.866 76.2172C200.011 73.8865 199.189 71.3213 197.65 69.3778L198.065 69.0117Z" fill="#AC887E"/>
<path d="M200.347 90.3451C200.258 89.8827 199.854 87.552 199.976 87.2525L200.268 87.207C200.502 87.944 200.599 89.3294 200.683 90.1439L200.347 90.3451Z" fill="#5B585A"/>
<path d="M150.875 76.9635C151.965 73.2467 152.185 68.8071 151.942 65.0484C151.199 56.9555 154.356 48.6705 164.213 51.0066C176.709 53.9676 167.431 68.234 173.278 76.6632C174.816 77.3487 176.902 78.2755 177.394 80.0373C178.739 84.8534 179.251 90.1167 179.546 95.103C179.685 97.454 179.513 99.8042 179.808 102.145C180.817 108.432 182.466 114.529 183.736 120.774C184.212 123.12 185.695 126.912 184.603 129.21C183.975 130.528 182.871 132.108 181.51 132.704C180.71 132.616 180.986 132.763 180.473 132.161C180.418 130.988 181.151 129.981 180.955 129.754C179.319 127.862 180.172 122.616 179.685 121.232C178.349 117.439 176.846 113.305 175.535 109.459L174.948 108.899C175.928 113.818 177.617 121.523 177.663 126.333C177.727 132.999 176.596 140.523 176.238 147.266C176.119 149.506 176.925 155.126 176.666 156.565C175.674 157.281 175.025 156.866 175.021 157.765C175.012 160.604 175.581 168.346 174.336 170.763C172.526 170.615 170.088 170.924 168.23 171.099C166.869 170.271 167.005 160.53 167.106 158.45L163.555 158.55C163.701 160.44 164.602 170.531 163.785 171.474L157.533 171.999C156.253 171.196 155.474 164.142 155.437 162.47C155.415 161.45 155.702 158.71 155.42 158.055C154.868 157.923 154.767 157.893 154.273 157.615C153.944 156.102 153.965 150.381 153.68 148.076C152.852 141.36 151.494 135.115 150.783 128.41L150.488 128.537L150.273 129.776C150.26 130.841 150.434 130.758 149.901 131.449L148.403 131.442C148.688 132.538 149.744 132.664 150.307 133.999L150.116 134.409L149.366 134.644C148.513 134.501 147.977 134.248 147.305 133.718C142.443 129.884 145.462 126.12 144.98 122.471L144.967 122.373C144.235 119.343 145.2 112.015 145.437 108.73C145.646 105.834 146.656 102.543 146.727 99.4849C146.866 93.4755 145.99 87.4148 147.14 81.4648C147.628 79.0216 148.938 78.186 150.875 76.9635Z" fill="#DBD9D9"/>
<path d="M150.873 76.9635C151.964 73.2467 152.183 68.8071 151.94 65.0484C151.197 56.9555 154.354 48.6705 164.211 51.0066C176.708 53.9676 167.43 68.234 173.277 76.6632L172.99 77.1236C172.221 76.9267 171.546 76.6472 170.807 76.3604C170.824 76.2108 170.722 76.1 170.627 75.9155C169.922 75.6523 169.658 75.8027 168.96 76.0319C167.44 75.9133 166.414 75.0157 165.29 74.0655L165.245 72.8867C165.151 70.965 162.085 70.9793 160.048 69.6193L159.223 68.751C159.241 70.1089 159.303 71.8065 159.237 73.1357C158.532 74.1715 157.792 75.3582 156.465 75.6036C155.252 75.8388 155.622 75.6272 154.718 76.3711C153.766 76.9432 152.242 77.3273 151.142 77.6578L150.873 76.9635Z" fill="#3B2E42"/>
<path d="M158.762 67.3352L158.644 67.138C157.516 65.2804 155.101 64.4913 156.096 62.0635C158.506 61.5021 159.476 62.6578 162.209 59.8154C163.406 58.5708 164.6 55.9553 166.164 56.2772C167.844 57.6303 168.472 59.9097 168.851 61.8618C169.265 63.9982 167.615 68.4362 167.655 69.1644C167.382 71.5171 165.932 70.6866 165.245 72.8878C165.151 70.9661 162.085 70.9803 160.048 69.6204L159.223 68.752C159.131 69.0998 159.011 69.3554 158.871 69.6826L158.62 69.421C158.473 68.5404 158.313 68.0971 158.762 67.3352Z" fill="#C29787"/>
<path d="M159.224 68.7528C159.132 69.1006 159.012 69.3562 158.872 69.6834L158.621 69.4217C158.474 68.5412 158.314 68.0978 158.763 67.3359C161.29 70.5022 164.19 72.419 167.584 69.2345L167.656 69.1651C167.383 71.5179 165.933 70.6874 165.246 72.8885C165.152 70.9669 162.086 70.9811 160.049 69.6212L159.224 68.7528Z" fill="#1F1B20"/>
<path d="M173.277 76.6641C174.815 77.3495 176.901 78.2763 177.393 80.0382C178.738 84.8543 179.249 90.1175 179.545 95.1038C179.684 97.4548 179.511 99.8051 179.806 102.146C180.816 108.433 182.465 114.53 183.734 120.775C184.21 123.12 185.693 126.913 184.602 129.211C183.974 130.529 182.869 132.109 181.508 132.705C180.708 132.617 180.984 132.764 180.471 132.162C180.417 130.989 181.149 129.981 180.953 129.755C179.317 127.863 180.171 122.617 179.683 121.233C178.348 117.439 176.845 113.306 175.534 109.46L174.946 108.9C175.927 113.818 177.615 121.523 177.662 126.333C177.726 133 176.595 140.524 176.237 147.267C176.118 149.507 176.924 155.126 176.665 156.566C175.673 157.282 175.023 156.867 175.02 157.766C175.01 160.605 175.58 168.347 174.334 170.764C172.524 170.616 170.086 170.925 168.229 171.1C166.867 170.272 167.003 160.531 167.104 158.451L163.554 158.551C163.7 160.441 164.6 170.531 163.784 171.475L157.531 172C156.251 171.197 155.472 164.143 155.436 162.471C155.414 161.451 155.701 158.711 155.418 158.056C154.866 157.924 154.765 157.894 154.272 157.616C153.943 156.103 153.963 150.382 153.679 148.077C152.851 141.36 151.492 135.116 150.781 128.411C150.252 125.498 150.243 123.07 150.511 120.13C150.685 121.673 150.88 126.159 151.187 127.226C151.293 128.99 151.626 130.693 151.734 132.368C153.25 140.848 154.792 148.677 154.65 157.381C162.754 158.156 168.293 158.517 176.347 156.27C174.557 145.21 177.193 137.187 177.098 126.273C177.029 118.311 173.802 109.205 173.05 101.16C172.592 96.2707 174.237 95.0489 175.224 90.606C175.521 88.9064 173.826 86.1499 173.657 84.7323L173.888 84.6556C176.241 89.209 176.576 90.9302 173.943 95.4199C175.238 100.518 175.075 105.583 176.572 110.612C177.57 113.963 178.59 116.973 179.969 120.185C180.903 119.993 181.969 119.897 182.925 119.786C181.824 115.225 179.648 105.864 179.069 101.296C178.312 95.3114 179.153 86.3788 176.705 80.1073C176.022 78.3584 174.623 77.7524 172.991 77.1244L173.277 76.6641Z" fill="#3F3B3F"/>
<path d="M156.252 158.102C158.659 158.349 160.564 158.516 163.001 158.583C163.124 160.726 163.429 169.938 163.785 171.475L157.533 172.001C157.532 171.643 156.816 167.932 156.671 167.138C156.034 163.651 156.097 161.567 156.252 158.102Z" fill="#C29787"/>
<path d="M172.414 157.807C173.288 157.607 173.541 157.378 174.219 157.683C175.394 160.85 173.896 168.352 174.334 170.765C172.524 170.616 170.086 170.926 168.229 171.1C168.194 169.572 167.783 166.888 167.645 165.148C167.653 163.581 167.637 162.013 167.598 160.446C170.087 159.719 170.539 159.586 172.414 157.807Z" fill="#C29787"/>
<path d="M174.947 108.903C173.937 104.077 173.137 101.334 173.666 96.4141C174.274 99.8311 174.915 106.947 175.535 109.463L174.947 108.903Z" fill="#DBD9D9"/>
<path d="M167.598 160.448C167.639 159.365 167.478 159.394 167.974 158.579C169.134 157.982 170.959 157.99 172.414 157.809C170.539 159.588 170.087 159.72 167.598 160.448Z" fill="#AC887E"/>
<path d="M167.598 160.445C167.637 162.012 167.653 163.58 167.645 165.147C167.325 163.61 167.256 161.984 167.598 160.445Z" fill="#997265"/>
<path d="M180.496 120.47C180.99 120.434 182.47 120.233 182.778 120.685C184.147 122.695 184.302 125.394 184.185 127.747C184.106 129.327 183.111 131.917 181.135 131.672C181.004 131.036 181.099 131.155 181.544 130.476C181.733 130.175 181.913 129.871 182.089 129.563C182.725 128.445 183.361 125.941 181.957 125.229C181.583 125.777 181.261 128.705 181.091 129.68C180.552 126.181 180.032 124.005 180.496 120.47Z" fill="#C29787"/>
<path d="M153.036 90.0078C153.882 94.2805 156.522 99.1825 156.917 102.71C157.211 105.328 153.92 111.738 153.194 115.645C152.71 118.357 152.477 121.107 152.497 123.862C152.516 125.341 152.737 130.183 152.465 131.384L151.735 132.37C151.627 130.694 151.294 128.991 151.188 127.227C150.881 126.16 150.687 121.674 150.512 120.132C150.245 123.072 150.253 125.499 150.783 128.412L150.488 128.539L150.273 129.778C150.26 130.843 150.434 130.76 149.901 131.451L148.403 131.444C148.688 132.54 149.744 132.666 150.307 134.002L150.116 134.411L149.366 134.646C148.513 134.503 147.977 134.25 147.305 133.721C142.443 129.887 145.462 126.122 144.98 122.473L144.967 122.375L145.375 122L148.503 121.979C149.419 119.443 149.806 116.756 150.37 114.129C152.067 106.221 152.881 98.0946 153.036 90.0078Z" fill="#1F1B20"/>
<path d="M149.648 120.183C151.18 112.618 153.023 105.165 153.134 97.4354C153.157 95.859 153.208 94.2808 153.229 92.7031C157.665 105.819 156.826 100.136 153.398 112.868C152.593 115.778 152.049 118.753 151.773 121.759C151.083 122.914 151.964 125.99 151.187 127.227C150.88 126.159 150.685 121.673 150.511 120.131L149.648 120.183Z" fill="#FAFAF9"/>
<path d="M150.272 129.779C150.106 127.206 149.803 124.972 148.941 122.524C148.965 122.592 149.611 120.319 149.648 120.185L150.511 120.133C150.243 123.073 150.252 125.5 150.781 128.413L150.487 128.54L150.272 129.779Z" fill="#DBD9D9"/>
<path d="M151.188 127.226C151.964 125.989 151.084 122.913 151.773 121.758C151.857 124.135 151.88 129.339 152.464 131.382L151.734 132.368C151.626 130.693 151.294 128.99 151.188 127.226Z" fill="#DBD9D9"/>
<path d="M145.839 122.478C146.593 122.47 146.83 122.494 147.565 122.605C149.69 123.996 150.121 128.69 149.484 130.965H148.962C148.216 129.896 149.107 128.725 148.167 127.625L147.585 127.655C146.846 128.527 147.226 129.986 147.386 131.056C148.071 132.342 148.861 132.757 149.357 134.028L149.01 134.103C148.402 133.82 147.844 133.559 147.368 133.1C143.185 129.057 145.997 126.163 145.845 122.602L145.839 122.478Z" fill="#C29787"/>
<path d="M159.223 68.7539L160.049 69.6223C162.085 70.9822 165.151 70.968 165.246 72.8896L165.29 74.0685C166.415 75.0186 167.44 75.9162 168.96 76.0348C169.056 80.272 167.625 84.9138 165.945 88.7579C164.281 86.8365 156.626 78.1094 155.768 76.4141L156.465 75.6065C157.792 75.3611 158.532 74.1744 159.237 73.1386C159.304 71.8094 159.241 70.1118 159.223 68.7539Z" fill="#C29787"/>
<path d="M160.049 69.6211C162.086 70.981 165.152 70.9668 165.246 72.8885L165.291 74.0673C163.398 73.3437 159.949 72.0778 160.049 69.6211Z" fill="#997265"/>
<path d="M150.873 76.9648L151.142 77.6592C149.747 78.2432 148.414 79.1276 147.974 80.6489C146.369 86.5483 147.323 92.9647 147.29 99.0193C147.274 101.871 146.238 105.181 146.178 107.848C146.09 111.721 144.926 118.397 145.373 121.999L144.965 122.374C144.233 119.345 145.198 112.016 145.435 108.732C145.644 105.836 146.654 102.545 146.725 99.4862C146.864 93.4768 145.988 87.4161 147.138 81.4662C147.626 79.0229 148.937 78.1874 150.873 76.9648Z" fill="#1F1B20"/>
<path d="M154.719 76.373C155.622 75.6291 155.252 75.8407 156.466 75.6055L155.768 76.4131C156.626 78.1084 164.281 86.8354 165.945 88.7568C167.626 84.9127 169.056 80.2709 168.961 76.0338C169.658 75.8046 169.923 75.6542 170.627 75.9174C170.722 76.1019 170.825 76.2127 170.808 76.3623C170.439 76.373 170.15 76.4657 169.793 76.5554C168.315 82.565 168.961 83.4319 166.016 89.832C164.814 88.0312 162.03 84.9092 160.547 83.1656C158.782 81.0897 156.558 78.2255 154.719 76.373Z" fill="#1F1B20"/>
<path d="M156.539 94.5195C159.415 95.409 160.236 95.6422 162.967 94.783L163.143 95.0502C160.493 96.3259 158.947 96.1673 156.539 94.5195Z" fill="#1F1B20"/>
<path d="M184.552 30.6211C186.579 30.6368 186.259 30.9813 187.617 32.3858C188.869 33.6786 190.751 38.2676 189.533 39.8478L188.581 39.9126C187.312 39.9243 183.923 40.139 183.107 39.3885C182.639 38.1258 182.298 34.108 182.796 32.9757L183.75 32.6337C183.984 31.6889 184.094 31.4861 184.552 30.6211Z" fill="#5B585A"/>
<path d="M183.15 33.1289C183.629 33.2882 183.901 33.6914 184.252 34.0811C184.799 33.8598 185.15 33.355 185.732 33.2415C187.124 32.9711 186.653 33.809 187.406 34.3278L187.801 33.5235L188.101 33.6129C188.727 34.8428 188.933 36.6117 189.177 38.0034L189.213 39.0049L188.856 39.3695C187.33 39.6888 184.939 39.3697 183.288 39.2628C183.171 37.3785 183.189 35.0483 183.15 33.1289Z" fill="#FAFAF9"/>
<path d="M184.471 31.1294C184.979 31.122 185.465 31.1998 185.969 31.262C186.758 31.9187 186.529 31.7409 186.915 32.8067C186.251 32.7998 185.587 32.7696 184.926 32.7162C184.326 32.089 184.511 32.2302 184.471 31.1294Z" fill="#FAFAF9"/>
<path d="M169.699 175.121C170.436 175.477 170.64 176.381 171.115 176.77C171.305 176.926 172.044 176.55 172.677 177.16C171.283 178.503 171.482 178.326 171.889 180.12C171.343 180.317 171.171 180.145 170.521 179.963C170.031 179.871 169.401 180.265 168.914 180.497C168.509 178.464 168.886 179.011 167.461 177.574C167.867 176.33 168.862 178.644 169.699 175.121Z" fill="#3B2E42"/>
<path d="M163.362 175.711C164.772 176.53 162.854 177.142 165.983 177.445C166.194 178.694 164.631 177.433 165.478 180.663C164.921 180.891 164.606 180.645 163.894 180.433C163.104 180.621 162.981 181.129 162.255 180.925C162.399 179.186 162.517 179.441 161.225 178.376C161.95 177.113 162.459 178.027 163.362 175.711Z" fill="#3B2E42"/>
<path d="M176.2 174.656C176.661 174.935 177.153 175.685 177.484 176.152L178.977 176.391L179.043 176.749C177.213 178.395 178.596 177.98 178.221 179.712C177.862 179.676 177.303 179.122 176.99 178.859C176.755 178.934 175.664 179.714 175.401 179.901C174.565 179.165 175.72 178.815 174.311 177.49C174.312 177.467 175.731 175.651 176.2 174.656Z" fill="#DBD9D9"/>
<path d="M182.709 174.188C184.118 175.997 184.803 175.276 185.276 176.325L184.444 177.372C184.436 177.927 184.569 178.404 184.683 178.947C184.06 178.824 183.643 178.67 183.047 178.467L181.712 179.282L181.478 179.214L181.564 177.687L180.631 176.777C180.497 175.844 181.554 176.318 182.658 174.283L182.709 174.188Z" fill="#DBD9D9"/>
<path d="M190.912 106.801L191.314 106.773C192.83 108.01 193.728 109.018 195.056 110.467C193.863 112.028 193.011 113.117 191.66 114.534L191.431 114.553C191.436 113.96 193.771 111.144 194.303 110.448C193.474 109.623 191.421 107.69 190.912 106.801Z" fill="#BCBABA"/>
<path d="M131.929 107.172L132.128 107.452C131.004 108.914 129.905 110.18 128.691 111.57C129.889 112.932 132.945 115.205 133.181 116.432C131.238 114.77 129.722 113.476 127.941 111.621C129.237 110.417 130.614 108.572 131.929 107.172Z" fill="#5B585A"/>
<path d="M117.482 28.5628C118.795 28.1893 122.906 28.4411 124.427 28.5145C125.38 28.5605 125.561 28.656 126.079 29.2718C125.004 29.518 118.591 29.157 117.482 28.5628Z" fill="#5B585A"/>
<path d="M117.578 31.1137C119.091 30.8483 122.135 31.0213 123.747 31.1178C124.961 31.1905 125.419 31.1061 126.117 31.9125C124.773 32.0616 118.865 31.7181 117.578 31.1137Z" fill="#5B585A"/>
<path d="M117.867 33.9078C119.312 33.6748 125.017 33.7902 126.311 34.4319C124.957 34.6507 119.173 34.4985 117.867 33.9078Z" fill="#3F3B3F"/>
<path d="M248.013 64.4023L248.454 64.5558C248.853 64.6483 249.489 64.7656 249.832 64.9463C245.386 69.4809 245.08 72.4538 245.218 78.7465C245.35 84.7246 246.528 90.3542 247.085 96.2508L247.594 100.974C246.94 101.273 245.953 101.777 245.286 101.89C245.121 102.324 244.999 102.88 244.691 103.149C244.162 103.615 241.893 103.257 241.252 103.01C236.871 102.388 235.665 103.789 233.164 107.076C227.494 105.949 226.848 104.896 228.084 99.1417C222.485 102.024 218.132 103.591 212.037 100.734L211.274 100.24C208.717 98.3963 204.166 94.6889 202.011 92.3338C201.775 92.0742 201.439 90.796 201.335 90.3852C201.327 90.1403 201.312 89.8957 201.289 89.6513C201.017 86.5294 200.378 85.8328 198.086 83.9254C199.335 82.4585 201.454 80.3574 202.965 79.1776L203.957 78.5669L204.751 78.2818C206.171 81.7857 209.404 79.674 211.246 81.0266C215.123 83.8779 214.665 86.1224 220.31 83.3571L220.485 83.7539C224.451 81.2283 233.587 66.8169 237.845 66.7894C238.008 67.67 238.054 68.0556 238.502 68.833L238.593 68.9865L238.659 68.3709C241.905 70.0383 245.935 66.7183 248.013 64.4023Z" fill="#FAFAF9"/>
<path d="M211.273 100.239C214.273 99.7135 215.402 100.563 219.432 98.9805C224.354 97.0467 226.939 90.2357 228.934 85.4336C229.768 91.5848 229.531 93.1424 228.084 99.1411C222.485 102.023 218.132 103.591 212.037 100.733L211.273 100.239Z" fill="#DBD9D9"/>
<path d="M241.252 103.01C244.849 101.019 244.915 98.0025 247.085 96.25L247.594 100.973C246.94 101.272 245.953 101.776 245.287 101.889C245.121 102.324 244.999 102.879 244.691 103.148C244.162 103.614 241.893 103.257 241.252 103.01Z" fill="#DBD9D9"/>
<path d="M203.957 78.5663L204.751 78.2812C206.17 81.7852 209.404 79.6735 211.245 81.0261C215.122 83.8773 214.665 86.1219 220.31 83.3565L220.485 83.7533C214.405 87.0873 214.336 83.387 209.854 80.7824C206.9 80.9885 205.753 81.1584 203.957 78.5663Z" fill="#3F3B3F"/>
<path d="M248.012 64.4023L248.452 64.5558C246.496 67.264 242.049 70.4819 238.592 68.9865L238.658 68.3709C241.904 70.0383 245.934 66.7183 248.012 64.4023Z" fill="#1F1B20"/>
<path d="M138.224 227.41L138.565 227.013C137.498 226.201 136.231 225.93 135.046 225.349C128.147 221.967 127.707 215.688 127.022 209.202C126.576 204.865 126.103 200.531 125.604 196.2L119.258 140.441L114.589 100.303C113.744 92.8581 113.048 85.2812 112.123 77.8608L108.759 49.3994C107.607 40.0964 106.532 30.8095 105.667 21.4742C105.167 16.0851 106.119 13.0385 110.575 9.78125C106.448 14.6842 105.664 15.6199 106.279 22.414C107.268 33.3525 108.804 44.1821 110.034 55.078L119.689 139.417L125.859 193.658C126.721 200.955 127.251 208.576 128.381 215.798C129.073 220.215 132.905 224.006 136.851 225.64C137.77 226.043 140.034 226.193 140.417 226.666C140.164 226.905 139.914 227.146 139.664 227.39L138.224 227.41Z" fill="#1F1B20"/>
<path d="M107.65 73.3281C111.675 73.6706 110.504 84.6968 111.237 87.8692C111.474 88.8933 110.918 89.8566 110.193 90.5746C109.825 90.5014 109.024 90.4074 108.858 90.0637C107.104 86.4294 107.267 79.5575 106.725 75.3916C106.575 74.2374 107.162 73.8395 107.65 73.3281Z" fill="#1F1B20"/>
<path d="M107.827 73.7383C108.335 73.8945 108.438 73.974 108.898 74.2525C109.286 74.8805 109.65 76.4501 109.653 77.1835C109.663 80.1567 111.628 87.9638 109.947 90.106L109.232 89.6789C109.089 89.3954 108.829 88.8047 108.755 88.3591C108.021 83.9751 107.372 79.047 107.283 74.6084C107.51 74.2454 107.692 73.9552 107.827 73.7383Z" fill="#3B2E42"/>
<path d="M104.936 53.2993C105.728 53.2899 105.952 53.2578 106.708 53.5238C107.178 54.0352 107.558 54.5055 107.572 55.2481C107.628 58.2299 110.021 68.4244 108.648 70.4863C107.794 70.4654 107.516 70.4949 106.713 70.1791C105.458 69.0714 104.555 56.8649 104.432 54.6633C104.413 54.3152 104.744 53.6285 104.936 53.2993Z" fill="#1F1B20"/>
<path d="M105.427 53.6875C106.673 53.937 107.114 54.6275 107.152 55.8734C107.235 58.5346 109.192 68.1851 107.778 70.2099C106.993 69.7031 106.661 69.5362 106.505 68.5344C105.788 63.9358 105.152 59.1741 104.963 54.5284C104.963 54.5284 105.398 53.7401 105.427 53.6875Z" fill="#3B2E42"/>
<path d="M149.846 19.4883L149.734 19.4797C144.532 19.0559 147.9 15.8414 154.141 17.1519C155.647 17.2288 157.73 17.1466 158.984 17.7972C159.585 18.6113 159.702 18.9462 159.176 19.9323C157.912 20.324 151.854 19.5181 149.846 19.4883Z" fill="#2C232F"/>
<path d="M149.846 19.4888C151.665 18.3147 157.398 20.1756 158.904 19.2175L158.918 18.6596C157.638 17.3128 154.064 17.9945 153.386 17.3366L154.141 17.1523C155.646 17.2292 157.729 17.1471 158.983 17.7977C159.585 18.6118 159.701 18.9467 159.176 19.9328C157.912 20.3245 151.854 19.5186 149.846 19.4888Z" fill="#1F1B20"/>
<path d="M103.184 37.4414L104.446 37.5971C106.28 38.6753 106.523 44.5801 105.892 46.3783C105.315 46.4225 105.033 46.3844 104.456 46.3216C102.547 45.1423 102.565 39.359 103.184 37.4414Z" fill="#1F1B20"/>
<path d="M103.651 37.9766C105.688 38.8663 106.095 44.4181 105.321 46.1398C104.648 45.8693 104.332 45.8939 104.086 45.1422C103.6 43.6608 103.061 39.3241 103.651 37.9766Z" fill="#3B2E42"/>
<path d="M162.65 17.3918C163.543 17.127 164.485 17.6202 164.775 18.5044C165.064 19.3886 164.596 20.3423 163.719 20.6557C163.13 20.8661 162.473 20.7405 162.003 20.3275C161.534 19.9146 161.326 19.2794 161.46 18.6692C161.595 18.0588 162.05 17.5697 162.65 17.3918Z" fill="#1F1B20"/>
<path d="M163.082 17.9864C163.659 17.9523 164.167 18.3605 164.258 18.9301C164.348 19.4997 163.991 20.045 163.433 20.1909C163.019 20.299 162.58 20.163 162.3 19.8402C162.019 19.5174 161.948 19.0638 162.114 18.6702C162.28 18.2767 162.655 18.0116 163.082 17.9864Z" fill="#3B2E42"/>
<path d="M212.037 100.733C218.132 103.59 222.485 102.023 228.084 99.1406C226.847 104.895 227.494 105.948 233.164 107.075C235.665 103.788 236.871 102.387 241.251 103.009C241.892 103.256 244.162 103.614 244.691 103.148C244.998 102.879 245.121 102.323 245.286 101.889L245.571 102.34C245.456 103.666 246.929 106.909 247.324 108.715C248.517 108.53 250.119 108.236 251.282 108.144L253.144 109.322C252.6 110.912 256.118 120.712 256.805 123.005C257.197 125.073 256.96 128.563 257.716 129.513L257.904 130.37L258.26 130.358L258.776 130.126C259.639 136.965 260.425 143.813 261.13 150.67C261.394 153.197 262.089 161.178 262.679 163.267C267.881 168.834 270.644 174.157 272.944 181.329C273.407 182.774 275.78 190.795 276.325 191.298C276.335 193.174 272.661 196.502 270.906 196.308L269.659 197.152L269.914 197.365C268.741 199.329 269.949 198.713 269.794 200.211C268.286 198.367 269.123 198.868 268.616 196.717C268.517 196.29 267.39 194.603 267.088 194.13C263.49 188.483 259.926 182.815 256.393 177.126C254.124 173.485 250.753 168.383 249.104 164.596C247.057 159.898 245.604 153.375 243.729 148.666C243.368 152.363 241.094 160.741 241.076 163.653C241.055 167.19 243.045 173.571 243.281 178.27C243.442 181.498 242.633 193.537 242.93 194.696C243.976 194.625 243.635 194.514 244.515 194.988C245.772 196.701 243.632 200.289 244.228 202.826C244.963 202.046 245.84 201.023 247.013 201.073C248.117 202.76 245.97 204.724 244.897 205.839C245.881 212.181 248.954 214.224 247.57 221.856L247.507 227.222L242.266 227.349C240.506 227.609 238.443 227.504 236.675 227.411C236.184 227.556 235.685 227.682 235.184 227.79C232.983 228.255 226.306 228.052 224.349 226.79C222.678 224.219 228.956 222.526 230.813 221.494C232.442 218.64 233.818 214.274 234.255 210.985C234.418 209.77 234.034 206.298 234.566 205.609C235.296 204.535 235.049 203.876 234.68 202.683C233.808 199.853 234.187 196.62 233.627 193.817C229.559 173.436 226.252 152.933 227.832 132.065C228.389 124.725 228.883 117.077 229.816 109.734C230.096 107.512 227.6 105.678 227.173 103.592C227.005 102.775 227.168 101.048 227.221 100.161C220.897 102.931 218.485 104.065 211.904 101.161L212.037 100.733Z" fill="#3F3B3F"/>
<path d="M247.323 108.715C248.516 108.531 250.118 108.236 251.281 108.145L253.143 109.322C252.599 110.912 256.117 120.713 256.804 123.005C257.196 125.073 256.959 128.563 257.715 129.514L257.903 130.37L258.259 130.358L258.775 130.127C259.638 136.965 260.424 143.814 261.129 150.67C261.393 153.197 262.088 161.178 262.678 163.268C267.88 168.834 270.643 174.158 272.943 181.329C273.406 182.774 275.779 190.795 276.324 191.298C276.334 193.175 272.66 196.502 270.905 196.308L269.658 197.153C262.904 187.404 256.061 175.731 250.06 165.443C248.203 162.259 245.499 152.337 244.29 148.472C240.617 136.718 235.277 124.954 235.028 112.509C234.997 110.638 237.032 112.033 238.851 110.316L239.022 110.153C240.739 108.643 243.168 109.805 244.682 111.116L244.982 110.917L246.72 111.888C247.297 110.51 247.488 110.463 247.078 109.206L247.501 109.296L247.323 108.715Z" fill="#DBD9D9"/>
<path d="M247.324 108.715C248.517 108.531 250.12 108.236 251.283 108.145L253.145 109.322C252.6 110.912 256.119 120.713 256.805 123.005C257.197 125.073 256.961 128.563 257.716 129.514L257.904 130.37C251.023 130.494 249.733 128.591 249.286 122.338C249.115 119.858 249.11 117.128 249.054 114.626C248.087 113.635 245.867 112.022 244.684 111.116L244.984 110.917L246.721 111.888C247.299 110.51 247.49 110.463 247.08 109.206L247.502 109.296L247.324 108.715Z" fill="#3B2E42"/>
<path d="M247.502 109.297L248.573 109.262C249.57 110.333 249.013 112.42 249.064 113.891C248.303 113.254 247.438 112.561 246.721 111.889C247.298 110.511 247.489 110.464 247.079 109.207L247.502 109.297Z" fill="#DBD9D9"/>
<path d="M239.023 110.154C240.741 108.644 243.17 109.806 244.684 111.117C245.867 112.023 248.087 113.636 249.054 114.627C249.11 117.128 249.115 119.859 249.286 122.339C249.085 121.269 239.942 110.68 239.023 110.154Z" fill="#BCBABA"/>
<path d="M258.26 130.356L258.776 130.125C259.639 136.964 260.425 143.812 261.129 150.669C261.394 153.195 262.088 161.176 262.679 163.266C267.881 168.833 270.644 174.156 272.943 181.328C273.406 182.773 275.78 190.794 276.324 191.297C276.334 193.173 272.661 196.5 270.906 196.306C273.17 194.771 274.208 194.23 275.742 191.971C273.551 184.781 271.46 177.395 267.906 170.731C266.734 168.532 262.694 164.642 262.226 162.806C261.262 159.038 260.9 153.23 260.476 149.262L258.26 130.356Z" fill="#3F3B3F"/>
<path d="M230.528 109.246C231.543 109.541 233.963 109.991 234.179 111.13C235.227 116.649 234.955 121.744 236.675 127.227C236.316 129.759 240.206 157.077 241.35 159.092C241.185 159.901 240.569 162.893 240.597 163.571C240.788 168.136 242.231 171.622 242.462 176.418C242.76 182.601 242.676 189.536 242.101 195.658C240.203 196.571 239.758 196.722 237.685 197.251L234.708 197.8C234.278 193.153 232.897 188.327 232.162 183.718C231.246 177.964 230.488 172.149 229.577 166.393C226.593 147.534 228.201 128.096 230.528 109.246Z" fill="#DBD9D9"/>
<path d="M236.674 127.227C238.772 133.605 241.156 141.284 243.441 147.465C242.672 151.328 241.975 155.204 241.349 159.092C240.205 157.077 236.315 129.759 236.674 127.227Z" fill="#BCBABA"/>
<path d="M244.983 110.918C244.767 110.666 244.599 110.413 244.408 110.142L244.665 109.691C245.344 109.326 246.293 109.292 247.079 109.207C247.489 110.464 247.298 110.511 246.721 111.889L244.983 110.918Z" fill="#DBD9D9"/>
<path d="M237.946 103.386C239.462 103.288 243.23 103.863 245.189 103.932L246.651 108.381C245.725 108.771 244.822 109.094 243.878 109.435C242.296 109.01 241.301 108.783 239.686 108.536C236.898 111.959 236.107 111.064 232.611 109.232C234.382 106.144 234.847 105.163 237.946 103.386Z" fill="#C29787"/>
<path d="M229.859 106.84C231.012 106.997 231.968 106.948 232.701 107.725L232.513 108.585C231.757 109.078 231.635 109.004 230.9 108.897C230.205 108.365 230.109 107.687 229.859 106.84Z" fill="#DBD9D9"/>
<path d="M249.832 64.9453C250.504 65.832 251.112 65.2352 252.056 66.1035C255.928 67.0197 259.192 71.8424 261.163 75.0389C262.199 76.7471 263.214 78.4676 264.211 80.1992L265.122 80.5684C265.59 81.781 266.195 83.9524 267.314 84.6071C268.281 85.1726 271.143 84.7798 271.395 85.3118L271.085 84.9899L271.156 85.5801C270.049 86.3384 269.398 86.7675 268.187 87.3951C270.675 94.5637 271.955 97.9899 275.386 104.649C277.574 105.74 279.706 109.878 280.925 112.011C280.632 112.272 280.1 112.778 279.798 112.975C278.887 112.972 278.767 112.988 277.923 113.32L277.663 113.677C278.096 114.454 278.531 115.031 278.416 115.901L278.719 116.712L279.986 122.748C279.408 124.276 279.039 125.089 277.938 126.385C274.888 127.385 261.743 130.283 258.777 130.126L258.261 130.358L257.904 130.37L257.716 129.513C256.961 128.563 257.197 125.073 256.805 123.005C256.119 120.712 252.6 110.912 253.145 109.322L251.282 108.144C250.12 108.236 248.517 108.531 247.324 108.715C246.93 106.909 245.457 103.666 245.571 102.341L245.286 101.889C245.953 101.776 246.94 101.272 247.594 100.973L247.085 96.2499C246.528 90.3533 245.35 84.7237 245.218 78.7455C245.08 72.4529 245.386 69.4799 249.832 64.9453Z" fill="#FAFAF9"/>
<path d="M272.23 103.578C272.52 103.609 274.924 104.491 275.387 104.648C277.574 105.74 279.706 109.877 280.925 112.01C280.632 112.272 280.101 112.777 279.798 112.975C278.887 112.971 278.767 112.988 277.923 113.32L277.663 113.676C278.096 114.453 278.531 115.03 278.416 115.9L278.719 116.711L279.986 122.748C279.409 124.275 279.04 125.088 277.938 126.385C274.888 127.385 261.743 130.282 258.777 130.126L258.261 130.357L257.905 130.37L257.716 129.513C256.961 128.562 257.197 125.073 256.806 123.004C256.119 120.712 252.6 110.911 253.145 109.321L255.289 110.168C261.224 111.987 266.19 108.64 269.052 103.634L269.505 103.963C270.441 103.961 271.449 104.062 272.23 103.578Z" fill="#3B2E42"/>
<path d="M272.229 103.578C272.519 103.609 274.923 104.491 275.386 104.648C277.574 105.74 279.706 109.877 280.924 112.01C280.632 112.272 280.1 112.777 279.797 112.975C278.886 112.971 278.767 112.988 277.922 113.32L277.017 113.032C272.119 114.634 266.943 118.34 261.659 117.802C259.107 117.542 254.81 112.661 255.289 110.168C261.224 111.987 266.19 108.64 269.051 103.634L269.504 103.963C270.44 103.961 271.448 104.062 272.229 103.578Z" fill="#3B2E42"/>
<path d="M277.016 113.034C278.389 112.524 279.45 112.033 280.923 112.012C280.631 112.273 280.099 112.779 279.796 112.976C278.885 112.972 278.766 112.989 277.921 113.321L277.016 113.034Z" fill="#1F1B20"/>
<path d="M253.145 109.32L255.289 110.167C254.811 112.66 259.108 117.541 261.659 117.801C266.943 118.339 272.12 114.633 277.017 113.032L277.923 113.319L277.663 113.675L277.256 114.104C275.341 115.67 274.651 116.077 272.436 117.062C265.814 120.008 262.369 121.832 255.742 117.636C256.353 119.243 257.116 121.119 257.414 122.803L256.806 123.003C256.119 120.711 252.6 110.91 253.145 109.32Z" fill="#1F1B20"/>
<path d="M257.413 122.805C257.736 125.343 257.723 126.955 257.715 129.513C256.96 128.563 257.196 125.073 256.805 123.005L257.413 122.805Z" fill="#1F1B20"/>
<path d="M277.256 114.105L277.663 113.676C278.095 114.453 278.53 115.03 278.416 115.9L278.192 116.083C277.788 115.479 277.536 114.779 277.256 114.105Z" fill="#1F1B20"/>
<path d="M249.832 64.9453C250.504 65.832 251.112 65.2352 252.056 66.1035C249.792 67.4195 248.433 68.8677 247.846 71.5375C246.686 76.817 247.83 85.1505 248.614 90.5126C248.739 91.8611 249.189 97.0013 249.81 97.8573L250.089 98.3948C249.013 100.277 247.82 101.832 245.571 102.341L245.286 101.889C245.953 101.776 246.94 101.272 247.594 100.973L247.085 96.2499C246.528 90.3533 245.35 84.7237 245.218 78.7455C245.08 72.4529 245.386 69.4799 249.832 64.9453Z" fill="#3F3B3F"/>
<path d="M249.605 84.0156C251.567 89.3165 252.938 90.352 254.938 94.6574C253.144 95.6193 251.323 96.4734 249.809 97.8547C249.188 96.9988 248.738 91.8585 248.613 90.51L249.089 90.5679C249.542 89.8947 249.552 85.1589 249.605 84.0156Z" fill="#DBD9D9"/>
<path d="M267.662 87.6575L268.186 87.3945C270.674 94.5632 271.954 97.9893 275.386 104.648C274.923 104.492 272.519 103.61 272.229 103.578C271.867 103.02 271.137 101.274 270.829 100.587L270.305 99.8521C270.697 95.3391 269.219 91.8181 267.662 87.6575Z" fill="#3F3B3F"/>
<path d="M264.211 80.1992L265.122 80.5684C265.59 81.781 266.195 83.9524 267.315 84.6071C268.281 85.1726 271.143 84.7798 271.395 85.3118L271.085 84.9899L271.156 85.5801C270.049 86.3384 269.398 86.7675 268.187 87.395L267.663 87.658C266.572 85.1454 265.419 82.6585 264.211 80.1992Z" fill="#3A363A"/>
<path d="M249.605 84.0177L249.75 83.7461C250.13 84.0837 254.96 93.9088 255.197 94.721C254.085 96.3197 251.717 96.6203 250.089 98.3943L249.809 97.8568C251.323 96.4755 253.144 95.6213 254.938 94.6595C252.938 90.354 251.567 89.3185 249.605 84.0177Z" fill="#3F3B3F"/>
<path d="M269.504 103.962C269.952 103.233 270.534 101.46 270.829 100.586C271.137 101.273 271.867 103.019 272.228 103.577C271.448 104.061 270.44 103.96 269.504 103.962Z" fill="#FAFAF9"/>
<path d="M269.051 103.634C269.707 102.086 269.954 101.493 270.305 99.8516L270.829 100.586C270.534 101.46 269.951 103.234 269.504 103.962L269.051 103.634Z" fill="#5B585A"/>
<path d="M225.669 77.2821C224.135 75.3538 221.993 72.1327 221.079 69.8286C218.141 62.396 226.941 58.5911 227.142 55.0191C226.557 49.2127 224.341 47.8253 227.144 41.9157C231.324 33.1061 244.652 29.2067 251.838 36.6906C256.043 41.0679 254.634 46.3853 256.311 51.5266C258.531 58.3271 270.213 58.1427 272.47 65.5288C272.864 66.8016 273.637 68.7471 273.034 69.9651L272.671 69.8779C270.753 62.9074 267.003 60.9764 260.363 59.0479C264.459 61.5465 269.285 64.7529 268.951 70.1884C268.712 74.0919 266.42 77.0163 265.12 80.5675L264.209 80.1984C263.212 78.4667 262.197 76.7463 261.162 75.038C259.19 71.8415 255.926 67.0188 252.055 66.1027C251.111 65.2343 250.503 65.8311 249.831 64.9445C249.488 64.7638 248.852 64.6464 248.452 64.554L248.012 64.4005C245.934 66.7165 241.904 70.0365 238.658 68.3691L238.592 68.9847L238.5 68.8312C238.053 68.0538 238.007 67.6682 237.844 66.7876C233.585 66.8151 224.45 81.2265 220.484 83.7521L220.309 83.3552C222.738 81.0845 223.69 79.9794 225.669 77.2821Z" fill="#3B2E42"/>
<path d="M237.554 58.2104C236.964 58.452 235.715 58.8206 235.112 58.8209C230.026 58.8227 230.708 42.3704 232.644 40.7617C235.939 45.998 236.608 46.5308 242.947 48.333C243.832 47.2584 244.255 46.4904 245.7 47.0877C246.422 47.9235 246.453 48.2441 246.705 49.3381C245.868 51.1312 245.448 51.8939 243.832 53.1644L243.983 55.2441L243.909 56.3723C242.586 57.8855 240.653 60.4687 238.767 61.0263C238.46 60.0462 237.997 59.1377 237.554 58.2104Z" fill="#C29787"/>
<path d="M237.555 58.214C239.577 58.2292 243.413 55.1242 243.833 53.168L243.983 55.2477L243.909 56.3759C242.587 57.8891 240.653 60.4723 238.768 61.0299C238.46 60.0498 237.997 59.1413 237.555 58.214Z" fill="#997265"/>
<path d="M238.769 61.029C240.654 60.4714 242.587 57.8881 243.91 56.375C244.564 60.184 244.818 61.8892 248.014 64.4016C245.935 66.7175 241.906 70.0375 238.659 68.3702C238.326 66.8164 239.484 64.7804 238.769 61.029Z" fill="#C29787"/>
<path d="M246.706 49.3398L247.037 49.6668C246.688 52.3052 244.941 52.376 243.984 55.2458L243.834 53.1661C245.449 51.8956 245.869 51.133 246.706 49.3398Z" fill="#1F1B20"/>
<path d="M224.828 61.2422C224.782 61.5318 223.915 63.186 223.719 63.6377C222.679 66.0143 222.531 67.1225 222.239 69.6811C222.162 69.2822 222.106 68.8798 222.071 68.4751C221.755 65.1953 222.869 63.6438 224.828 61.2422Z" fill="#DBD9D9"/>
<path d="M277.922 113.318C278.766 112.986 278.886 112.969 279.796 112.973L279.883 113.13C281.185 115.428 283.969 117.553 283.846 119.797C283.559 120.566 282.892 120.895 282.198 121.362C281.587 120.363 279.725 117.057 278.718 116.71L278.415 115.898C278.53 115.028 278.095 114.452 277.662 113.674L277.922 113.318Z" fill="#3F3B3F"/>
</g>
<defs>
<clipPath id="clip0_966_4327">
<rect width="376" height="176" fill="white"/>
</clipPath>
</defs>
</svg>
