<svg width="393" height="852" viewBox="0 0 393 852" fill="none" xmlns="http://www.w3.org/2000/svg">
<rect width="393" height="852" rx="40" fill="white"/>
<rect width="393" height="852" rx="40" fill="white"/>
<path d="M194.233 371.74C200.637 371.385 202.486 373.885 206.716 378.147L213.329 384.786L224.042 395.542C227.08 398.556 232.456 403.415 234.451 406.787C235.951 409.371 236.383 412.439 235.654 415.336C234.055 421.514 228.024 424.848 221.898 423.227C220.344 422.808 218.934 421.972 217.82 420.809C216.192 419.126 214.794 416.412 213.544 414.394C210.729 409.84 208.146 405.153 205.495 400.504C203.599 397.18 201.393 394.761 197.633 393.753C190.694 392.608 187.78 398.645 184.85 403.706C183.039 406.84 181.196 409.955 179.321 413.052C177.805 415.601 176.336 418.385 174.363 420.598C171.281 424.055 165.426 424.485 161.514 422.219C158.946 420.698 157.088 418.217 156.351 415.325C155.744 412.99 155.876 409.38 157.129 407.35C159.498 403.51 163.784 399.829 167.007 396.605L178.128 385.333C180.141 383.314 182.137 381.278 184.115 379.224C187.198 376.034 189.771 372.859 194.233 371.74Z" fill="#3D2C4C"/>
<path d="M194.09 346.129C200.432 345.179 206.336 349.576 207.242 355.925C208.149 362.274 203.713 368.147 197.358 369.011C191.063 369.866 185.258 365.481 184.36 359.193C183.462 352.904 187.807 347.07 194.09 346.129Z" fill="#3D2C4C"/>
</svg>
